<?xml version="1.0" standalone="no"?>
<!DOCTYPE svg PUBLIC "-//W3C//DTD SVG 20010904//EN"
 "http://www.w3.org/TR/2001/REC-SVG-20010904/DTD/svg10.dtd">
<svg version="1.0" xmlns="http://www.w3.org/2000/svg"
 width="1280.000000pt" height="1280.000000pt" viewBox="0 0 1280.000000 1280.000000"
 preserveAspectRatio="xMidYMid meet">
<g transform="translate(0.000000,1280.000000) scale(0.100000,-0.100000)"
fill="#000000" stroke="none">
<path d="M6185 12794 c-463 -22 -1008 -98 -1335 -186 -355 -95 -892 -291
-1213 -442 -355 -167 -757 -410 -1072 -646 -473 -356 -826 -690 -1119 -1056
-334 -419 -499 -675 -783 -1210 -82 -157 -237 -527 -314 -754 -193 -566 -292
-1063 -339 -1705 -39 -536 33 -1316 171 -1870 212 -846 589 -1658 1079 -2320
206 -279 565 -678 793 -882 208 -185 527 -444 684 -555 342 -241 960 -566
1383 -728 167 -64 525 -182 630 -208 542 -134 765 -172 1258 -217 170 -16 390
-13 757 10 233 15 600 58 722 85 26 6 108 22 183 36 336 61 814 208 1120 344
396 176 698 328 910 458 343 211 712 487 965 723 61 56 138 124 171 150 34 27
70 61 80 77 9 15 66 79 125 142 212 227 512 602 643 803 176 270 414 715 542
1015 57 134 104 246 104 248 0 3 27 75 60 160 106 275 217 653 285 974 42 200
92 578 116 880 13 156 6 764 -9 880 -6 41 -16 129 -22 195 -18 186 -57 435
-96 608 -69 306 -203 767 -261 897 -14 30 -33 80 -42 110 -29 90 -194 455
-273 605 -221 419 -481 808 -765 1147 -189 226 -242 284 -389 428 -436 425
-845 724 -1447 1060 -313 173 -653 315 -1127 468 -224 73 -239 76 -530 136
-568 117 -740 137 -1215 140 -198 2 -391 2 -430 0z m540 -114 c174 -6 352 -17
445 -29 85 -11 244 -32 354 -46 282 -36 614 -124 1116 -294 189 -64 260 -92
530 -211 194 -85 399 -189 540 -274 181 -109 524 -349 667 -466 59 -49 153
-120 208 -157 77 -52 153 -120 336 -303 306 -306 487 -518 662 -779 183 -273
233 -352 302 -476 43 -77 97 -174 120 -216 52 -92 194 -398 264 -571 85 -212
176 -481 240 -713 142 -514 194 -867 226 -1550 11 -222 -25 -722 -75 -1065
-129 -869 -512 -1853 -1011 -2596 -121 -179 -277 -388 -385 -514 -49 -58 -118
-141 -154 -185 -76 -96 -401 -421 -556 -558 -111 -98 -363 -296 -555 -438
-139 -102 -392 -256 -724 -441 -320 -179 -1041 -448 -1450 -542 -216 -50 -374
-76 -615 -102 -135 -14 -254 -30 -265 -35 -22 -9 -301 -25 -625 -34 -230 -7
-220 -8 -665 56 -550 80 -1063 215 -1565 414 -343 135 -762 354 -1093 571
-455 298 -928 718 -1327 1179 -276 319 -653 897 -837 1284 -274 574 -417 986
-548 1574 -89 401 -138 1210 -105 1722 10 143 42 381 86 640 36 212 146 632
241 920 82 250 136 379 308 740 287 601 823 1336 1266 1733 190 171 214 190
258 203 23 7 50 23 59 36 56 80 101 130 169 188 82 70 220 165 275 189 18 8
63 40 100 73 96 85 410 269 733 430 576 289 1307 517 1865 583 52 6 163 20
245 32 83 11 248 23 370 27 121 5 234 8 250 9 17 1 161 -3 320 -8z"/>
<path d="M6025 12599 c-546 -31 -931 -98 -1125 -194 -36 -18 -88 -38 -117 -45
-79 -18 -392 -121 -533 -175 -265 -101 -748 -336 -975 -475 -215 -131 -361
-227 -475 -311 -111 -82 -453 -371 -623 -525 -45 -41 -96 -79 -114 -85 -23 -7
-35 -19 -43 -43 -5 -17 -36 -61 -68 -97 -31 -36 -77 -89 -102 -119 -24 -30
-69 -82 -100 -115 -158 -173 -485 -632 -623 -876 -198 -349 -413 -827 -552
-1229 -26 -74 -54 -151 -62 -170 -45 -109 -86 -290 -132 -592 -91 -588 -95
-635 -95 -1118 0 -330 4 -465 17 -602 93 -937 375 -1789 874 -2639 139 -236
390 -583 596 -824 179 -208 453 -488 593 -606 81 -68 175 -149 207 -179 56
-52 196 -158 402 -304 104 -74 366 -231 504 -302 52 -26 117 -67 143 -91 96
-85 495 -258 868 -376 339 -107 611 -172 1050 -251 272 -49 574 -71 925 -68
739 6 1355 120 2060 378 585 215 1110 504 1633 899 368 277 746 644 1026 993
400 501 575 784 861 1392 73 156 218 520 290 730 61 176 203 797 235 1028 47
335 65 1011 36 1352 -46 543 -133 953 -318 1505 -97 289 -144 407 -260 645
-242 500 -449 840 -710 1167 -215 270 -304 371 -512 578 -435 433 -935 793
-1521 1096 -158 81 -262 128 -570 257 -155 65 -451 159 -682 216 -197 50 -674
137 -843 155 -283 30 -826 40 -1165 20z m1040 -99 c529 -53 1184 -211 1650
-398 380 -152 602 -262 930 -460 275 -165 467 -310 860 -646 154 -132 373
-349 500 -496 185 -213 577 -779 723 -1040 82 -147 183 -348 222 -440 15 -36
43 -101 63 -145 112 -260 245 -662 303 -915 34 -149 36 -142 -38 -140 -116 3
-124 1 -169 -35 -52 -42 -62 -43 -83 -10 -15 23 -22 25 -100 25 -112 0 -116 4
-160 161 -20 70 -49 163 -65 207 -16 44 -32 100 -36 124 -11 65 -52 191 -96
292 -22 49 -44 120 -50 156 -7 49 -35 117 -108 270 -55 113 -106 221 -114 240
-29 71 -200 335 -347 535 -19 26 -81 114 -137 194 -139 198 -139 199 -192 225
-95 49 -214 167 -196 195 9 16 -229 244 -405 386 -47 38 -112 94 -146 125 -42
38 -101 75 -190 120 -71 36 -164 91 -208 123 -43 32 -95 66 -115 76 -20 11
-108 60 -196 110 -156 89 -307 156 -418 185 -31 8 -122 45 -204 82 -138 62
-154 67 -244 74 -53 4 -126 17 -160 29 -35 11 -104 27 -154 35 -49 8 -198 33
-330 56 -132 22 -318 47 -415 55 -96 8 -211 20 -255 27 -44 6 -102 11 -130 10
-27 -1 -133 2 -235 8 -193 11 -319 5 -470 -25 -41 -8 -154 -19 -250 -25 -96
-5 -209 -14 -250 -19 -41 -6 -95 -11 -120 -11 -41 0 -43 1 -24 14 32 23 255
114 320 131 62 16 103 13 141 -12 51 -34 74 27 28 72 -31 32 -95 33 -197 5
-130 -35 -516 -119 -604 -131 -62 -8 -89 -8 -97 0 -17 17 70 50 165 62 87 11
117 24 98 43 -19 19 -140 9 -219 -18 -47 -16 -96 -26 -133 -26 -43 0 -79 -9
-140 -34 -108 -45 -174 -63 -278 -76 -103 -14 -130 -20 -130 -30 0 -4 6 -10
13 -13 19 -7 190 11 272 29 87 19 195 32 195 24 0 -4 -18 -15 -39 -25 -48 -21
-94 -65 -69 -65 9 0 39 5 66 12 43 9 53 9 67 -5 19 -20 55 -15 139 20 66 27
168 38 235 26 80 -15 60 -29 -86 -63 -261 -61 -385 -99 -834 -255 -266 -93
-329 -118 -329 -133 0 -12 -72 -50 -136 -72 -64 -22 -236 -113 -314 -165 -29
-19 -56 -35 -60 -35 -5 0 -30 -17 -57 -37 -26 -20 -85 -58 -129 -84 -133 -77
-424 -296 -424 -319 0 -9 -236 -222 -288 -260 -29 -22 -35 -23 -55 -10 -12 8
-42 17 -67 20 -44 5 -46 7 -120 114 -80 114 -106 139 -116 112 -10 -26 3 -60
40 -106 38 -49 39 -61 3 -37 -66 43 -94 82 -122 170 -15 48 -31 90 -36 93 -24
15 -1 49 87 131 53 48 133 123 177 166 44 42 84 77 88 77 5 0 43 28 86 63 250
202 493 363 883 585 175 99 416 214 540 257 58 20 145 55 194 77 49 22 189 73
310 114 483 161 882 236 1486 279 201 14 844 11 1005 -5z m-460 -705 c56 -9
96 -21 107 -33 40 -40 47 -216 11 -285 -13 -26 -14 -46 -3 -156 16 -160 10
-502 -8 -523 -10 -12 -11 -42 -6 -120 4 -66 2 -136 -5 -187 -18 -120 -16 -222
3 -260 17 -33 14 -47 -15 -68 -39 -28 -54 -322 -24 -465 20 -92 20 -125 6
-385 -7 -116 -10 -249 -9 -295 3 -83 3 -83 18 -48 14 35 14 35 21 10 11 -39
10 -242 -1 -301 -17 -84 6 -293 37 -339 13 -19 23 -49 23 -68 0 -25 5 -35 25
-42 24 -9 34 -34 17 -44 -13 -8 -204 22 -216 34 -7 7 -7 16 1 29 15 23 8 31
-29 31 -16 0 -43 7 -60 16 -23 12 -146 31 -220 34 -4 0 -12 9 -17 19 -8 14 -4
40 13 97 16 55 25 119 30 208 12 214 39 202 59 -27 7 -79 15 -126 22 -124 11
4 10 207 -5 738 -7 286 -8 298 -33 355 -31 71 -38 172 -43 559 -2 241 -4 266
-25 325 -24 68 -39 262 -24 297 12 26 22 -25 24 -114 1 -68 10 -89 27 -62 26
42 48 -194 42 -439 -3 -95 -1 -175 3 -178 29 -18 49 158 49 437 0 130 4 188
15 218 8 23 17 70 21 105 7 67 -10 221 -28 262 -11 24 -13 25 -25 8 -7 -10
-13 -26 -13 -37 0 -10 -5 -17 -12 -15 -29 10 -35 170 -17 418 9 130 9 156 -5
189 -11 29 -13 58 -9 109 3 39 9 74 12 79 11 16 135 62 156 57 11 -2 60 -10
110 -19z m-335 -99 c0 -23 -5 -58 -11 -76 -9 -25 -8 -63 6 -177 16 -125 17
-146 4 -154 -19 -12 -25 -11 -43 7 -18 18 -20 85 -7 291 9 137 13 153 37 153
10 0 14 -12 14 -44z m-154 24 l27 -11 -6 -567 c-6 -546 -19 -1249 -36 -2008
-8 -342 -9 -363 -29 -390 -11 -16 -28 -67 -37 -114 -19 -94 -32 -125 -67 -157
-33 -30 -140 -64 -228 -70 -75 -5 -76 -5 -107 25 -17 17 -52 73 -78 124 -49
95 -259 471 -390 698 -40 69 -96 170 -125 225 -29 55 -166 303 -304 550 -359
645 -371 667 -436 801 -33 67 -80 149 -104 182 -118 160 -108 190 94 285 181
85 366 147 500 167 36 6 151 37 255 69 205 63 427 114 570 131 50 6 151 22
225 35 209 37 236 40 276 25z m1104 -21 c164 -21 296 -43 355 -60 22 -6 56
-14 75 -19 19 -4 62 -16 94 -25 41 -12 75 -15 111 -10 49 6 62 2 186 -53 74
-32 152 -65 174 -71 48 -15 215 -77 270 -101 304 -131 280 -116 280 -177 -1
-63 -44 -152 -196 -409 -56 -93 -223 -378 -371 -634 -149 -256 -340 -584 -425
-730 -85 -146 -218 -375 -296 -509 -138 -238 -160 -268 -264 -358 -79 -68 -89
-70 -170 -34 -88 38 -151 53 -175 40 -14 -8 -16 -14 -8 -29 15 -27 -2 -32 -41
-11 l-34 18 -8 109 c-4 60 -3 474 3 919 5 446 12 1078 15 1405 6 646 9 713 32
735 10 11 38 15 91 16 42 1 88 5 102 9 14 4 32 6 40 3 8 -3 80 -13 160 -24z
m1870 -461 c111 -39 155 -65 213 -127 81 -86 94 -146 45 -211 -28 -39 -16 -51
20 -18 36 33 56 39 90 27 32 -11 167 -156 151 -161 -6 -2 5 -17 25 -33 20 -17
53 -44 74 -61 42 -36 94 -64 117 -64 8 0 15 -6 15 -14 0 -19 57 -67 117 -100
30 -17 60 -45 82 -77 19 -28 46 -56 60 -64 14 -7 67 -56 116 -108 162 -170
298 -317 313 -340 9 -12 45 -56 82 -97 36 -41 77 -91 90 -110 13 -19 41 -55
62 -80 21 -25 44 -55 51 -66 7 -12 27 -46 44 -75 18 -30 33 -57 33 -61 0 -22
-513 -325 -664 -392 -28 -12 -80 -43 -116 -67 -36 -25 -123 -78 -195 -118 -71
-41 -213 -122 -315 -181 -261 -151 -381 -217 -458 -252 -37 -17 -134 -73 -215
-125 -82 -52 -170 -103 -195 -115 -26 -11 -83 -37 -127 -58 -242 -116 -459
-204 -531 -215 -45 -7 -51 -4 -118 77 -26 31 -79 83 -118 114 -65 52 -70 59
-64 87 3 17 71 144 151 281 129 224 169 289 281 456 17 25 43 74 58 110 36 86
136 249 244 402 142 199 295 453 387 640 123 253 249 445 454 698 81 99 83
123 5 62 -16 -13 -45 -33 -64 -45 -41 -26 -284 -383 -394 -579 -158 -283 -484
-823 -524 -870 -57 -67 -119 -173 -146 -250 -18 -53 -130 -243 -274 -468 -38
-58 -131 -152 -144 -144 -4 3 -8 20 -8 37 -1 31 -1 31 -16 12 -8 -11 -58 -92
-110 -179 -93 -158 -120 -222 -68 -161 54 63 86 95 95 95 5 0 19 21 30 46 44
103 27 -1 -22 -131 -33 -90 -42 -143 -36 -223 11 -158 38 -198 159 -235 46
-14 101 -28 123 -31 56 -9 138 9 221 48 40 19 87 37 105 41 53 11 78 27 179
114 58 49 130 99 184 127 48 26 165 94 259 152 204 126 322 188 371 198 103
19 20 -56 -90 -82 -30 -7 -82 -32 -125 -62 -41 -27 -126 -75 -189 -107 -63
-31 -145 -81 -181 -110 -36 -29 -90 -69 -120 -89 -30 -20 -81 -57 -114 -82
-33 -25 -85 -58 -115 -74 -30 -15 -86 -44 -125 -64 -38 -20 -75 -36 -81 -36
-6 0 -17 -6 -23 -14 -23 -28 7 -26 71 4 34 16 75 30 89 30 45 0 190 59 364
149 173 89 395 217 395 227 0 3 -19 3 -42 -1 -39 -7 -41 -6 -28 9 18 23 84 56
110 56 17 0 20 -4 15 -22 -5 -17 6 -10 46 28 30 29 106 87 169 129 63 43 134
95 157 116 23 21 94 63 158 95 102 49 181 98 409 254 41 28 61 34 130 41 45 4
103 17 130 29 62 26 159 95 211 150 22 23 69 61 105 86 36 24 88 60 115 80 53
38 181 104 202 104 7 0 30 26 52 58 50 74 84 98 118 83 38 -18 120 -99 134
-134 7 -18 23 -54 35 -82 28 -64 38 -124 25 -157 -16 -44 -71 -98 -98 -98 -13
0 -54 -16 -90 -35 -66 -35 -103 -44 -103 -25 0 41 -125 -33 -220 -130 -71 -73
-106 -99 -157 -114 -30 -10 -29 5 3 43 14 17 22 31 17 31 -20 0 -100 -59 -124
-90 -13 -18 -40 -48 -59 -67 -40 -40 -508 -314 -649 -380 -51 -24 -128 -68
-170 -97 -80 -56 -400 -238 -439 -250 -14 -5 -29 -3 -37 4 -9 7 -26 10 -42 5
-41 -10 -169 -87 -242 -146 -61 -49 -241 -179 -363 -261 -31 -22 -87 -55 -125
-74 -118 -61 -202 -188 -211 -319 l-4 -72 61 -66 c34 -36 82 -75 106 -87 24
-11 49 -28 57 -37 20 -25 65 -40 156 -53 77 -12 84 -15 98 -42 l16 -30 221 2
c122 2 240 2 261 1 72 -2 28 -14 -83 -21 -75 -5 -118 -13 -135 -24 -14 -9 -36
-16 -50 -16 -70 0 -77 -36 -8 -45 26 -3 96 -15 157 -26 60 -11 177 -24 260
-29 82 -5 195 -15 250 -21 104 -12 397 -6 530 11 39 5 103 9 143 10 68 0 94
12 56 27 -8 3 -169 0 -358 -6 -235 -8 -351 -9 -370 -2 -14 6 -97 15 -184 21
-160 11 -253 23 -300 41 -25 10 -26 11 -8 21 13 7 96 8 257 3 245 -7 845 8
992 25 67 8 87 7 135 -9 86 -29 211 -43 377 -43 169 0 241 11 285 44 29 21 33
22 128 10 131 -16 222 -15 295 4 41 10 81 14 121 10 34 -4 88 -8 121 -9 76 -4
99 -19 132 -85 37 -76 37 -169 -2 -247 -32 -66 -55 -78 -134 -70 -31 3 -317
10 -636 15 -459 7 -589 11 -625 23 -35 11 -41 16 -27 22 24 10 21 34 -5 39
-183 36 -428 49 -428 23 0 -14 289 -68 362 -67 47 0 58 -16 17 -24 -47 -9
-314 -6 -394 4 -38 6 -167 17 -285 25 -118 8 -233 19 -255 24 -62 15 -336 35
-377 27 -37 -7 -61 -27 -41 -33 6 -2 19 -11 29 -19 17 -14 -17 -15 -345 -10
-414 6 -403 8 -474 -78 -29 -35 -45 -46 -67 -46 -33 0 -50 -23 -50 -65 0 -14
-7 -59 -15 -100 l-16 -74 43 -55 c24 -30 50 -65 59 -78 18 -25 329 -242 400
-278 24 -13 79 -45 122 -73 43 -27 108 -62 145 -77 138 -56 246 -120 350 -208
29 -24 88 -63 130 -87 126 -69 226 -127 245 -143 32 -28 2 -33 -74 -12 -62 17
-75 18 -87 6 -11 -11 -9 -17 13 -34 14 -11 56 -31 93 -43 124 -41 207 -77 282
-123 58 -36 76 -43 78 -31 6 25 51 17 165 -29 125 -51 268 -130 347 -191 62
-48 243 -155 430 -254 87 -46 140 -82 180 -121 30 -30 69 -59 85 -65 48 -16
78 -84 72 -165 -2 -39 -12 -82 -25 -106 -40 -79 -169 -184 -226 -184 -59 0
-196 104 -196 149 0 23 -10 31 -89 73 -58 30 -132 100 -119 113 3 3 25 -4 49
-15 52 -23 69 -25 69 -6 0 20 -58 61 -157 110 -137 68 -208 89 -291 90 l-73 1
-86 70 c-115 93 -152 118 -258 172 -49 25 -111 60 -136 79 -25 18 -101 63
-169 99 -132 70 -248 144 -271 171 -12 15 -10 16 26 12 68 -9 204 -55 243 -82
20 -14 62 -46 92 -71 61 -51 156 -100 213 -110 20 -4 57 -22 81 -41 25 -19 57
-34 71 -34 69 0 132 -60 107 -101 -19 -29 -9 -36 60 -44 53 -6 70 -13 102 -43
37 -32 40 -34 52 -17 17 23 90 15 154 -18 119 -62 217 -120 265 -157 28 -22
59 -40 69 -40 23 0 43 46 30 68 -18 28 -75 62 -104 62 -15 0 -90 31 -166 69
-77 39 -175 81 -219 96 -89 29 -103 37 -195 111 -36 28 -112 78 -170 109 -58
31 -135 79 -171 106 -36 27 -124 79 -195 117 -71 37 -170 95 -219 129 -119 80
-320 193 -462 260 l-116 54 -21 -20 c-12 -12 -27 -21 -33 -21 -6 0 -46 29 -90
63 -107 88 -207 155 -278 188 -59 29 -122 37 -141 20 -12 -11 -82 -22 -159
-24 -65 -2 -72 -12 -34 -53 l20 -21 -126 5 c-152 6 -194 -6 -243 -70 -25 -33
-31 -48 -27 -72 3 -17 14 -98 24 -181 15 -120 26 -167 54 -235 19 -47 40 -101
46 -121 17 -54 127 -241 205 -349 97 -135 335 -610 404 -806 40 -115 92 -201
207 -341 27 -33 79 -105 114 -160 67 -104 420 -739 479 -860 l34 -73 -13 -67
c-16 -84 -31 -118 -75 -163 -19 -19 -43 -44 -53 -55 -11 -11 -47 -31 -81 -44
-74 -28 -109 -24 -177 22 -42 28 -55 46 -105 147 -66 133 -76 177 -25 117 18
-20 35 -37 39 -37 4 0 14 11 23 23 22 34 6 74 -111 269 -53 90 -104 178 -111
197 -13 31 -13 36 2 47 16 12 13 21 -29 109 -25 52 -52 124 -61 158 -36 148
-233 488 -469 812 -112 154 -115 157 -129 152 -13 -4 -14 -35 -3 -82 7 -28 6
-29 -7 -12 -8 10 -20 57 -27 105 -18 138 -46 236 -94 335 -50 101 -193 331
-259 415 -23 30 -59 76 -80 103 -20 26 -68 73 -105 103 -37 29 -84 73 -106 95
-73 79 -152 100 -231 61 -89 -44 -206 -136 -240 -190 -21 -32 -24 -55 -34
-246 -10 -203 -15 -244 -30 -244 -3 0 -21 25 -39 55 -22 37 -40 55 -53 55 -26
0 -24 -22 7 -95 14 -34 29 -96 34 -143 5 -45 14 -97 20 -115 10 -27 8 -47 -13
-127 -31 -116 -81 -390 -102 -562 -17 -139 -20 -267 -6 -252 9 10 18 63 62
363 16 112 33 211 38 220 8 14 11 12 19 -9 15 -40 27 -264 22 -400 -8 -214 -5
-506 8 -735 14 -230 5 -580 -19 -730 -6 -41 -9 -174 -7 -319 l3 -249 -25 -18
c-22 -16 -166 -53 -195 -50 -5 1 -46 5 -90 10 -88 10 -123 21 -167 53 -25 17
-29 26 -24 49 4 20 1 31 -11 38 -14 7 -16 27 -14 136 3 175 16 199 24 43 3
-80 11 -139 22 -164 14 -35 17 -36 32 -22 9 9 28 52 42 95 24 70 30 79 59 87
17 6 34 16 37 24 5 15 -16 377 -35 604 -13 154 -13 224 2 248 10 15 10 22 0
32 -6 6 -12 26 -12 43 0 17 -7 41 -16 53 -25 37 -33 180 -34 607 0 320 -3 416
-16 480 -14 73 -13 155 2 208 9 28 22 10 30 -38 3 -25 10 -45 15 -45 5 0 9 5
9 10 0 6 4 10 8 10 5 0 12 -74 15 -164 4 -90 14 -231 23 -312 10 -96 14 -184
10 -249 -10 -165 -15 -537 -6 -420 17 225 23 721 11 950 -20 382 -30 503 -48
548 -12 30 -18 90 -22 210 -6 168 -6 169 -33 190 -26 22 -26 25 -30 157 -3
120 -6 140 -28 185 -34 67 -91 96 -204 102 -113 7 -151 -8 -188 -71 -17 -28
-26 -56 -23 -67 9 -26 99 -66 180 -80 102 -17 121 -29 135 -88 9 -39 8 -315
-5 -1258 -27 -1994 -28 -2051 -48 -2070 -25 -26 -107 -19 -213 16 -68 22 -124
33 -225 41 -172 15 -215 24 -266 60 -23 17 -46 30 -52 30 -6 0 -42 14 -79 31
-59 27 -74 30 -127 25 -111 -11 -135 -8 -225 34 -48 22 -90 40 -94 40 -3 0
-47 16 -96 35 -49 19 -107 35 -127 35 -43 0 -102 25 -165 68 -24 16 -82 50
-129 75 -118 64 -125 74 -110 139 20 88 120 264 170 301 27 19 32 44 12 68
-17 21 -16 23 27 88 24 36 82 142 129 235 88 177 105 208 263 476 54 91 159
275 235 410 76 135 164 288 195 340 32 52 107 181 168 285 61 105 174 295 251
424 78 129 141 238 141 243 0 21 -42 4 -81 -35 -119 -116 -215 -248 -298 -409
-32 -62 -70 -135 -84 -163 -15 -27 -40 -79 -57 -115 -16 -36 -61 -108 -100
-160 -130 -177 -163 -232 -201 -334 -52 -141 -71 -183 -113 -248 -20 -32 -41
-69 -46 -83 -5 -14 -34 -67 -63 -118 -30 -51 -75 -132 -102 -182 -26 -49 -59
-105 -72 -123 -14 -18 -63 -105 -109 -192 -46 -88 -120 -221 -165 -297 -45
-76 -116 -196 -158 -267 -44 -74 -85 -133 -98 -139 -28 -13 -94 19 -162 79
-36 32 -57 42 -96 48 -27 3 -58 14 -68 24 -17 17 -16 22 31 108 27 49 86 163
133 254 48 95 117 212 163 275 129 177 166 235 166 256 0 41 -42 11 -106 -76
-26 -36 -49 -63 -52 -61 -5 6 61 119 100 171 16 22 68 103 115 180 101 165
122 191 177 226 56 35 105 92 157 180 23 41 68 112 100 159 74 109 183 312
220 409 67 175 178 349 261 408 75 55 154 197 184 333 10 41 27 89 40 106 27
35 30 62 12 112 -12 31 -11 35 11 53 13 10 36 19 52 19 16 0 38 9 50 21 16 16
28 19 47 14 15 -4 42 -6 61 -6 22 1 78 -19 160 -58 271 -126 554 -191 841
-191 136 0 223 13 305 44 33 13 98 36 145 51 210 66 324 123 511 251 177 123
253 205 414 449 62 94 105 175 141 265 47 116 95 263 110 339 44 226 19 570
-61 836 -65 216 -297 596 -420 691 -27 21 -83 66 -123 102 -99 86 -209 156
-379 241 -79 39 -143 76 -143 81 0 6 4 10 8 10 15 0 53 41 47 51 -4 5 -21 9
-38 9 -33 0 -77 23 -77 40 0 6 17 17 38 25 47 20 170 105 242 166 30 26 67 52
81 58 18 6 44 38 80 98 29 48 94 149 144 223 50 74 106 163 124 197 35 65 96
143 112 143 17 0 9 -71 -16 -132 -14 -33 -45 -95 -70 -138 -50 -85 -56 -103
-24 -74 61 55 152 250 223 477 42 136 90 246 137 314 48 70 218 273 229 273
10 0 1 -30 -26 -81 -21 -42 -8 -51 22 -14 81 101 197 406 166 437 -21 21 -14
40 59 166 59 102 70 129 65 153 -11 56 52 147 93 134 27 -8 26 -24 -4 -70 -15
-20 -25 -39 -23 -41 10 -9 133 83 158 118 37 50 37 58 4 58 -14 0 -38 8 -52
18 -15 9 -36 22 -47 28 -11 6 -21 22 -23 35 -3 32 159 320 208 368 29 28 39
47 44 83 13 86 45 92 206 36z m-5046 -201 c85 -84 112 -124 164 -246 22 -49
55 -111 74 -138 19 -26 53 -82 76 -124 23 -42 65 -107 93 -145 62 -82 107
-176 144 -299 35 -115 44 -132 113 -209 31 -35 78 -99 103 -142 26 -43 89
-151 141 -239 174 -294 246 -435 262 -510 24 -116 107 -409 121 -432 8 -11 37
-29 65 -38 50 -16 53 -20 85 -89 32 -70 33 -71 44 -43 14 35 22 34 46 -5 42
-70 7 -227 -61 -275 -36 -25 -100 -47 -114 -38 -5 3 -10 21 -10 40 0 23 -5 35
-18 39 -9 3 -54 68 -98 143 -45 76 -108 174 -139 218 -33 46 -67 108 -80 145
-29 86 -88 202 -187 369 -120 202 -151 243 -267 365 l-106 111 -53 138 c-61
157 -113 273 -136 302 -15 20 -15 19 -16 -7 0 -16 -4 -28 -9 -28 -11 0 -145
205 -171 262 -11 25 -20 65 -20 97 0 75 -17 122 -62 177 -22 27 -47 62 -55 79
-9 16 -37 59 -63 95 -26 36 -71 106 -100 155 -29 50 -67 108 -85 130 -58 73
-60 80 -19 104 61 36 86 26 140 -61 23 -37 142 -199 181 -246 7 -9 16 -13 19
-9 11 11 -17 67 -74 151 -68 99 -92 151 -91 201 0 57 30 90 72 78 10 -2 51
-37 91 -76z m-506 -244 c10 -16 83 -145 162 -288 388 -705 732 -1321 1013
-1815 368 -647 337 -590 337 -618 0 -42 -39 -102 -87 -133 -26 -16 -52 -29
-59 -29 -22 0 -63 -40 -69 -69 -6 -26 -11 -29 -61 -36 l-56 -7 -206 118 c-114
65 -232 134 -262 153 -30 19 -260 159 -510 311 -250 152 -599 366 -775 475
-176 109 -439 271 -585 360 -146 89 -286 175 -312 191 -52 32 -58 46 -29 66
11 8 30 39 44 70 41 92 250 338 288 338 9 0 37 24 61 53 23 28 47 54 51 55 20
9 137 167 137 185 1 32 180 197 213 197 40 0 57 10 57 34 0 27 36 86 52 86 7
0 34 11 60 25 26 14 51 25 55 24 21 -4 38 7 128 81 150 125 269 199 317 200 9
0 25 -12 36 -27z m182 -83 c7 -18 24 -36 37 -41 21 -8 23 -15 23 -69 0 -33 -4
-60 -8 -60 -8 0 -62 88 -97 158 -9 19 -14 40 -11 48 9 22 41 1 56 -36z m-1575
-95 c35 -71 103 -153 226 -272 65 -64 119 -124 119 -133 0 -10 -15 -35 -34
-56 -19 -22 -67 -77 -108 -124 -50 -58 -91 -93 -125 -111 -89 -45 -227 -180
-298 -291 -35 -55 11 -30 101 55 48 45 85 75 82 66 -9 -23 -104 -154 -160
-221 -57 -67 -135 -184 -185 -276 -20 -37 -57 -96 -83 -132 -26 -36 -53 -83
-60 -105 -18 -58 -39 -96 -68 -127 -23 -25 -26 -26 -39 -10 -12 16 -14 16 -32
-5 -10 -12 -26 -46 -36 -75 -9 -29 -28 -72 -42 -95 -13 -23 -23 -50 -21 -60 3
-12 23 11 64 74 32 51 62 93 66 93 15 0 -21 -89 -64 -155 -24 -38 -61 -100
-82 -137 -21 -38 -40 -68 -43 -68 -9 0 7 82 23 116 14 30 14 35 0 56 -9 12
-16 37 -16 55 0 18 -4 33 -9 33 -9 0 -15 -27 -26 -115 -4 -27 -14 -72 -22 -99
l-16 -50 27 -21 c14 -11 26 -25 26 -30 0 -6 -16 -41 -35 -80 -53 -107 -87
-234 -89 -339 -2 -50 -7 -91 -13 -93 -30 -10 -44 -37 -66 -123 -14 -52 -36
-127 -51 -167 -14 -39 -33 -118 -42 -175 -8 -56 -24 -155 -35 -218 -10 -63
-24 -149 -29 -190 -5 -41 -17 -111 -25 -155 -21 -114 -19 -150 7 -174 20 -19
22 -34 30 -233 5 -117 12 -364 17 -548 7 -288 12 -358 35 -500 31 -195 29
-184 71 -285 19 -44 45 -125 59 -180 49 -192 135 -417 261 -684 48 -101 87
-193 86 -205 0 -11 -3 -59 -6 -106 -4 -59 -2 -92 7 -109 19 -35 32 -27 38 24
3 25 10 46 15 46 6 1 21 -25 35 -58 14 -32 54 -101 90 -152 99 -142 128 -191
147 -246 21 -64 36 -88 97 -155 28 -31 79 -96 113 -145 67 -97 295 -374 428
-520 45 -49 95 -110 110 -135 15 -25 37 -56 49 -70 46 -55 336 -315 409 -367
42 -30 77 -58 77 -63 0 -17 65 -73 154 -132 50 -34 124 -87 164 -120 40 -32
79 -58 86 -58 7 0 28 -12 47 -26 57 -43 186 -104 297 -140 57 -18 119 -44 136
-57 17 -13 105 -61 196 -106 91 -46 179 -91 195 -101 17 -11 91 -35 165 -55
73 -20 164 -52 202 -71 37 -19 75 -34 85 -34 26 0 115 -44 134 -66 16 -18 16
-24 0 -84 -10 -36 -32 -87 -49 -113 -42 -66 -81 -167 -95 -246 -11 -60 -14
-66 -39 -69 -14 -2 -109 24 -210 57 -102 34 -211 66 -244 72 -63 12 -181 66
-594 271 -390 194 -604 323 -885 535 -363 274 -618 509 -941 868 -499 555
-819 1084 -1155 1911 l-73 179 -2 100 c0 55 -6 110 -12 121 -6 12 -27 82 -46
155 -20 74 -51 179 -70 234 -19 58 -45 167 -60 260 -74 457 -87 543 -101 695
-10 99 -16 261 -16 410 1 135 1 270 1 300 0 30 11 123 24 205 44 267 51 328
49 445 -2 94 3 145 28 274 66 343 152 630 240 802 32 62 77 166 100 231 22 65
72 183 110 263 37 80 73 168 79 195 24 103 36 132 83 203 26 40 93 153 148
250 107 187 275 450 314 492 13 14 50 64 82 111 93 137 344 426 418 481 51 37
75 33 100 -17z m1777 -104 c31 -49 36 -81 13 -81 -18 0 -62 64 -74 108 -18 61
13 47 61 -27z m4438 -468 c0 -23 -40 -103 -51 -103 -16 0 -10 41 13 81 23 41
38 50 38 22z m-2024 -728 c6 -103 4 -125 -10 -153 -15 -29 -16 -42 -6 -105 13
-79 10 -147 -5 -148 -5 0 -14 24 -18 53 -8 56 -1 408 10 493 l7 50 8 -35 c4
-19 11 -89 14 -155z m-1646 -102 c41 -46 327 -509 337 -545 7 -25 -27 -23 -60
2 -14 12 -49 64 -78 118 -28 53 -91 165 -140 247 -91 156 -125 225 -111 225 5
0 28 -21 52 -47z m-2407 -20 c109 -66 191 -133 179 -145 -14 -14 -78 18 -102
52 -10 15 -48 44 -84 65 -69 40 -130 95 -91 81 11 -4 55 -28 98 -53z m-307 3
c11 -9 29 -12 42 -9 32 8 68 -14 94 -55 11 -18 39 -45 62 -60 22 -14 67 -46
98 -70 136 -102 857 -526 1013 -595 49 -22 155 -79 235 -127 80 -48 156 -91
170 -95 28 -9 65 -33 130 -86 25 -20 85 -60 134 -89 49 -29 155 -101 235 -159
198 -142 284 -191 338 -191 30 0 66 -12 128 -44 47 -25 93 -50 101 -57 22 -18
-2 -29 -51 -24 l-40 5 40 -15 c44 -17 95 -61 95 -82 0 -8 -13 -40 -30 -72 -41
-81 -116 -141 -177 -141 -24 0 -58 6 -76 14 -53 22 -267 169 -357 246 -47 39
-114 88 -150 108 -36 20 -92 55 -125 78 -81 56 -129 79 -227 110 -93 29 -153
60 -416 216 -193 115 -254 160 -237 176 15 14 254 -3 297 -21 20 -8 71 -39
114 -69 44 -29 129 -75 189 -102 129 -57 152 -72 223 -140 29 -28 52 -44 52
-36 0 50 -117 142 -295 233 -66 34 -155 85 -197 113 -92 63 -126 74 -238 74
-99 1 -140 13 -208 64 -62 45 -78 47 -57 6 13 -24 13 -30 2 -30 -22 0 -229
127 -297 182 -48 39 -64 47 -75 38 -17 -14 -33 -6 -118 56 -41 31 -69 44 -92
44 -32 0 -39 4 -158 98 -30 23 -83 54 -118 68 -86 35 -246 130 -259 154 -33
62 24 179 103 209 21 8 27 17 27 39 0 49 36 67 76 38z m2606 -93 c20 -23 66
-114 84 -167 14 -40 14 -41 -4 -18 -29 38 -114 202 -104 202 5 0 16 -8 24 -17z
m6028 9 c0 -20 -91 -82 -120 -82 -19 0 0 20 54 55 53 35 66 41 66 27z m-8810
-332 c36 -22 94 -51 129 -65 35 -15 134 -71 220 -124 86 -54 208 -129 271
-166 63 -38 140 -85 170 -105 52 -35 969 -587 1130 -680 41 -24 120 -71 175
-105 55 -34 188 -114 295 -177 195 -116 222 -136 233 -173 3 -11 15 -45 26
-75 38 -104 20 -212 -45 -271 -51 -46 -126 -81 -191 -89 -69 -9 -1100 2 -1853
20 -267 6 -642 14 -835 18 -246 6 -357 12 -372 20 -17 9 -23 22 -23 45 0 49
26 220 70 452 22 116 45 242 50 280 25 162 176 655 258 841 68 154 202 394
220 394 3 0 35 -18 72 -40z m966 16 c117 -40 205 -90 284 -164 41 -38 72 -73
68 -78 -5 -4 -38 9 -75 28 -38 19 -120 62 -183 94 -112 58 -203 114 -215 134
-11 18 49 11 121 -14z m2584 -18 c46 -72 100 -175 100 -190 0 -24 -44 -24 -68
0 -16 16 -62 167 -62 202 0 17 14 11 30 -12z m5900 7 c7 -8 10 -27 7 -42 -7
-37 23 -151 66 -248 102 -232 242 -673 283 -890 47 -254 62 -348 84 -516 20
-162 31 -382 19 -394 -10 -9 -2705 14 -2789 24 -84 11 -303 72 -359 101 -63
32 -99 80 -146 196 -49 120 -53 144 -27 166 9 9 123 78 252 153 129 76 254
151 277 167 23 15 93 54 155 86 194 100 409 223 593 339 99 63 534 308 634
358 41 21 120 67 176 104 56 36 138 86 183 111 78 43 320 186 446 263 65 40
124 49 146 22z m-6283 -344 c9 -25 36 -68 59 -94 44 -51 134 -213 134 -241 0
-25 -19 -19 -33 12 -6 15 -27 48 -45 74 -59 84 -202 334 -202 355 0 21 72 -67
87 -106z m1236 53 c-6 -75 -25 -93 -38 -34 -7 32 10 73 28 67 7 -2 11 -17 10
-33z m-1002 -196 c51 -64 99 -166 99 -209 0 -36 -19 -35 -37 2 -84 175 -121
259 -113 259 5 0 28 -24 51 -52z m1191 -45 c27 -24 22 -43 -11 -43 -32 0 -56
22 -47 45 7 20 35 19 58 -2z m-597 -64 c9 -14 -20 -44 -62 -64 -32 -15 -37
-16 -51 -2 -13 14 -13 18 -1 33 28 34 101 55 114 33z m530 -49 c10 -15 -40
-30 -102 -30 -66 0 -63 8 9 26 67 16 85 17 93 4z m470 -20 c37 -18 45 -24 30
-27 -28 -5 -195 33 -209 47 -20 22 124 6 179 -20z m-218 -85 c21 -9 66 -15
110 -15 214 0 488 -108 728 -286 229 -171 368 -335 490 -579 117 -235 175
-472 175 -718 0 -133 -37 -437 -61 -510 -62 -179 -175 -390 -275 -510 -52 -62
-195 -195 -342 -315 -134 -110 -454 -248 -692 -299 -132 -28 -469 -25 -607 5
-276 60 -529 186 -748 374 -136 116 -176 162 -274 308 -192 288 -281 583 -281
935 0 307 72 573 225 827 129 214 248 345 441 484 167 120 463 252 639 284
173 31 414 39 472 15z m1300 -107 c33 -32 43 -58 22 -58 -15 0 -69 59 -69 76
0 21 11 17 47 -18z m4413 -171 c41 -14 74 -60 95 -131 16 -54 66 -451 86 -683
26 -302 13 -933 -20 -966 -17 -17 -23 56 -30 365 -6 299 -7 318 -27 344 -30
40 -49 44 -40 8 18 -75 27 -224 31 -504 4 -301 4 -304 26 -321 46 -34 33 -213
-41 -580 -87 -428 -291 -1053 -446 -1361 -18 -36 -38 -69 -44 -73 -6 -4 -24
-34 -42 -68 -17 -34 -51 -93 -76 -132 -41 -62 -47 -67 -50 -45 -5 34 -18 46
-35 31 -8 -6 -36 -62 -62 -124 -56 -129 -90 -186 -166 -277 -64 -76 -89 -111
-89 -124 0 -22 107 96 201 222 97 129 135 160 103 84 -61 -149 -366 -610 -563
-852 -332 -409 -646 -721 -1034 -1028 -340 -269 -993 -644 -1407 -807 -282
-112 -707 -243 -980 -304 -145 -32 -424 -77 -640 -103 -176 -20 -239 -23 -635
-23 -512 0 -587 6 -1005 76 -319 54 -438 81 -473 109 l-22 18 23 25 c17 18 27
48 38 108 9 52 21 91 33 103 28 30 43 75 36 107 -4 18 -1 37 9 51 9 12 16 35
16 50 0 17 6 29 19 33 10 3 88 -8 172 -24 85 -16 187 -32 226 -36 93 -8 268
-50 307 -74 21 -12 61 -21 121 -25 50 -4 163 -15 253 -24 135 -15 162 -15 162
-4 0 11 21 14 93 13 190 -1 558 7 594 13 21 3 88 11 150 16 61 6 130 17 153
25 24 8 71 15 105 15 45 0 69 5 86 19 44 33 67 41 156 50 124 13 215 44 258
86 20 20 44 35 57 35 22 -1 22 -2 -7 -25 -16 -13 -26 -27 -23 -31 8 -7 249 43
295 62 18 7 48 25 67 39 19 14 82 42 140 60 120 39 180 68 275 131 43 28 85
47 120 54 74 14 208 79 391 191 169 104 218 126 298 139 32 6 68 21 95 40 23
17 89 63 147 102 158 108 300 221 343 272 21 25 82 85 135 132 53 48 125 123
158 168 34 45 108 131 166 192 201 212 249 267 305 353 32 47 74 109 94 136
20 28 76 124 124 215 49 91 109 203 135 250 76 136 117 222 124 260 3 19 19
51 35 70 53 66 94 161 201 470 68 195 97 266 145 350 14 25 25 61 25 80 1 57
19 122 47 165 14 21 34 70 44 107 28 111 66 150 80 82 5 -27 7 -25 22 26 32
104 97 535 97 638 0 43 -4 57 -22 72 l-22 17 17 104 c9 57 19 131 22 164 l6
60 -18 -32 c-19 -37 -33 -43 -33 -14 0 33 22 81 36 81 31 0 44 64 42 193 -1
67 3 185 10 261 l13 140 -26 25 c-22 22 -27 24 -35 11 -5 -8 -10 -25 -10 -37
0 -31 -18 -75 -29 -69 -11 7 -28 105 -36 206 -4 41 -18 120 -31 174 -14 54
-22 106 -19 114 9 24 44 -14 50 -57 12 -70 15 -80 42 -112 49 -58 140 -83 165
-45 17 24 7 36 -28 36 -49 0 -104 34 -104 65 0 25 17 35 56 35 39 0 62 17 84
60 17 33 26 40 49 40 23 0 31 -6 40 -30 5 -16 16 -30 24 -30 8 0 17 -14 21
-32 7 -31 8 -32 21 -14 29 39 29 85 1 173 -30 91 -37 98 -128 123 -81 22 -166
-3 -244 -72 -34 -30 -38 -31 -48 -15 -6 10 -21 31 -34 45 -27 32 -41 77 -49
154 l-6 56 54 27 c47 24 57 26 85 16 38 -14 63 -6 136 44 44 29 62 35 103 34
27 0 66 -5 85 -12z m-7050 -4 c0 -18 -58 -78 -112 -113 -53 -36 -63 -39 -77
-27 -9 8 -26 18 -38 21 -13 4 -23 11 -23 15 0 10 50 21 90 21 19 0 46 15 81
45 48 41 79 56 79 38z m-501 -47 c15 -8 34 -22 42 -32 13 -16 11 -17 -19 -11
-33 7 -81 36 -82 50 0 12 29 8 59 -7z m289 -185 c-9 -26 -100 -131 -108 -126
-6 3 -10 23 -10 44 0 33 4 38 34 49 19 7 40 19 46 27 13 16 44 21 38 6z m-278
-370 c0 -32 -22 -61 -46 -61 -22 0 -17 25 12 59 14 17 28 31 30 31 2 0 4 -13
4 -29z m-110 -356 c0 -42 -47 -94 -71 -79 -15 9 -10 22 22 59 34 38 49 44 49
20z m7388 -166 c3 -46 -11 -67 -32 -50 -19 16 -21 77 -3 84 23 10 32 1 35 -34z
m-10751 -14 c60 -21 318 -24 353 -5 32 17 155 19 171 3 15 -15 -14 -28 -87
-39 -44 -6 -46 -8 -24 -16 34 -14 544 -2 645 14 136 22 644 16 925 -11 362
-35 402 -36 450 -17 31 12 76 16 198 16 86 1 188 5 226 10 81 10 92 7 111 -31
27 -51 94 -45 80 8 -5 21 -2 23 31 23 76 0 167 -22 191 -46 21 -21 23 -32 23
-121 0 -108 -14 -151 -62 -186 -22 -16 -43 -20 -120 -20 -51 1 -113 6 -138 13
-25 7 -101 14 -170 16 -69 2 -168 10 -220 19 -272 44 -334 43 -396 -6 l-37
-29 -476 0 c-262 0 -575 6 -696 13 -136 7 -387 11 -656 8 -387 -3 -440 -1
-467 13 -43 22 -64 68 -70 149 -5 67 -4 69 27 97 17 16 31 38 31 50 0 31 17
58 48 74 34 19 57 19 109 1z m9378 -1 c17 -7 16 -9 -10 -16 -38 -10 -355 12
-355 25 0 12 336 4 365 -9z m-7645 -484 c344 -5 693 -14 775 -21 144 -10 401
-8 475 6 30 5 44 0 100 -37 76 -50 104 -97 115 -187 10 -87 -6 -132 -71 -196
-31 -30 -86 -75 -122 -99 -129 -85 -1116 -636 -1151 -642 -20 -4 -50 -19 -66
-33 -48 -41 -253 -162 -970 -571 -176 -101 -347 -200 -381 -221 -71 -45 -80
-47 -89 -16 -23 83 -112 262 -157 314 -51 60 -111 173 -123 233 -4 19 -29 100
-56 180 -54 165 -74 274 -89 480 -5 80 -21 224 -35 320 -32 217 -43 457 -24
482 13 15 27 16 149 8 108 -7 146 -6 190 5 59 16 200 15 1530 -5z m6555 -30
c1353 -14 1552 -22 1745 -75 62 -17 170 -19 274 -5 74 9 112 1 123 -26 9 -23
-67 -506 -97 -619 -10 -38 -28 -117 -40 -174 -29 -137 -153 -521 -224 -691
-53 -127 -56 -138 -50 -193 l6 -57 -56 -52 c-31 -28 -67 -70 -81 -94 -16 -28
-33 -44 -45 -44 -36 0 -543 293 -688 397 -79 58 -113 76 -242 134 -41 18 -194
104 -340 190 -146 85 -319 188 -386 227 -66 39 -183 112 -260 163 -76 50 -204
127 -284 169 -149 79 -402 228 -521 306 -111 74 -116 92 -64 254 15 47 29 108
32 135 7 80 4 78 91 71 42 -3 541 -10 1107 -16z m2409 -65 c9 -25 -5 -105 -19
-105 -25 0 -33 52 -13 95 13 29 23 32 32 10z m10 -210 c-2 -58 -20 -153 -34
-175 -20 -30 -31 11 -27 95 6 96 20 138 45 133 14 -3 17 -13 16 -53z m-7225
-235 c10 -5 26 -27 34 -49 9 -22 25 -42 36 -46 11 -3 30 -18 41 -32 38 -48 19
-187 -29 -212 -9 -5 -32 -12 -51 -16 -19 -4 -75 -31 -125 -60 -49 -29 -146
-80 -213 -114 -68 -34 -150 -80 -181 -101 -144 -99 -422 -237 -582 -290 -157
-52 -208 -80 -292 -162 -66 -65 -96 -86 -245 -171 -134 -77 -359 -211 -422
-252 -36 -23 -76 -49 -90 -57 -14 -9 -40 -29 -58 -45 -18 -17 -76 -54 -130
-83 -53 -29 -146 -83 -207 -121 -195 -119 -316 -189 -330 -189 -7 0 -43 33
-79 74 l-67 74 23 38 c45 76 150 166 302 259 81 50 180 116 221 148 121 95
321 222 493 313 143 76 158 83 212 99 70 21 143 61 317 173 76 49 190 118 253
152 63 35 131 75 150 91 20 15 94 64 165 109 151 95 162 104 179 145 21 49 73
87 108 80 32 -7 64 9 208 105 112 75 142 90 182 90 20 0 51 12 78 30 48 32 70
36 99 20z m7217 -57 c9 -36 -11 -132 -35 -163 -40 -54 -59 -18 -46 87 10 84
66 136 81 76z m-6862 -185 c38 -44 44 -66 24 -86 -20 -20 -53 -14 -79 14 l-24
25 25 19 c22 17 23 22 13 39 -30 48 -3 41 41 -11z m3235 -197 c20 -15 68 -46
108 -69 85 -50 141 -112 101 -112 -24 0 -203 72 -222 88 -25 23 -76 102 -76
120 0 21 46 7 89 -27z m-3509 -70 c30 -19 67 -41 82 -48 32 -14 65 -64 74
-112 9 -46 -14 -228 -33 -266 -9 -16 -71 -122 -138 -235 -144 -244 -348 -597
-710 -1235 -147 -258 -300 -524 -340 -590 -106 -176 -207 -350 -251 -434 -76
-144 -113 -159 -233 -96 -36 19 -82 41 -101 48 -61 24 -195 134 -286 235 -49
53 -129 140 -179 193 -84 89 -263 283 -490 529 -96 104 -163 202 -190 281 -8
23 -29 66 -46 95 -19 34 -28 61 -24 73 6 20 53 53 166 114 37 20 85 52 107 71
23 18 87 57 144 86 57 29 166 92 243 140 77 48 174 107 215 130 41 24 95 57
120 75 25 18 92 59 150 92 58 34 157 91 220 128 174 102 480 274 615 345 66
35 176 101 245 146 69 45 214 132 324 193 l199 110 31 -16 c17 -9 56 -32 86
-52z m6990 14 c0 -37 -18 -85 -32 -85 -11 0 -10 73 2 105 13 34 30 23 30 -20z
m-3874 -15 c32 -6 73 -16 89 -22 41 -15 358 -188 480 -261 55 -33 325 -191
600 -350 486 -282 939 -547 1174 -690 64 -38 195 -112 291 -164 191 -103 210
-117 210 -145 0 -21 -148 -230 -235 -333 -28 -33 -76 -92 -108 -132 -147 -182
-422 -457 -642 -641 -209 -175 -485 -382 -510 -382 -23 0 -47 39 -95 156 -52
124 -86 180 -174 282 -31 37 -83 120 -127 205 -41 78 -117 214 -170 302 -53
88 -221 390 -374 670 -153 281 -337 614 -409 740 -71 127 -145 258 -164 293
-41 77 -72 215 -72 328 0 87 17 125 64 144 29 12 102 12 172 0z m702 -144 c15
-8 53 -19 84 -25 32 -5 75 -19 97 -31 48 -24 71 -26 71 -4 0 19 13 15 69 -21
41 -25 58 -54 24 -40 -10 4 -29 10 -43 12 -23 4 -23 3 10 -26 19 -18 52 -45
73 -62 34 -29 37 -29 37 -10 0 27 20 27 78 -3 57 -29 82 -53 61 -60 -89 -28
-86 -28 -125 -2 -66 45 -65 11 3 -69 20 -23 29 -41 22 -44 -15 -5 -221 136
-295 202 -33 29 -79 68 -104 87 -113 84 -149 141 -62 96z m-3466 -83 c-13 -25
-4 -43 22 -43 13 0 25 -3 29 -6 8 -8 -51 -119 -74 -140 -17 -16 -19 -15 -28
10 -17 43 -33 34 -106 -62 -26 -35 -50 -61 -52 -58 -6 6 82 152 160 265 28 41
53 69 55 63 2 -6 -1 -19 -6 -29z m-2204 -215 c-2 -7 -20 -21 -39 -30 -19 -9
-41 -24 -50 -33 -12 -12 -19 -13 -24 -5 -9 14 -6 17 52 51 54 31 66 35 61 17z
m3972 -114 c43 -9 57 -30 30 -44 -16 -9 -29 -9 -48 -1 -21 8 -40 7 -82 -4 -30
-8 -64 -15 -74 -15 -19 0 -19 0 0 21 10 12 35 30 54 40 34 18 44 18 120 3z
m144 -106 c30 -40 254 -444 326 -588 29 -58 80 -152 115 -210 34 -58 192 -343
350 -635 158 -291 317 -582 353 -645 36 -63 77 -137 92 -165 15 -27 78 -138
140 -245 146 -253 183 -329 168 -347 -26 -31 -385 -181 -653 -272 -166 -56
-438 -126 -645 -165 -152 -29 -661 -96 -673 -89 -5 3 -6 21 -3 42 3 20 10 677
16 1461 11 1421 18 1712 41 1762 9 20 21 28 53 33 22 4 57 14 76 23 66 29 185
71 202 71 9 1 28 -14 42 -31z m-4584 -38 c-19 -16 -41 -30 -48 -30 -7 0 -35
-11 -62 -25 -27 -14 -56 -25 -65 -25 -26 0 -17 19 13 25 15 3 61 23 102 45 89
47 108 50 60 10z m2260 -290 c-23 -112 -40 -147 -77 -156 -15 -4 -42 -32 -72
-78 -54 -79 -121 -148 -121 -125 0 20 127 243 247 434 47 75 51 60 23 -75z
m2692 -107 c104 -157 209 -366 192 -382 -9 -9 -60 54 -103 129 -32 54 -141
298 -141 315 0 13 10 0 52 -62z m-5524 -5 c-16 -25 -90 -72 -176 -113 -63 -30
-62 -30 -62 -4 0 28 62 89 92 90 12 0 46 11 73 24 28 13 58 24 69 24 17 1 17
-1 4 -21z m8408 -64 c35 -17 42 -28 24 -39 -14 -9 -120 41 -120 56 0 14 47 6
96 -17z m-2190 -886 c51 -72 119 -196 111 -204 -11 -11 -206 296 -207 325 0
15 4 10 96 -121z m-164 -38 c22 -47 46 -96 54 -110 8 -14 31 -56 52 -93 55
-101 152 -271 208 -364 27 -45 69 -117 94 -159 25 -43 58 -100 74 -127 19 -32
25 -52 19 -58 -7 -7 -21 8 -43 43 -18 29 -59 94 -91 143 -31 50 -101 171 -154
270 -54 99 -122 222 -152 273 -74 127 -129 240 -137 282 l-7 35 22 -25 c12
-14 40 -63 61 -110z m2792 -56 c9 -3 16 -15 16 -25 0 -21 -148 -192 -181 -209
-37 -20 -39 1 -4 37 20 20 61 74 92 120 31 46 58 83 59 83 1 0 9 -3 18 -6z
m-2469 -314 c35 -70 43 -104 26 -114 -10 -7 -78 96 -87 131 -7 27 1 53 16 53
5 0 26 -31 45 -70z m2155 -55 c-50 -58 -96 -105 -101 -105 -11 0 -2 13 66 94
85 102 119 138 123 127 2 -6 -38 -58 -88 -116z m-6730 -214 c0 -11 -18 -42
-40 -70 -22 -27 -49 -65 -60 -83 -32 -53 -23 -13 11 50 64 115 89 145 89 103z
m6520 -9 c0 -16 -71 -91 -135 -142 -36 -28 -65 -57 -65 -65 0 -23 -40 -63
-143 -144 -56 -44 -119 -94 -140 -112 -21 -17 -41 -29 -44 -25 -30 30 218 293
397 421 98 70 130 86 130 67z m-4162 -738 c5 -43 -8 -154 -19 -154 -5 0 -9 43
-9 96 0 72 3 95 13 92 6 -3 14 -18 15 -34z"/>
<path d="M6955 12345 c-38 -12 -33 -13 82 -14 67 -1 124 3 127 8 14 23 -144
28 -209 6z"/>
<path d="M6785 12287 c-50 -32 -50 -32 -175 -31 -88 1 -158 8 -235 24 -174 36
-330 17 -570 -70 -79 -28 -197 -44 -236 -32 -19 6 -70 16 -114 22 -44 6 -126
20 -183 31 -175 33 -294 21 -436 -43 -49 -22 -135 -51 -190 -64 -122 -30 -350
-101 -388 -120 -35 -18 -37 -44 -3 -44 14 0 67 9 118 21 126 28 187 37 187 28
0 -4 -10 -11 -22 -15 -54 -16 -108 -47 -108 -61 0 -48 241 49 278 111 24 40
96 77 210 108 107 29 498 36 610 11 97 -22 227 -8 369 42 162 56 336 67 468
29 158 -45 411 -10 481 67 27 30 -3 24 -61 -14z"/>
<path d="M7488 12304 c-15 -15 7 -45 41 -54 271 -71 369 -90 473 -90 108 0
131 7 108 35 -9 11 -36 15 -105 15 -77 0 -112 6 -206 34 -205 62 -293 79 -311
60z"/>
<path d="M7160 12212 c0 -6 45 -25 100 -43 54 -18 105 -36 112 -40 29 -18 -8
-21 -100 -9 -113 15 -142 11 -96 -13 17 -9 38 -27 47 -41 20 -30 52 -40 216
-66 154 -25 239 -54 411 -137 150 -72 389 -158 403 -144 18 18 -104 91 -152
91 -25 0 -467 224 -536 271 -76 52 -405 158 -405 131z"/>
<path d="M8064 11989 c-12 -20 22 -40 144 -84 156 -57 284 -84 306 -66 9 7 16
19 16 26 0 30 -44 47 -201 80 -90 19 -180 39 -199 44 -44 14 -57 14 -66 0z"/>
<path d="M4181 11835 c-132 -29 -261 -83 -261 -110 0 -18 18 -19 57 -4 15 6
77 24 138 40 105 29 175 61 175 80 0 12 -32 10 -109 -6z"/>
<path d="M8705 11762 c6 -5 37 -19 70 -31 81 -30 276 -133 350 -185 67 -48 92
-59 100 -46 17 27 -163 145 -330 216 -101 43 -214 71 -190 46z"/>
<path d="M3765 11652 c-60 -21 -115 -58 -115 -78 0 -17 5 -17 64 0 51 15 156
75 156 88 0 13 -52 8 -105 -10z"/>
<path d="M9210 11625 c0 -2 35 -31 78 -63 42 -32 141 -106 220 -165 78 -60
149 -119 158 -132 19 -29 34 -32 34 -7 0 36 -95 115 -326 270 -140 95 -164
109 -164 97z"/>
<path d="M9510 11532 c0 -4 26 -20 57 -36 146 -72 373 -248 409 -318 9 -18 22
-36 28 -40 14 -9 36 10 36 33 0 48 56 0 128 -107 52 -78 113 -132 227 -199
111 -66 229 -168 315 -274 36 -43 66 -78 68 -76 2 2 -8 28 -23 59 -61 129
-219 289 -358 362 -109 56 -133 79 -219 201 -100 141 -125 163 -185 163 -41 0
-55 7 -132 64 -97 73 -200 137 -256 160 -40 17 -95 21 -95 8z"/>
<path d="M3395 11471 c-139 -50 -288 -133 -375 -209 -45 -39 -64 -72 -42 -72
5 0 37 18 71 40 90 58 140 82 160 75 12 -4 52 19 122 71 57 42 125 87 151 100
43 22 71 45 51 43 -4 0 -67 -22 -138 -48z"/>
<path d="M3545 11305 c-22 -14 -79 -46 -126 -71 -86 -46 -146 -91 -135 -102 3
-3 30 6 58 20 74 36 208 94 238 103 14 4 43 17 65 28 35 17 37 21 20 27 -56
21 -80 20 -120 -5z"/>
<path d="M9499 11271 c33 -29 110 -71 131 -71 40 0 -77 82 -135 95 l-30 6 34
-30z"/>
<path d="M2716 11016 c-60 -22 -88 -47 -121 -107 -27 -49 -30 -63 -30 -144 0
-113 22 -158 88 -176 68 -18 180 12 234 63 29 27 21 38 -29 38 -74 0 -137 96
-112 169 13 35 70 41 118 12 35 -22 81 -28 91 -11 10 16 -66 130 -96 145 -42
22 -100 27 -143 11z"/>
<path d="M10966 10312 c-9 -16 23 -49 93 -97 66 -45 72 -52 106 -132 20 -47
34 -88 30 -91 -6 -7 -19 7 -150 151 -56 63 -95 84 -95 53 0 -7 58 -83 129
-168 79 -95 156 -200 197 -269 115 -196 134 -221 249 -334 115 -113 134 -139
166 -232 23 -68 9 -68 -28 -1 -33 63 -70 80 -60 28 4 -17 19 -59 33 -93 14
-34 39 -96 54 -138 38 -103 96 -223 115 -239 20 -16 20 -1 0 47 -38 90 -69
323 -45 338 5 3 22 -12 38 -35 29 -39 45 -77 132 -302 39 -102 70 -152 70
-114 0 33 -92 302 -132 384 -51 108 -230 345 -368 487 -119 123 -143 162 -225
355 -31 74 -72 162 -90 195 -73 130 -195 245 -219 207z"/>
<path d="M11260 9667 c0 -13 18 -53 41 -87 48 -74 154 -216 169 -225 25 -16 5
31 -52 119 -35 53 -80 123 -100 156 -40 63 -58 75 -58 37z"/>
<path d="M11863 8406 c-35 -16 -53 -43 -53 -78 0 -32 -26 -66 -53 -70 -20 -3
-22 -8 -19 -48 8 -117 38 -165 103 -165 40 0 43 -2 51 -32 10 -39 24 -49 43
-33 20 17 19 24 -10 58 -17 20 -25 42 -25 67 0 21 -5 55 -11 76 -10 32 -9 42
5 64 27 41 53 33 69 -22 8 -27 19 -48 25 -48 6 0 21 16 34 35 45 67 88 44 88
-48 1 -52 2 -55 15 -38 8 10 19 42 25 72 19 92 -12 155 -98 198 -46 24 -149
30 -189 12z"/>
<path d="M6390 11321 c0 -33 4 -62 10 -66 15 -9 32 69 20 99 -16 44 -30 29
-30 -33z"/>
<path d="M6547 11266 c-4 -10 -7 -61 -7 -114 0 -53 -4 -135 -9 -182 -17 -152
-23 -330 -13 -330 22 0 46 128 62 337 13 154 7 259 -14 288 -12 17 -13 17 -19
1z"/>
<path d="M6556 9278 c-3 -13 -6 -84 -6 -158 -1 -107 -5 -146 -20 -190 -26 -74
-25 -78 16 -160 19 -39 42 -88 50 -108 l14 -37 -6 60 c-4 33 -5 74 -3 90 7 68
1 443 -7 479 -11 46 -29 57 -38 24z"/>
<path d="M8790 10822 c-31 -32 -40 -72 -16 -72 23 0 66 43 68 69 4 35 -18 37
-52 3z"/>
<path d="M8866 10418 c-13 -18 -45 -72 -70 -121 -44 -84 -57 -125 -36 -112 27
17 150 224 150 254 0 20 -19 11 -44 -21z"/>
<path d="M8404 9818 c-79 -84 -124 -147 -172 -243 -47 -94 -66 -156 -88 -279
-11 -68 -25 -110 -55 -164 -46 -83 -169 -267 -241 -358 -92 -118 -45 -107 57
13 154 180 267 380 292 517 34 181 70 261 207 461 77 111 79 115 68 115 -5 0
-36 -28 -68 -62z"/>
<path d="M7382 8424 c-49 -65 -103 -165 -117 -214 -7 -25 -7 -25 12 -5 21 21
129 189 157 243 30 59 -3 44 -52 -24z"/>
<path d="M8254 5379 c-7 -13 13 -29 37 -29 9 0 31 -10 50 -23 19 -13 70 -48
114 -78 44 -30 109 -72 143 -93 35 -21 84 -54 108 -72 24 -19 47 -34 51 -34
21 0 -87 92 -184 156 -61 40 -124 89 -138 108 -44 58 -160 99 -181 65z"/>
<path d="M8675 5249 c6 -17 21 -26 113 -76 93 -49 191 -115 237 -159 40 -37
59 -33 31 8 -24 34 -143 126 -233 181 -82 49 -158 73 -148 46z"/>
<path d="M6324 4507 c-14 -37 18 -151 40 -144 25 8 13 100 -18 142 -14 19 -15
19 -22 2z"/>
<path d="M5112 4062 c-25 -34 -135 -292 -129 -299 16 -15 150 226 163 295 8
40 -7 42 -34 4z"/>
<path d="M4388 2863 c-38 -45 -175 -329 -164 -340 6 -6 124 172 166 251 41 79
40 137 -2 89z"/>
<path d="M4081 2307 c-30 -37 -117 -280 -105 -298 9 -15 23 -1 50 54 33 65 94
221 94 242 0 18 -24 20 -39 2z"/>
<path d="M8670 2220 c0 -5 21 -44 47 -86 25 -42 49 -90 52 -107 9 -41 31 -48
31 -10 0 45 -27 113 -65 166 -32 43 -65 62 -65 37z"/>
<path d="M3856 2035 c-40 -60 -73 -179 -57 -204 7 -11 11 -10 20 7 20 38 71
183 71 203 0 26 -14 24 -34 -6z"/>
<path d="M4390 10089 c0 -27 23 -69 50 -94 39 -35 99 -131 130 -210 44 -111
67 -152 121 -220 27 -33 79 -115 115 -183 55 -102 73 -126 103 -141 48 -25 64
-44 97 -116 20 -44 28 -55 32 -41 4 19 -90 218 -123 262 -12 16 -16 17 -24 5
-7 -11 -14 -7 -30 20 -22 35 -81 181 -81 199 0 18 18 10 43 -20 35 -41 41 -38
17 10 -16 31 -28 41 -59 50 -41 11 -64 37 -86 98 -9 28 -18 36 -33 35 -15 -2
-24 8 -37 45 -35 92 -74 158 -140 234 -72 83 -95 99 -95 67z"/>
<path d="M1845 10257 c-59 -34 -93 -96 -105 -196 -11 -81 -10 -85 12 -108 75
-81 218 -131 218 -77 0 8 -12 32 -26 54 -35 53 -30 112 15 168 17 22 31 45 31
51 0 35 67 -8 86 -56 17 -39 35 -39 48 0 7 19 5 36 -8 66 -48 106 -175 152
-271 98z"/>
<path d="M1492 9648 c-22 -28 -42 -79 -42 -106 0 -19 -18 -54 -50 -100 -51
-72 -170 -319 -170 -350 1 -27 32 19 105 156 36 67 97 170 135 228 68 103 75
124 44 124 -12 0 -14 7 -9 30 7 32 3 37 -13 18z"/>
<path d="M1628 9623 c-24 -27 -46 -76 -57 -122 -17 -78 4 -49 65 87 24 52 20
67 -8 35z"/>
<path d="M1263 9393 c-28 -38 -62 -86 -74 -108 -13 -22 -45 -66 -71 -98 -69
-84 -99 -140 -169 -314 -14 -37 9 -27 33 12 11 20 23 34 25 31 5 -5 -14 -165
-23 -198 -3 -10 -1 -18 5 -18 5 0 17 26 25 58 51 185 170 455 260 592 53 79
66 110 48 110 -4 0 -31 -30 -59 -67z"/>
<path d="M1335 9118 c-2 -7 -11 -41 -21 -75 -14 -55 -92 -201 -180 -343 -39
-61 -44 -75 -34 -90 7 -11 13 -6 27 19 10 18 42 64 70 103 66 87 120 183 150
265 27 75 31 133 8 133 -9 0 -17 -6 -20 -12z"/>
<path d="M1127 8350 c-40 -47 -97 -150 -97 -174 0 -9 -9 -34 -19 -55 -34 -66
-112 -351 -118 -431 -6 -81 12 -177 27 -149 5 8 16 69 24 135 9 65 33 186 53
269 32 129 46 168 110 292 40 78 73 145 73 148 0 15 -22 0 -53 -35z"/>
<path d="M713 8078 c-74 -75 -133 -232 -188 -498 -21 -101 -27 -171 -35 -370
-5 -135 -14 -292 -19 -350 -6 -58 -10 -148 -11 -201 0 -66 -5 -109 -16 -135
-30 -72 -5 -260 39 -298 20 -17 36 -98 46 -231 10 -127 29 -208 31 -130 0 22
-5 142 -12 266 -10 203 -10 233 5 295 19 77 21 104 8 104 -5 0 -14 -7 -21 -15
-20 -24 -37 -18 -44 15 -3 17 1 99 9 183 8 84 19 274 25 422 12 287 18 353 49
492 48 213 101 351 162 421 27 31 39 72 21 72 -4 0 -27 -19 -49 -42z"/>
<path d="M796 7768 c-26 -63 -119 -354 -132 -413 -21 -97 -18 -254 7 -317 23
-58 22 -71 -10 -198 -40 -154 -63 -350 -42 -350 11 0 15 14 51 180 16 74 38
164 49 200 27 85 26 128 -4 225 -14 44 -25 103 -25 130 1 74 35 216 74 303 19
42 41 102 50 134 29 101 15 184 -18 106z"/>
<path d="M881 7136 c-6 -7 -14 -28 -17 -47 -3 -19 -13 -56 -21 -82 -8 -27 -13
-56 -10 -67 2 -10 -1 -55 -9 -101 -25 -155 -37 -320 -25 -332 8 -8 11 -8 11 0
0 22 80 486 90 522 20 73 9 140 -19 107z"/>
<path d="M710 6015 c0 -101 25 -198 95 -376 54 -139 55 -142 55 -247 0 -176
19 -433 35 -497 9 -33 33 -91 54 -130 21 -38 48 -88 60 -110 41 -78 119 -262
161 -380 42 -117 70 -170 70 -133 0 9 -4 28 -10 42 -5 14 -14 65 -20 113 -12
94 -66 238 -179 482 -74 157 -87 221 -101 481 -16 276 -27 338 -89 463 -49
102 -93 226 -105 302 -13 79 -26 73 -26 -10z"/>
<path d="M855 6010 c-4 -6 -2 -50 4 -98 6 -48 13 -120 17 -160 3 -39 11 -75
17 -79 11 -7 3 282 -9 325 -7 24 -19 29 -29 12z"/>
<path d="M604 5985 c-6 -13 1 -50 41 -225 8 -36 19 -130 25 -210 12 -171 36
-340 50 -354 14 -14 13 12 -15 327 -24 271 -40 371 -69 442 -16 38 -24 43 -32
20z"/>
<path d="M1030 4325 c0 -19 9 -57 20 -85 34 -85 98 -302 105 -355 6 -49 5 -48
-45 55 -74 150 -101 226 -102 284 0 28 -4 59 -9 68 -15 27 -57 23 -71 -7 -10
-22 -6 -38 25 -115 21 -49 37 -94 37 -100 0 -6 26 -73 59 -148 32 -75 66 -162
76 -192 23 -72 57 -139 90 -179 20 -23 35 -31 60 -31 48 0 124 -55 161 -117
22 -38 33 -70 37 -116 11 -118 80 -248 217 -412 41 -49 88 -107 103 -127 15
-21 32 -38 38 -38 20 0 7 31 -42 102 -195 283 -268 401 -280 452 -16 73 -7
106 29 106 85 -1 272 -146 272 -212 0 -9 5 -29 11 -45 11 -28 11 -28 20 -5 11
29 28 28 76 -7 65 -47 112 -110 170 -229 30 -62 57 -111 60 -109 8 9 -36 156
-63 210 -62 124 -138 196 -218 207 -38 5 -43 9 -67 61 -34 69 -59 91 -188 159
-125 65 -150 89 -176 166 -15 46 -25 59 -40 59 -15 0 -21 -8 -23 -32 -4 -37
-23 -43 -59 -18 -35 24 -62 99 -123 334 -77 295 -129 451 -151 451 -5 0 -9
-16 -9 -35z"/>
<path d="M1287 3724 c-10 -10 22 -64 38 -64 20 0 19 34 -1 54 -17 17 -27 20
-37 10z"/>
<path d="M1500 2975 c0 -24 29 -87 49 -110 10 -11 37 -50 59 -87 97 -162 244
-303 387 -373 159 -78 168 -51 14 44 -134 83 -246 195 -359 360 -122 177 -150
209 -150 166z"/>
<path d="M2300 2514 c0 -19 338 -364 455 -466 44 -38 92 -80 108 -94 23 -22
27 -23 27 -7 0 20 -558 583 -578 583 -6 0 -12 -7 -12 -16z"/>
<path d="M2104 2505 c-11 -26 4 -44 73 -88 37 -25 95 -73 128 -109 61 -65 232
-273 316 -383 87 -114 121 -137 283 -196 43 -16 86 -35 94 -41 36 -30 188
-207 220 -257 25 -40 37 -50 45 -42 29 29 -143 269 -251 350 -28 21 -86 53
-129 71 -114 46 -174 91 -245 183 -35 44 -99 126 -143 181 -44 56 -97 124
-117 151 -54 74 -105 119 -181 159 -77 40 -85 42 -93 21z"/>
<path d="M3060 1746 c0 -20 91 -97 228 -196 198 -141 281 -186 370 -200 55 -9
60 -13 174 -127 64 -64 120 -115 122 -112 10 10 -62 105 -125 165 -81 77 -134
110 -223 140 -79 27 -149 71 -343 215 -118 87 -181 129 -198 129 -3 0 -5 -6
-5 -14z"/>
<path d="M3456 1201 c-12 -19 42 -58 164 -121 65 -33 141 -78 169 -100 57 -46
71 -49 71 -18 0 72 -371 292 -404 239z"/>
<path d="M4261 1095 c-19 -8 -40 -23 -47 -33 -17 -21 -18 -82 -3 -133 33 -107
165 -183 229 -131 29 23 22 36 -40 67 -27 14 -51 29 -54 34 -7 11 13 28 39 32
11 2 26 19 34 37 17 39 25 40 47 7 26 -40 54 -28 54 24 0 21 -43 63 -87 85
-47 24 -131 29 -172 11z"/>
<path d="M3950 7853 c0 -14 244 -160 304 -182 21 -8 57 2 46 12 -9 9 -274 146
-312 162 -21 8 -38 12 -38 8z"/>
<path d="M6245 7959 c-140 -15 -305 -63 -448 -130 -71 -32 -131 -59 -133 -59
-10 0 -178 -118 -231 -162 -50 -42 -194 -207 -243 -278 -13 -19 -37 -50 -52
-68 -36 -42 -126 -229 -166 -343 -55 -156 -77 -293 -77 -484 0 -175 7 -233 52
-434 21 -93 39 -142 98 -260 40 -80 89 -166 109 -191 20 -25 36 -50 36 -57 0
-20 185 -218 262 -280 103 -83 149 -113 295 -192 179 -96 308 -134 557 -162
244 -27 550 31 822 156 152 70 413 279 530 426 204 256 308 548 333 937 17
258 -19 486 -104 659 -25 50 -45 96 -45 101 0 6 -16 34 -36 63 -20 30 -45 72
-56 94 -51 100 -212 264 -387 394 -148 110 -377 211 -581 256 -90 21 -400 28
-535 14z m491 -93 c173 -35 347 -108 519 -221 263 -171 513 -505 584 -779 37
-141 20 -140 -45 0 -24 52 -48 94 -54 94 -5 0 -10 -4 -10 -9 0 -16 71 -206 85
-227 12 -18 11 -23 -3 -38 -15 -14 -18 -52 -24 -268 -6 -244 -6 -252 14 -279
62 -83 -46 -438 -184 -610 -69 -85 -304 -300 -388 -354 -241 -156 -519 -236
-820 -236 -169 0 -280 17 -427 66 -233 78 -420 201 -619 407 -94 97 -172 203
-160 215 8 8 153 -137 198 -197 14 -19 29 -32 33 -28 8 7 -31 64 -127 186 -32
40 -58 79 -58 85 0 7 -25 43 -55 81 -56 69 -64 96 -49 154 9 31 19 28 46 -17
46 -76 137 -209 148 -216 6 -4 17 1 24 10 11 16 16 12 49 -32 84 -115 331
-330 421 -368 37 -16 41 -25 27 -60 -15 -37 36 -115 76 -115 19 0 25 8 35 45
12 43 33 59 44 32 3 -8 0 -35 -6 -62 -6 -26 -9 -49 -7 -52 3 -2 21 19 41 47
39 55 58 60 141 40 22 -5 108 -15 190 -21 87 -6 155 -16 162 -23 7 -6 17 -36
23 -65 6 -30 12 -57 15 -59 3 -3 16 5 29 17 17 16 30 20 49 15 l27 -6 -3 67
-2 67 120 42 c269 96 383 164 551 331 171 170 253 314 336 592 33 107 33 110
33 318 l0 210 -38 129 c-67 229 -159 388 -318 548 -133 134 -421 305 -553 329
-69 12 -136 37 -136 50 0 15 47 10 105 -10 62 -22 79 -13 45 24 -49 52 -222
82 -295 50 -32 -13 -69 -16 -181 -15 -152 1 -256 -11 -341 -41 -69 -24 -66 -5
6 31 106 55 243 73 420 58 20 -2 36 2 38 9 7 19 -40 43 -108 56 -57 10 -60 12
-34 18 17 4 89 7 160 8 100 0 158 -5 251 -23z m-630 -31 c-11 -8 -27 -15 -35
-15 -8 0 -45 -18 -82 -40 -37 -22 -71 -40 -74 -40 -4 0 -33 -15 -64 -34 -31
-18 -81 -41 -111 -49 -31 -9 -76 -30 -100 -46 -44 -29 -263 -247 -350 -348
-41 -48 -100 -81 -100 -56 0 27 77 121 189 233 132 132 262 227 403 298 92 45
273 110 313 111 28 0 29 0 11 -14z m-16 -166 c0 -11 -60 -39 -85 -39 -24 0
-18 18 13 34 32 18 72 21 72 5z m536 -73 c174 -37 343 -108 494 -209 95 -63
263 -234 313 -318 216 -360 234 -425 208 -734 -23 -255 -46 -332 -173 -558
-69 -124 -130 -191 -283 -315 -195 -157 -473 -252 -735 -252 -334 1 -615 120
-855 364 -161 164 -253 322 -312 543 -25 90 -27 113 -27 293 0 180 2 202 27
294 15 55 35 109 46 120 28 32 41 61 41 97 0 40 33 99 119 209 96 124 231 254
296 285 30 14 72 37 92 51 104 71 247 124 385 144 83 12 278 4 364 -14z m-711
5 c-8 -13 -95 -61 -111 -61 -28 0 -13 16 39 42 54 28 82 35 72 19z m-445 -340
c0 -12 -91 -113 -97 -107 -11 10 20 77 44 96 27 21 53 26 53 11z m-243 -153
c-4 -20 -46 -117 -118 -275 -27 -61 -43 -56 -37 12 7 81 115 285 151 285 5 0
7 -10 4 -22z m-228 -635 c1 -152 17 -302 43 -402 27 -104 32 -138 20 -145 -11
-6 -16 7 -56 134 -36 116 -50 240 -42 390 10 226 34 241 35 23z m2868 110 c19
-44 23 -277 5 -295 -13 -13 -19 16 -32 147 -12 131 -12 185 1 185 5 0 17 -17
26 -37z m-2702 -237 c6 -106 5 -128 -6 -124 -21 7 -27 43 -28 173 -1 138 9
199 20 125 4 -25 10 -103 14 -174z m-43 -213 c21 -24 31 -74 22 -117 -8 -45
-16 -45 -37 -2 -41 87 -30 170 15 119z"/>
<path d="M6210 7491 c-180 -39 -319 -113 -494 -260 -177 -150 -299 -355 -347
-586 -25 -120 -27 -357 -4 -470 16 -78 86 -255 128 -325 61 -101 182 -239 270
-308 95 -75 258 -163 373 -201 237 -79 609 -27 855 119 95 56 218 149 282 214
68 68 158 216 191 316 39 118 67 275 73 405 5 114 4 127 -31 260 -79 304 -230
524 -471 683 -114 75 -176 103 -314 139 -133 35 -384 42 -511 14z m447 -80
c95 -20 243 -71 277 -96 27 -20 14 -41 -43 -70 -64 -32 -73 -32 -110 6 -24 24
-38 30 -63 27 -47 -4 -45 -25 5 -83 l44 -49 57 19 c68 23 85 16 104 -41 31
-94 62 -80 62 28 0 121 35 122 148 5 66 -69 71 -81 46 -95 -15 -8 -15 -12 0
-41 10 -18 14 -41 11 -52 -8 -23 -61 -59 -89 -59 -17 0 -18 5 -11 48 14 92 12
136 -8 140 -21 4 -92 -63 -82 -78 3 -5 19 -10 36 -10 23 0 29 -4 29 -20 0 -24
-27 -80 -38 -80 -4 0 -26 18 -47 41 -38 38 -101 79 -124 79 -6 0 -48 18 -93
39 -104 49 -188 77 -295 97 -90 17 -106 16 -282 -18 -87 -17 -115 -20 -119
-10 -8 24 -42 11 -116 -45 -71 -53 -94 -79 -48 -54 12 6 28 11 36 11 25 0 8
-26 -37 -56 -90 -60 -147 -132 -147 -186 0 -13 -18 -59 -40 -103 -32 -63 -42
-95 -46 -150 -8 -102 -12 -114 -42 -127 -51 -23 -112 -69 -112 -86 0 -11 13
-22 32 -30 29 -11 33 -9 64 24 l33 34 10 -37 c5 -21 12 -54 16 -73 7 -37 115
-266 147 -313 22 -31 54 -51 62 -39 3 5 -8 37 -25 72 -16 34 -27 66 -23 69 7
7 61 -54 102 -115 22 -32 27 -50 24 -82 -4 -46 -10 -49 -90 -59 -53 -6 -57 -5
-78 23 -27 34 -49 23 -39 -19 10 -37 30 -51 94 -62 l56 -10 -1 -38 c-1 -36 8
-48 21 -26 18 28 55 29 126 2 55 -20 73 -23 82 -14 13 13 13 13 -77 61 -57 29
-76 58 -30 44 16 -4 83 -9 149 -10 66 0 149 -6 185 -12 71 -13 252 -16 313 -5
24 3 41 13 45 24 4 10 39 40 77 67 200 140 335 386 335 608 0 76 6 104 22 104
14 0 38 -65 39 -107 l1 -38 10 48 c11 52 23 59 40 22 22 -48 -23 -241 -93
-396 -40 -89 -52 -170 -27 -185 12 -8 104 86 126 128 33 67 92 218 92 238 0
17 -4 21 -20 17 -14 -4 -24 1 -31 15 -13 24 -16 103 -5 136 13 38 26 24 26
-28 0 -43 3 -50 20 -50 14 0 21 9 26 34 6 36 -10 101 -27 112 -20 12 -29 54
-17 73 26 42 -19 76 -56 42 -32 -30 -43 -27 -67 22 -12 23 -45 79 -75 124 -68
105 -69 112 -20 129 22 8 54 25 72 39 18 14 36 25 39 25 4 0 20 -13 36 -29 30
-31 30 -33 -16 -56 -47 -24 -38 -116 12 -123 23 -3 38 20 60 93 19 65 72 30
102 -70 21 -65 19 -75 -9 -75 -31 0 -33 -19 -8 -53 13 -18 35 -67 48 -109 21
-71 22 -82 11 -135 -7 -32 -17 -68 -22 -81 -5 -13 -9 -38 -9 -57 0 -68 -94
-315 -119 -315 -5 0 -42 -27 -83 -60 -81 -66 -168 -115 -270 -151 -38 -13 -68
-27 -68 -31 0 -5 0 -11 0 -15 0 -5 28 -10 62 -13 l63 -5 -79 -54 c-82 -55
-205 -114 -264 -125 -39 -7 -54 15 -28 43 21 23 20 46 -1 82 -9 15 -15 30 -12
33 2 2 33 18 69 35 l65 31 -85 -5 c-47 -3 -150 -5 -230 -6 -158 0 -164 -12
-11 -24 102 -8 102 -8 153 -87 18 -29 27 -55 24 -66 -3 -10 -26 -38 -51 -62
-44 -44 -47 -45 -120 -48 -41 -2 -82 -1 -91 2 -14 5 -14 8 0 28 21 29 22 131
2 147 -25 21 -46 -24 -46 -97 0 -48 -4 -64 -16 -69 -25 -9 -171 35 -273 83
-521 245 -727 869 -463 1399 61 123 131 213 225 292 48 40 106 82 129 94 22
11 58 34 80 50 133 96 452 138 685 90z m-83 -386 c32 -9 77 -29 100 -45 22
-17 70 -44 105 -61 75 -36 158 -116 191 -184 20 -42 21 -48 7 -62 -24 -25 -92
14 -144 82 -23 30 -59 65 -80 78 -21 14 -44 32 -52 41 -28 34 -41 19 -41 -49
l0 -65 -72 0 c-70 0 -78 -3 -208 -69 -122 -62 -140 -74 -188 -132 -66 -79 -98
-145 -111 -229 -15 -93 6 -170 47 -170 15 0 15 7 -4 108 -9 48 12 40 40 -16
26 -51 113 -140 162 -164 16 -9 48 -18 72 -21 53 -6 60 -12 45 -37 -10 -15 -8
-21 9 -32 22 -15 21 -15 -22 -40 -55 -32 -99 -42 -131 -30 -49 19 -185 160
-251 260 l-17 26 -11 -30 c-15 -39 -8 -85 25 -165 l27 -65 52 0 c42 1 61 -5
97 -29 36 -24 58 -31 117 -36 57 -4 77 -10 95 -27 17 -18 19 -26 11 -40 -17
-26 -141 -23 -217 6 -142 54 -283 180 -308 276 -7 26 -23 52 -47 72 -36 31
-36 31 -40 127 -5 112 16 255 53 355 60 160 209 292 395 351 112 35 203 40
294 16z m714 -47 c20 -20 14 -38 -12 -38 -43 0 -57 10 -45 31 11 22 39 25 57
7z m-470 -315 c13 -25 32 -43 47 -47 28 -7 51 -71 62 -168 8 -76 -1 -108 -30
-108 -43 0 -90 67 -142 205 -14 37 -38 86 -55 108 -16 23 -30 43 -30 46 0 4
28 6 62 5 63 -1 63 -1 86 -41z m-402 -54 c4 -7 21 -9 40 -6 42 7 94 -10 94
-29 0 -18 -115 -74 -149 -74 -14 0 -38 -12 -53 -27 -27 -26 -30 -27 -56 -12
-15 8 -32 30 -39 49 -10 31 -9 37 11 58 38 39 136 66 152 41z m148 -306 c-10
-41 -23 -53 -58 -53 -21 0 -40 8 -54 23 -34 36 -11 55 71 56 47 1 47 1 41 -26z
m254 -81 c2 -13 -5 -47 -16 -75 -12 -29 -20 -63 -19 -77 2 -19 -9 -32 -47 -58
-56 -37 -78 -38 -86 -2 -4 15 -15 26 -30 30 -38 9 -35 33 12 91 87 107 178
151 186 91z"/>
<path d="M6392 7358 c-20 -20 -14 -37 16 -44 15 -4 42 -20 60 -36 41 -35 52
-35 52 -2 0 34 -59 94 -92 94 -13 0 -29 -5 -36 -12z"/>
<path d="M6191 7283 c-45 -56 -36 -110 13 -83 14 7 31 10 39 7 18 -7 37 11 37
34 0 21 -38 69 -55 69 -7 0 -23 -12 -34 -27z"/>
<path d="M5735 6975 c-86 -94 -160 -252 -141 -302 11 -26 30 2 55 78 24 74 58
132 119 202 40 45 46 67 20 67 -6 0 -30 -20 -53 -45z"/>
<path d="M5563 6134 c-6 -17 12 -34 37 -34 25 0 43 17 37 34 -4 10 -18 16 -37
16 -19 0 -33 -6 -37 -16z"/>
<path d="M5574 5985 c-9 -21 1 -41 29 -60 21 -14 28 -14 67 0 86 30 96 61 17
51 -39 -5 -57 -3 -72 8 -25 20 -34 20 -41 1z"/>
<path d="M6750 5607 c-40 -14 -54 -47 -20 -47 32 0 90 30 90 46 0 17 -23 17
-70 1z"/>
<path d="M6047 5603 c-12 -12 -7 -22 29 -63 54 -60 110 -52 78 11 -22 43 -85
74 -107 52z"/>
<path d="M6484 6978 c-47 -10 -97 -50 -92 -75 3 -17 120 -93 143 -93 8 0 15
14 17 33 2 17 6 30 9 27 12 -10 39 24 39 50 0 49 -46 72 -116 58z"/>
<path d="M6183 6890 c-37 -15 -29 -47 14 -55 20 -3 49 -20 66 -36 36 -37 57
-31 57 14 0 60 -77 103 -137 77z"/>
<path d="M6020 6739 c-7 -11 -25 -25 -41 -31 -36 -13 -62 -59 -63 -114 -1 -43
24 -84 50 -84 21 0 86 92 80 112 -20 64 -21 61 12 53 45 -9 55 0 37 35 -13 26
-42 50 -59 50 -3 0 -10 -9 -16 -21z"/>
<path d="M5905 6320 c-19 -37 -19 -59 0 -66 25 -10 45 16 45 57 0 48 -22 53
-45 9z"/>
<path d="M12234 6691 c-11 -19 -26 -41 -34 -50 -12 -13 -15 -41 -13 -133 1
-65 6 -133 12 -151 12 -35 47 -75 57 -65 3 3 -2 46 -10 94 -20 112 -20 143 0
238 18 90 14 114 -12 67z"/>
<path d="M12253 6085 c3 -38 10 -83 17 -100 l12 -30 10 27 c11 33 -5 126 -28
154 -14 17 -15 13 -11 -51z"/>
<path d="M12223 5438 c-6 -7 -14 -47 -18 -88 -4 -41 -23 -145 -42 -230 -19
-86 -36 -188 -37 -230 -3 -90 -12 -110 -138 -299 -49 -74 -106 -168 -127 -210
-36 -72 -91 -217 -91 -240 0 -11 -27 -71 -126 -276 -29 -60 -84 -157 -122
-215 -67 -101 -137 -228 -130 -235 4 -4 101 127 177 237 33 49 63 81 82 89 40
16 57 43 70 115 15 84 55 172 138 303 71 113 90 171 56 171 -40 0 -2 80 129
274 74 108 124 209 168 339 30 88 40 185 29 287 -1 14 1 61 4 106 8 85 -2 128
-22 102z"/>
<path d="M11015 2963 c-145 -179 -148 -183 -121 -183 19 0 122 113 146 160 35
69 22 81 -25 23z"/>
<path d="M11044 2861 c-21 -16 -100 -89 -174 -162 -131 -129 -171 -184 -184
-250 -8 -38 -88 -123 -138 -147 -39 -19 -249 -212 -231 -212 4 0 34 16 66 35
32 19 60 35 63 35 3 0 27 21 53 48 27 26 77 69 111 97 117 95 195 184 220 252
18 50 41 83 112 160 92 100 153 173 145 173 -2 0 -22 -13 -43 -29z"/>
<path d="M10065 1920 c-38 -39 -73 -64 -96 -70 -40 -11 -67 -37 -113 -107 -37
-58 -80 -81 -167 -89 -115 -12 -189 -64 -214 -152 -34 -121 -120 -206 -291
-288 -50 -24 -97 -51 -105 -60 -13 -16 -11 -17 26 -11 60 9 247 108 355 187
52 38 128 93 169 122 310 221 360 268 462 433 73 117 65 127 -26 35z m-319
-331 c3 -6 -6 -24 -22 -39 -30 -30 -165 -110 -185 -110 -16 0 -5 65 16 97 31
47 170 85 191 52z"/>
<path d="M8718 1124 c-36 -20 -106 -69 -155 -111 -101 -85 -144 -110 -205
-118 -71 -10 -130 -27 -180 -52 -26 -12 -55 -23 -65 -23 -10 0 -56 -13 -103
-29 -47 -16 -119 -37 -160 -46 -93 -21 -113 -31 -86 -41 24 -9 115 7 188 35
32 11 78 21 103 21 30 0 65 10 103 29 31 16 109 45 172 64 102 32 125 44 200
102 133 102 196 144 263 175 60 28 61 29 27 29 -22 0 -60 -13 -102 -35z"/>
<path d="M8616 829 c-130 -45 -181 -69 -146 -69 8 0 64 14 125 31 107 30 175
61 175 80 0 12 6 13 -154 -42z"/>
<path d="M5380 841 c-99 -30 -124 -66 -118 -164 10 -146 64 -206 176 -192 113
14 241 111 200 151 -13 14 -18 11 -36 -20 -35 -60 -135 -72 -169 -20 -21 33
-11 50 36 58 26 4 44 13 51 27 9 16 19 19 58 17 45 -3 47 -2 50 24 3 22 -3 31
-30 47 -18 11 -37 24 -41 29 -45 51 -47 52 -99 51 -29 0 -64 -4 -78 -8z"/>
<path d="M7751 819 c-41 -11 -86 -27 -100 -35 l-26 -15 30 4 c48 7 199 48 210
58 15 15 -34 9 -114 -12z"/>
<path d="M6590 642 c0 -36 25 -45 108 -39 42 3 91 11 107 18 28 12 24 14 -70
20 -55 4 -110 10 -122 14 -19 6 -23 4 -23 -13z"/>
<path d="M5983 575 c-40 -17 -42 -33 -5 -40 15 -3 65 -15 112 -27 106 -27 215
-34 303 -18 114 20 73 40 -83 40 -75 0 -100 5 -163 30 -83 33 -116 36 -164 15z"/>
<path d="M7698 570 c-59 -7 -92 -25 -82 -42 12 -19 174 13 195 39 13 15 -14
16 -113 3z"/>
<path d="M7180 495 c-19 -7 -62 -14 -95 -14 -74 -2 -93 -11 -70 -35 21 -21 39
-20 107 3 73 25 139 60 113 60 -11 0 -36 -7 -55 -14z"/>
<path d="M6471 409 c-48 -9 -58 -15 -47 -26 10 -11 219 -9 236 2 10 6 9 11 -5
22 -21 15 -114 16 -184 2z"/>
<path d="M3897 6473 c-17 -16 -4 -30 36 -39 23 -5 41 -13 40 -19 -1 -5 -30
-18 -65 -27 -76 -21 -150 -16 -258 17 -112 35 -133 37 -197 25 -120 -24 -142
-25 -318 -14 -172 11 -219 8 -178 -14 41 -22 181 -34 329 -27 297 13 334 12
389 -15 44 -22 63 -25 165 -25 106 0 119 2 173 28 51 26 64 28 117 22 49 -6
60 -4 60 7 0 25 -35 49 -100 69 -60 18 -180 26 -193 12z"/>
<path d="M1560 6360 c-74 -4 -170 -8 -213 -9 -86 -1 -97 -13 -39 -42 23 -12
76 -18 195 -23 152 -7 165 -6 198 12 29 18 55 21 179 23 80 1 227 -2 328 -6
121 -5 182 -5 182 2 0 6 -39 13 -87 17 -49 3 -128 11 -178 16 -135 14 -413 19
-565 10z"/>
<path d="M4560 5309 c-52 -41 -61 -61 -18 -39 37 20 88 60 88 71 0 17 -18 9
-70 -32z"/>
<path d="M4410 5261 c-25 -21 -56 -44 -70 -51 -32 -17 -90 -63 -90 -72 0 -3
19 0 43 7 23 7 56 10 73 8 25 -4 38 3 79 39 44 41 47 46 38 73 -5 16 -13 30
-19 32 -5 1 -29 -14 -54 -36z"/>
<path d="M2847 4300 c-26 -16 -65 -39 -87 -50 -22 -11 -40 -25 -40 -30 0 -18
18 -11 84 35 37 25 70 45 75 45 5 0 14 7 21 15 20 24 -2 18 -53 -15z"/>
</g>
</svg>
