<svg width="120" height="25" viewBox="0 0 120 25" fill="none" xmlns="http://www.w3.org/2000/svg">
<path fill-rule="evenodd" clip-rule="evenodd" d="M0 19.3671V12.2083H7.27895V19.3671H0ZM7.27895 12.2083V5.04937H14.5579V12.2083H7.27895ZM119.681 4.71275C119.726 4.71275 119.84 4.71275 120 4.73519V8.57271C119.772 8.55027 119.544 8.52783 119.361 8.52783C119.179 8.52783 119.019 8.50539 118.905 8.50539C117.376 8.50539 116.349 8.9991 115.824 9.98654C115.528 10.5476 115.391 11.4004 115.391 12.5449V19.3896H111.671H111.58V5.04937H111.671H115.208V7.54039C115.801 6.5754 116.303 5.9246 116.737 5.58797C117.444 5.00449 118.38 4.71275 119.521 4.71275C119.566 4.71275 119.635 4.71275 119.681 4.71275ZM100.742 10.772H106.651C106.583 9.78456 106.286 9.02154 105.739 8.52783C105.191 8.01167 104.507 7.76481 103.708 7.76481C102.818 7.76481 102.133 8.03411 101.654 8.57271C101.175 9.11131 100.856 9.82944 100.742 10.772ZM110.485 10.4129C110.485 10.4803 110.508 10.5476 110.508 10.6373C110.576 11.2882 110.622 12.1409 110.599 13.263H110.508H100.65C100.719 14.6993 101.152 15.7092 102.019 16.2926C102.544 16.6517 103.183 16.8312 103.913 16.8312C104.712 16.8312 105.328 16.6068 105.83 16.1804C106.104 15.9336 106.332 15.6194 106.537 15.193H110.416C110.325 16.0458 109.869 16.8986 109.07 17.7738C107.815 19.1652 106.081 19.8609 103.845 19.8609C101.997 19.8609 100.354 19.2774 98.939 18.088C97.8437 17.1679 97.1591 15.7765 96.9081 13.9587C96.8397 13.465 96.8169 12.9264 96.8169 12.3653C96.8169 11.8043 96.8397 11.2882 96.9081 10.772C97.1363 9.04399 97.7296 7.67505 98.7336 6.66517C100.011 5.34111 101.677 4.66786 103.708 4.66786C104.917 4.66786 106.013 4.89228 106.971 5.34111C107.952 5.78995 108.728 6.48564 109.367 7.45063C109.937 8.30341 110.325 9.2684 110.485 10.4129ZM92.0707 19.3671V0H95.8585V3.63555V19.3671H95.7673H92.0707ZM86.5031 3.63555V0H90.3137V19.3671H86.6172H86.526V3.63555H86.5031ZM75.6874 10.772H81.5973C81.5288 9.78456 81.2322 9.02154 80.6845 8.52783C80.1369 8.01167 79.4524 7.76481 78.6537 7.76481C77.7638 7.76481 77.1021 8.03411 76.6001 8.57271C76.1209 9.11131 75.8015 9.82944 75.6874 10.772ZM85.4307 10.4129C85.4307 10.4803 85.4535 10.57 85.4535 10.6373C85.5219 11.2882 85.5676 12.1409 85.5448 13.263H85.4535H75.5961C75.6418 14.6993 76.0981 15.7092 76.9652 16.2926C77.49 16.6517 78.1289 16.8312 78.8591 16.8312C79.6349 16.8312 80.2738 16.6068 80.7758 16.1804C81.0268 15.9336 81.2778 15.6194 81.4832 15.193H85.3622C85.271 16.0458 84.8146 16.8986 84.016 17.7738C82.7838 19.1652 81.0268 19.8609 78.7906 19.8609C76.9424 19.8609 75.3223 19.2774 73.9076 18.088C73.0177 17.3474 72.4016 16.3151 72.0821 14.991C71.8996 14.2056 71.8083 13.3303 71.8083 12.3653C71.8083 11.4004 71.8996 10.5476 72.0821 9.76212C72.3788 8.50539 72.9264 7.47307 73.7022 6.66517C74.98 5.34111 76.6457 4.66786 78.6765 4.66786C79.8859 4.66786 80.9812 4.89228 81.9395 5.34111C82.9207 5.78995 83.7193 6.48564 84.3354 7.45063C84.883 8.30341 85.2481 9.2684 85.4307 10.4129ZM66.2407 15.4174C66.8112 14.6095 67.085 13.5548 67.085 12.2083C67.085 11.1086 66.834 10.1212 66.3092 9.29084C65.8072 8.43806 64.9629 8.01167 63.822 8.01167C62.4529 8.01167 61.4946 8.66248 60.9926 9.94165C60.7188 10.6149 60.5819 11.4901 60.5819 12.5449C60.5819 14.2056 61.0382 15.3725 61.9281 16.0458C62.4757 16.4497 63.0918 16.6293 63.822 16.6293C64.8716 16.6293 65.6931 16.2253 66.2407 15.4174ZM69.2299 6.5754C69.9372 7.31598 70.4164 8.25853 70.7131 9.40305C70.9184 10.1885 71.0097 11.0413 71.0097 12.0063C71.0097 13.0386 70.9184 13.9587 70.7131 14.789C70.4392 16.0009 69.9601 16.9883 69.2755 17.7738C68.1118 19.0978 66.6286 19.7711 64.826 19.7711C63.6623 19.7711 62.7039 19.4794 61.9509 18.9183C61.5402 18.6041 61.1295 18.1329 60.7188 17.5494V25H56.9538V20.8932V5.04937H57.2732H60.5819V7.15889C60.9926 6.53052 61.4261 6.0368 61.8825 5.70018C62.7268 5.04937 63.7307 4.73519 64.8945 4.73519C66.6058 4.73519 68.0433 5.34111 69.2299 6.5754ZM51.3406 15.5521C51.9338 14.7666 52.2305 13.667 52.2305 12.2307C52.2305 10.7944 51.9338 9.67235 51.3406 8.90934C50.7473 8.14632 49.8802 7.76481 48.7849 7.76481C47.6897 7.76481 46.8226 8.14632 46.2293 8.90934C45.6361 9.69479 45.3166 10.7944 45.3166 12.2307C45.3166 13.667 45.6132 14.7666 46.2293 15.5521C46.8226 16.3375 47.6897 16.719 48.7849 16.719C49.903 16.719 50.7473 16.3375 51.3406 15.5521ZM54.3754 6.8447C55.1055 7.71993 55.6075 8.70736 55.8813 9.78456C56.1095 10.5476 56.2008 11.3555 56.2008 12.2307C56.2008 13.1059 56.0867 13.9363 55.8813 14.6993C55.5847 15.7765 55.0827 16.7639 54.3754 17.6167C53.1432 19.1203 51.2721 19.8609 48.7849 19.8609C46.2978 19.8609 44.4267 19.1203 43.1945 17.6167C42.9435 17.325 42.7153 17.0108 42.5328 16.6741C41.7342 15.3725 41.3463 13.8914 41.3463 12.2307C41.3463 10.57 41.7342 9.08887 42.5328 7.78725C42.7153 7.45063 42.9435 7.15889 43.1945 6.8447C44.4267 5.34111 46.2978 4.5781 48.7849 4.5781C51.2721 4.5781 53.166 5.34111 54.3754 6.8447ZM41.506 4.73519V8.57271C41.2778 8.55027 41.0496 8.52783 40.8671 8.52783C40.6845 8.52783 40.5248 8.50539 40.4107 8.50539C40.3879 8.50539 40.3423 8.50539 40.3195 8.50539C38.8363 8.52783 37.8551 8.9991 37.3303 9.96409C37.0337 10.5251 36.8967 11.3555 36.8967 12.5224V19.3671H33.2915H33.0633V5.04937H33.2915H36.6914V7.54039C37.2847 6.5754 37.7866 5.9246 38.2202 5.58797C38.7906 5.1167 39.4752 4.8474 40.3195 4.75763C40.5476 4.73519 40.753 4.71275 41.004 4.71275C41.0724 4.71275 41.1409 4.71275 41.1865 4.71275C41.2094 4.71275 41.3234 4.71275 41.506 4.73519ZM30.4621 6.5754C31.2151 7.36086 31.7399 8.39318 31.9909 9.64991C32.1506 10.368 32.2191 11.1535 32.2191 12.0063C32.2191 12.9264 32.1506 13.7792 31.9909 14.5422C31.7171 15.8662 31.2379 16.9434 30.5077 17.7738C29.344 19.0978 27.8608 19.7711 26.0582 19.7711C24.8945 19.7711 23.9361 19.4794 23.1831 18.9183C22.7724 18.6041 22.3617 18.1329 21.9509 17.5494V25H18.186V5.04937H21.8368V7.15889C22.2476 6.53052 22.6811 6.0368 23.1375 5.70018C23.9817 5.04937 24.9857 4.73519 26.1495 4.73519C27.8608 4.73519 29.2755 5.34111 30.4621 6.5754ZM27.4729 15.4174C28.0434 14.6095 28.3172 13.5548 28.3172 12.2083C28.3172 11.1086 28.0662 10.1212 27.5414 9.29084C27.0394 8.43806 26.1951 8.01167 25.0542 8.01167C23.6851 8.01167 22.7268 8.66248 22.2248 9.94165C21.9509 10.6149 21.814 11.4901 21.814 12.5449C21.814 14.2056 22.2704 15.3725 23.1603 16.0458C23.7079 16.4497 24.324 16.6293 25.0542 16.6293C26.1266 16.6293 26.9253 16.2253 27.4729 15.4174Z" fill="black"/>
</svg>
