<?xml version="1.0" standalone="no"?>
<!DOCTYPE svg PUBLIC "-//W3C//DTD SVG 20010904//EN"
 "http://www.w3.org/TR/2001/REC-SVG-20010904/DTD/svg10.dtd">
<svg version="1.0" xmlns="http://www.w3.org/2000/svg"
 width="577.000000pt" height="577.000000pt" viewBox="0 0 577.000000 577.000000"
 preserveAspectRatio="xMidYMid meet">
<metadata>
Created by potrace 1.11, written by Peter Selinger 2001-2013
</metadata>
<g transform="translate(0.000000,577.000000) scale(0.100000,-0.100000)"
fill="#000000" stroke="none">
<path d="M2380 5441 c-143 -44 -448 -315 -674 -601 -114 -146 -269 -437 -302
-570 -2 -8 -10 -40 -18 -70 -8 -30 -18 -70 -21 -87 -5 -31 -3 -33 22 -34 32
-1 58 -3 168 -14 44 -4 100 -9 125 -10 58 -4 181 -15 245 -21 48 -5 117 -10
179 -13 16 0 27 -4 23 -7 -3 -3 -88 -5 -189 -4 -101 1 -190 1 -198 1 -8 0 -80
0 -160 0 -80 0 -152 0 -160 0 -8 0 -80 0 -160 0 -80 0 -152 0 -160 0 -24 -1
-172 0 -179 1 -3 0 -10 0 -16 -1 -5 -1 -57 -2 -115 -1 -58 0 -125 0 -150 -1
-25 0 -52 0 -60 0 -61 4 -159 -3 -207 -14 -50 -11 -60 -14 -107 -30 -107 -37
-191 -110 -234 -203 -36 -79 -39 -193 -8 -317 27 -105 77 -222 97 -222 8 0 77
-19 154 -42 77 -23 147 -44 155 -46 8 -2 47 -13 85 -25 39 -12 75 -22 80 -24
6 -1 30 -9 55 -16 25 -7 50 -15 55 -16 6 -1 46 -13 90 -26 44 -13 83 -25 87
-26 4 -2 13 -5 20 -7 7 -2 45 -13 83 -24 39 -11 180 -52 315 -91 l245 -72 1
-607 c0 -656 -2 -623 56 -746 23 -49 36 -71 87 -150 91 -139 308 -365 470
-490 14 -10 28 -22 31 -25 27 -31 412 -298 464 -321 14 -7 26 -15 26 -19 0 -4
8 -10 18 -13 9 -4 40 -20 67 -37 28 -16 66 -39 86 -50 l37 -19 57 34 c32 19
59 35 61 35 2 0 35 20 74 45 39 25 75 45 80 45 6 0 10 3 10 8 0 4 20 18 45 32
25 14 45 28 45 32 0 5 4 8 10 8 5 0 55 33 111 72 55 40 108 78 117 83 8 6 23
17 32 25 9 8 29 24 44 34 14 11 37 29 50 40 12 12 49 44 81 71 128 109 263
253 348 369 50 68 164 276 152 276 -3 0 1 12 7 28 8 19 11 206 12 631 1 593 2
604 21 612 24 9 124 40 145 44 8 2 53 16 100 30 47 15 94 28 105 30 12 3 45
13 75 23 30 11 57 20 60 20 3 0 12 3 20 5 8 3 119 35 245 72 127 37 282 82
345 101 63 19 126 37 140 40 14 2 41 10 60 16 19 7 37 13 40 13 56 12 92 32
105 58 8 17 15 35 15 41 0 6 6 23 14 38 8 15 18 42 22 60 4 18 9 36 10 41 1 4
2 8 4 10 5 7 11 51 15 125 6 86 -6 145 -40 213 -40 78 -171 170 -280 194 -16
4 -39 9 -50 12 -25 6 -214 15 -275 13 -25 -1 -49 -2 -55 -1 -32 1 -152 2 -160
1 -5 -1 -68 -1 -140 0 -71 1 -134 1 -140 1 -35 -1 -297 -2 -322 -2 -10 1 -47
1 -83 0 -36 0 -183 -1 -328 -2 -144 -1 -262 1 -262 6 0 4 19 7 43 8 45 1 68 3
192 13 44 4 109 8 145 11 36 2 90 7 121 10 31 3 78 7 105 9 27 2 90 7 139 11
50 4 92 9 94 11 9 9 -72 287 -89 304 -3 3 -7 14 -8 25 -2 11 -7 22 -12 25 -4
3 -17 25 -28 50 -29 62 -102 185 -133 224 -5 6 -45 57 -89 114 -70 89 -205
232 -311 328 -28 26 -166 134 -257 202 -12 9 -28 22 -35 27 -85 68 -229 81
-332 29 -92 -47 -211 -177 -281 -307 -9 -15 -13 -12 -34 25 -67 122 -177 239
-268 283 -58 28 -161 41 -212 26z m905 -2054 c17 -3 48 -9 70 -12 110 -15 150
-22 150 -25 0 -1 14 -4 30 -6 67 -10 330 -78 370 -95 11 -5 29 -11 40 -12 11
-2 32 -9 47 -15 l26 -11 0 -311 1 -312 -27 7 c-15 4 -34 9 -42 10 -8 2 -15 4
-15 5 0 1 -7 3 -15 5 -8 1 -42 10 -75 19 -33 9 -67 18 -75 20 -8 2 -69 18
-135 36 -66 17 -127 33 -135 35 -8 2 -16 4 -17 4 -2 1 -4 1 -5 1 -2 0 -25 6
-53 14 -49 15 -79 23 -237 65 -43 12 -113 30 -155 42 -152 41 -139 40 -263 8
-366 -96 -446 -118 -475 -129 -14 -5 -25 -7 -25 -5 0 2 -11 0 -25 -5 -14 -5
-36 -12 -48 -14 -40 -9 -112 -28 -127 -33 -8 -3 -24 -8 -35 -10 -27 -6 -33 -8
-85 -22 -25 -7 -52 -15 -60 -17 -8 -2 -40 -10 -70 -18 -30 -9 -58 -16 -63 -16
-4 0 -6 140 -5 311 l3 312 40 14 c85 30 318 94 387 107 15 2 63 11 105 20 90
17 123 22 213 32 36 3 66 8 68 9 6 5 687 -3 717 -8z m-596 -953 c40 -20 109
-65 152 -100 73 -59 79 -62 91 -45 20 29 167 131 225 157 29 13 68 27 85 30
50 10 132 7 136 -5 2 -6 9 -11 16 -11 14 0 48 -36 67 -72 30 -54 45 -155 38
-250 -4 -51 -10 -106 -14 -123 -3 -16 -7 -37 -9 -45 -3 -15 28 -39 52 -40 7 0
38 -11 68 -25 30 -14 59 -25 64 -25 6 0 10 -3 10 -7 0 -5 18 -17 41 -27 46
-23 124 -97 146 -140 72 -138 -81 -303 -360 -390 -15 -5 -17 -13 -12 -48 8
-56 13 -83 15 -83 1 0 3 -34 4 -75 3 -141 -24 -238 -81 -291 -48 -45 -102 -54
-198 -35 -20 4 -136 57 -145 66 -3 3 -30 24 -60 46 -30 23 -65 52 -78 64 l-23
21 -32 -28 c-18 -15 -46 -37 -61 -48 -16 -11 -33 -25 -40 -30 -53 -49 -185
-98 -261 -98 -107 0 -169 61 -193 190 -9 52 -8 173 2 228 20 105 21 104 -10
115 -52 19 -59 21 -62 20 -8 -3 -163 87 -200 117 -120 98 -141 202 -59 306 44
57 167 135 262 168 22 7 42 14 45 15 3 1 14 5 26 9 20 6 20 9 7 72 -39 190 -9
376 70 430 73 50 156 46 276 -13z"/>
<path d="M2179 3225 c-3 -2 -29 -6 -59 -9 -64 -7 -83 -10 -130 -21 l-35 -8 30
-8 c100 -25 340 -91 344 -95 2 -2 -49 -4 -114 -4 -115 0 -118 0 -101 -19 9
-10 44 -35 77 -56 174 -107 375 -91 527 42 l33 29 -20 19 c-50 44 -172 97
-282 121 -31 7 -265 15 -270 9z"/>
<path d="M3305 3209 c-92 -14 -255 -88 -279 -127 -7 -12 65 -72 124 -102 112
-58 253 -61 370 -7 41 18 150 91 150 99 0 4 -55 8 -122 9 l-123 1 90 24 c50
14 97 26 106 29 88 20 179 49 174 53 -8 8 -31 12 -93 16 -30 2 -55 6 -57 8 -3
2 -30 1 -60 -2 -31 -3 -58 -3 -60 0 -2 3 -31 3 -63 0 -33 -3 -71 -3 -84 0 -12
3 -45 3 -73 -1z"/>
<path d="M2480 2393 c-63 -27 -91 -174 -63 -328 18 -98 15 -94 65 -85 59 11
114 19 167 25 25 2 48 11 53 19 9 16 92 119 125 156 13 14 23 30 23 36 0 16
-147 123 -210 152 -54 25 -131 37 -160 25z"/>
<path d="M3204 2377 c-28 -12 -64 -31 -80 -41 -56 -36 -144 -111 -144 -122 0
-7 12 -25 28 -42 40 -43 85 -101 99 -127 17 -31 35 -38 138 -50 28 -3 70 -9
95 -14 44 -9 58 -3 61 24 0 6 2 19 4 30 5 21 17 153 17 170 -3 81 -35 169 -68
184 -38 17 -94 13 -150 -12z"/>
<path d="M2904 2142 c-5 -4 -31 -33 -57 -64 l-49 -58 111 0 c61 0 111 3 111 8
0 4 -18 27 -40 52 -22 25 -40 48 -40 51 0 11 -26 18 -36 11z"/>
<path d="M2686 1851 c-29 -47 -69 -116 -89 -154 l-36 -67 36 -68 c19 -37 40
-77 47 -89 6 -13 14 -23 19 -23 4 0 7 -5 7 -12 0 -6 16 -35 37 -65 l36 -53
166 0 c91 0 171 4 177 8 15 9 124 188 124 202 0 5 4 10 9 10 5 0 12 13 16 29
3 16 13 35 20 41 12 10 6 26 -31 98 -25 48 -51 94 -58 102 -7 8 -15 22 -18 30
-3 8 -19 33 -36 56 l-30 41 -171 0 -172 0 -53 -86z m295 -65 c109 -46 138
-188 55 -271 -40 -41 -71 -53 -127 -52 -63 2 -95 19 -136 73 -48 63 -35 169
27 222 48 41 122 53 181 28z"/>
<path d="M2523 1905 c-28 -5 -54 -13 -57 -16 -6 -6 26 -104 37 -116 4 -3 7
-15 7 -26 0 -16 3 -17 15 -7 8 7 15 16 15 21 0 11 73 133 82 137 5 2 8 8 8 13
0 11 -32 9 -107 -6z"/>
<path d="M3228 1868 c17 -29 42 -73 56 -98 l25 -44 11 29 c43 111 49 129 46
133 -6 5 -69 19 -125 27 l-43 6 30 -53z"/>
<path d="M2315 1851 c-53 -19 -147 -61 -155 -70 -3 -4 -24 -19 -47 -35 -25
-17 -51 -46 -63 -71 -19 -40 -20 -46 -6 -78 26 -64 102 -123 226 -176 110 -47
106 -48 131 27 12 37 33 91 46 121 21 47 22 58 12 90 -6 20 -15 41 -19 46 -3
6 -19 45 -34 88 -16 42 -31 77 -35 76 -3 0 -28 -8 -56 -18z"/>
<path d="M3442 1843 c-6 -16 -27 -70 -48 -121 l-36 -93 17 -42 c10 -23 21 -52
26 -64 9 -23 15 -38 41 -100 7 -18 16 -33 19 -33 16 0 99 33 154 62 178 91
221 190 119 275 -53 45 -109 78 -184 108 -95 39 -96 39 -108 8z"/>
<path d="M3297 1513 c-3 -10 -20 -40 -37 -68 -63 -103 -63 -105 -39 -105 39 0
149 23 149 32 0 13 -50 142 -59 151 -5 5 -11 0 -14 -10z"/>
<path d="M2493 1463 c-37 -99 -37 -100 -6 -108 15 -3 50 -9 77 -11 27 -3 53
-7 58 -10 15 -9 8 5 -35 78 -24 40 -46 81 -50 91 -11 29 -21 20 -44 -40z"/>
<path d="M2419 1208 c-15 -93 -15 -215 1 -265 19 -58 58 -90 105 -87 83 7 174
50 269 127 l66 55 -37 45 c-40 47 -49 57 -101 124 -18 23 -40 42 -50 41 -28 0
-113 10 -171 22 -29 5 -57 10 -61 10 -5 0 -14 -33 -21 -72z"/>
<path d="M3335 1274 c-5 -2 -55 -10 -110 -18 -55 -9 -101 -19 -103 -24 -5 -15
-79 -112 -116 -152 l-34 -37 45 -39 c26 -22 52 -45 59 -51 7 -7 17 -13 23 -13
6 0 11 -3 11 -7 0 -12 131 -71 170 -77 66 -10 110 29 135 120 8 30 8 174 0
214 -4 19 -8 44 -10 55 -1 11 -3 23 -4 28 -1 7 -48 9 -66 1z"/>
<path d="M2810 1232 c0 -5 58 -79 86 -109 l22 -23 28 35 c37 46 45 56 67 82
l18 21 -110 -1 c-61 -1 -111 -3 -111 -5z"/>
</g>
</svg>
