<svg id="Layer_1" xmlns="http://www.w3.org/2000/svg" viewBox="0 0 1134.2 149.7">
  <title>Neverbland</title>
  <style>
    .st0{fill:#1d1d1b}
  </style>
  <path class="st0" d="M118.7 148.3h76.1v-28.1h-45.7V86.6h40.5V59.7h-40.5V29.5h45.7V1.4h-76.1zM260.7 87.4L237.5 1.2h-32.9l47.7 147.1h16.2L316.4 1.2H284zM326.2 148.3h76.2v-28.1h-45.7V86.6h40.5V59.7h-40.5V29.5h45.7V1.4h-76.2zM506.3 71.7c3.5-6.7 5.3-14.6 5.3-23.8 0-6.4-1.1-12.5-3.3-18.3-2.2-5.8-5.6-10.9-10.1-15.2-4.5-4.4-10.3-7.9-17.4-10.4-3.5-1.2-14.9-2.6-19.8-2.8H421.9v147.1h30.4V97.6c1.3.1 2.6.2 3.8.3 1.2.1 2.5.1 4 .1h2.2c.8 0 1.5-.1 2.2-.2l18.4 50.5h33.3l-25.6-59.5c6.9-4.7 12.2-10.4 15.7-17.1zm-31.4-4.4c-3.8 3.9-9.2 5.8-16.1 5.8h-3.2c-.8 0-1.9-.1-3.2-.4V28.5c1.5-.3 2.7-.4 3.8-.5 1.1-.1 2.3-.1 3.8-.1 6.8 0 12 1.9 15.4 5.8 3.5 3.9 5.2 9.2 5.2 16 0 7.9-1.9 13.7-5.7 17.6zM69.1 74.9L9.8 0H0v148.3h29.9V72.9l59.9 76.8h9.4V1.4H69.1zM1113.4 59.1c-.8-5.6-1.9-10.9-3.5-15.8-3-9.2-7.6-17-13.7-23.4-6.1-6.4-13.7-11.3-22.8-14.8-5.2-2-15-3.9-21.5-4.1h-42.4v58.1H990V1.2h-30.4v57.9h-13L900.7 1h-10.9v58.1h-43.5L827.1 0h-16.4l-19.3 59.1h-87.2V1.2h-30.8v57.9h-26.9c3.5-5.4 5.3-12 5.3-19.6 0-5.1-1.1-10.1-3.2-14.8-2.2-4.7-5.5-8.9-9.9-12.6-4.5-3.6-10.1-6.6-17-8.8C619 2.5 609.2 1 602.9 1h-38.5v58.1h-18.5v27.1h18.5v63.4h45.8c3.6 0 10.6-1.2 13.4-2 7.1-2.2 13-5.1 17.6-8.9 4.7-3.8 8.1-8.3 10.4-13.6 2.3-5.3 3.4-11 3.4-17.2 0-8.5-2-15.7-6.1-21.7h24.5v63.4h74.3v-28.1h-43.5V86.3h78.3l-20.3 62.4H795l17-62.4h13.3l16.8 62.4h33.2l-20.2-62.4h34.7v63.4H920V86.3h10l49.5 63.4H990V86.3h19.5v63.4h44.3c5.1 0 15.3-2.3 20.1-4.2 9-3.6 16.6-8.7 22.6-15.4 6-6.7 10.5-14.8 13.5-24.2 1.9-6.1 3.1-12.7 3.8-19.6h20.3V59.1h-20.7zM594.2 26.8l8.5.3c5.8 0 10.3 1.6 13.5 4.7 3.2 3.1 4.8 7.5 4.8 13.2 0 6.5-1.7 11.2-5 14.2h-21.8V26.8zm23.4 92.8c-3.6 3.2-8.5 4.8-14.7 4.8h-8.7V86.3h17.1c2.4.9 4.6 2.2 6.3 3.9 3.6 3.6 5.4 8.3 5.4 14.3 0 6.9-1.8 11.9-5.4 15.1zM1040.3 28h7.7c10.9 0 19.4 4.1 25.3 12.4 3.7 5.1 6.2 11.4 7.6 18.8h-40.6V28zm39.8 66.6c-1.4 5.9-3.5 11-6.3 15.3-2.8 4.3-6.2 7.5-10.3 9.8-4.1 2.3-9 3.4-14.5 3.4h-8.7V86.3h41.2c-.3 2.9-.7 5.7-1.4 8.3z"/>
</svg>
