<svg id="Layer_1" xmlns="http://www.w3.org/2000/svg" viewBox="0 0 566.9 566.9"><style>.st0{fill:#4395d2}</style><path class="st0" d="M358.9 432.5c1.7 1.9 2.6 4.3 2.6 6.6 0 1.9.5 47.9-40.6 67.8-11.6 5.4-25.7 6.8-38.7 7.1l-33.1 40.9c19.1.2 44.6 0 53.8-1.2 17-2.1 34-8 49.1-17 10.6-6.1 20.3-14.2 29-23.1 10.6-11.3 18.9-23.1 22.9-33.3 1.9-5 3.8-10.6 5.2-16.8 3.8-16.1 5.4-42.3 5.7-63.5h-84.1l28.2 32.5zm-5.1-88.8L335.3 377l126.4-.2c41.1 0 62.1-14.4 78.4-32.8l-186.3-.3z"/><path class="st0" d="M222.4 304.5c5.9-.5 11.1 3.8 11.6 9.7.2 2.6 6.4 62.6 61.9 62.6h6.8l34.7-59h77.9V139c0-56.2-27.6-84.6-28.8-85.7l-.9-.9c-13.5-17-31.9-29.3-52.9-35.9C315.5 11 299.4 11 281 11h-89.5c11.1 11.6 16.8 27.2 16.8 46.5 0 5.9-4.7 10.6-10.6 10.6S187 63.4 187 57.5c0-14.6-4.3-26-12.5-33.5-15.4-14.2-40.6-12.8-40.9-12.8H46.2c-.7 0-7.3-.2-11.3 3.8-3.1 2.8-4.5 7.6-4.5 14.2v226.5c0 1.2-2.4 49.8 30.2 82.4.5.5 37.8 38.7 83.4 38.7h96.6c-18.7-18.2-26.7-43.7-28.1-60.7-.5-5.7 4-10.9 9.9-11.6zm120.5-74.6l-68-31.2c23.1-45.1 81.9-17.2 68 31.2z"/></svg>