<svg xmlns="http://www.w3.org/2000/svg" width="26" height="26" viewBox="0 0 26 26">
    <path fill="#FFF" fill-rule="evenodd" d="M25.998 9.462a1.1 1.1 0 0 0-.467-.94L13.766.298a1.103 1.103 0 0 0-.71-.293C13.039.003 13.02 0 13 0c-.019 0-.038.003-.057.005-.26.01-.514.109-.71.293L.47 8.522a1.1 1.1 0 0 0-.467.94L0 9.483v15.416C0 25.504.496 26 1.103 26h17.698c.607 0 1.103-.496 1.103-1.101V12.734c0-.038-.007-.075-.011-.112a1.099 1.099 0 0 0-.458-1.021l-5.669-3.963a1.103 1.103 0 0 0-.71-.293c-.018-.002-.037-.005-.056-.005-.019 0-.038.003-.057.005-.26.01-.514.11-.71.293l-5.668 3.963a1.102 1.102 0 0 0-.468.93l-.001.009v6.128c0 .606.496 1.102 1.103 1.102s1.103-.496 1.103-1.102v-5.592L13 9.79l4.698 3.285v10.721H2.206v-13.8L13 2.451l10.794 7.546v14.902c0 .605.496 1.101 1.103 1.101S26 25.504 26 24.899V9.483l-.002-.021"/>
</svg>
