<?xml version="1.0" encoding="UTF-8" standalone="no"?>
<!DOCTYPE svg PUBLIC "-//W3C//DTD SVG 1.1//EN" "http://www.w3.org/Graphics/SVG/1.1/DTD/svg11.dtd">
<svg width="100%" height="100%" viewBox="0 0 1076 359" version="1.1" xmlns="http://www.w3.org/2000/svg" xmlns:xlink="http://www.w3.org/1999/xlink" xml:space="preserve" xmlns:serif="http://www.serif.com/" style="fill-rule:evenodd;clip-rule:evenodd;stroke-linejoin:round;stroke-miterlimit:1.41421;">
    <g transform="matrix(1,0,0,1,-7556,-274)">
        <g id="Logo01" transform="matrix(0.875404,0,0,0.586136,940.747,112.916)">
            <rect x="7556.8" y="274.824" width="1228.18" height="611.528" style="fill:none;"/>
            <clipPath id="_clip1">
                <rect x="7556.8" y="274.824" width="1228.18" height="611.528"/>
            </clipPath>
            <g clip-path="url(#_clip1)">
                <g transform="matrix(1.14233,0,0,1.70609,5175.91,-250.594)">
                    <g transform="matrix(1,0,0,1,444.337,-424.81)">
                        <path d="M1796,827L1796,805" style="fill:rgb(248,80,19);"/>
                    </g>
                    <g transform="matrix(0.998175,0,0,2.47684,188.195,-294.751)">
                        <path d="M2068.4,275.387C2068.4,273.716 2065.03,272.359 2060.88,272.359L2050.87,272.359C2046.72,272.359 2043.35,273.716 2043.35,275.387L2043.35,283.723C2043.35,285.394 2046.72,286.751 2050.87,286.751L2060.88,286.751C2065.03,286.751 2068.4,285.394 2068.4,283.723L2068.4,275.387Z" style="fill:rgb(248,80,19);"/>
                    </g>
                    <g transform="matrix(0.998175,0,0,2.47684,188.195,-307.344)">
                        <path d="M2068.4,275.387C2068.4,273.716 2065.03,272.359 2060.88,272.359L2050.87,272.359C2046.72,272.359 2043.35,273.716 2043.35,275.387L2043.35,283.723C2043.35,285.394 2046.72,286.751 2050.87,286.751L2060.88,286.751C2065.03,286.751 2068.4,285.394 2068.4,283.723L2068.4,275.387Z" style="fill:rgb(248,80,19);"/>
                    </g>
                </g>
                <g transform="matrix(1.14233,0,0,1.70609,7050.03,-607.054)">
                    <path d="M564.959,557.531C564.959,561.671 561.598,565.031 557.459,565.031L547.459,565.031C543.32,565.031 539.959,561.671 539.959,557.531L539.959,524.291C539.959,520.152 543.319,516.792 547.459,516.791L557.459,516.791C561.598,516.792 564.959,520.152 564.959,524.291L564.959,557.531Z" style="fill:rgb(235,37,1);"/>
                </g>
                <g transform="matrix(1.14233,0,0,1.70609,5175.91,-250.594)">
                    <g transform="matrix(1.91667,0,0,1.91667,-1106.83,-1161.29)">
                        <circle cx="1696" cy="810" r="6" style="fill:rgb(248,80,19);"/>
                    </g>
                    <g transform="matrix(0.998175,0,0,1.72905,92.7321,-92.2778)">
                        <path d="M2068.4,276.677C2068.4,274.294 2065.05,272.359 2060.92,272.359L2050.83,272.359C2046.7,272.359 2043.35,274.294 2043.35,276.677L2043.35,282.434C2043.35,284.817 2046.7,286.751 2050.83,286.751L2060.92,286.751C2065.05,286.751 2068.4,284.817 2068.4,282.434L2068.4,276.677Z" style="fill:rgb(248,80,19);"/>
                    </g>
                </g>
                <g transform="matrix(1.14233,0,0,1.70609,1986.06,-802.365)">
                    <path d="M4990.72,699.696C4994.86,699.696 4998.22,703.057 4998.22,707.196L4998.22,711.901C4998.23,712.093 4998.23,712.307 4998.24,712.602L4998.24,876.602C4997.96,884.478 4989.77,890.813 4982.22,888.596C4977.65,887.253 4974.05,883.102 4973.37,878.381C4973.26,877.595 4973.27,877.394 4973.24,876.602L4973.24,728.428C4973.23,728.235 4973.22,728.039 4973.22,727.843L4973.22,707.196C4973.22,703.057 4976.58,699.696 4980.72,699.696L4990.72,699.696Z" style="fill:rgb(235,37,1);"/>
                </g>
                <g transform="matrix(1.14233,0,0,1.70609,1986.06,-802.365)">
                    <path d="M4942.17,746.918C4946.31,746.918 4949.67,750.279 4949.67,754.418L4949.67,759.312C4949.7,759.614 4949.72,759.917 4949.73,760.221C4949.73,798.983 4949.61,837.746 4949.73,876.508C4949.88,891.602 4960.51,906.01 4974.91,910.493C4987.03,914.268 5001.08,910.965 5010.26,902.205C5017.26,895.536 5021.35,886.014 5021.38,876.258L5021.38,787.401C5021.37,787.21 5021.36,787.017 5021.36,786.822L5021.36,766.175C5021.36,762.036 5024.72,758.676 5028.86,758.675L5038.86,758.675C5043,758.676 5046.36,762.036 5046.36,766.175L5046.36,771.125C5046.36,771.314 5046.37,771.524 5046.38,771.812L5046.38,876.299C5046.33,892.72 5039.4,908.967 5027.52,920.299C5012.36,934.751 4989.45,940.493 4969.28,934.893C4943.99,927.875 4924.82,903.006 4924.73,876.299L4924.73,776.047C4924.69,775.725 4924.67,775.398 4924.67,775.065L4924.67,754.418C4924.67,750.279 4928.03,746.918 4932.17,746.918L4942.17,746.918Z" style="fill:rgb(248,80,19);"/>
                </g>
                <g transform="matrix(1.14233,0,0,1.70609,1986.06,-374.799)">
                    <path d="M4894.74,532.394C4898.88,532.395 4902.24,535.755 4902.24,539.894L4902.24,560.541C4902.24,560.692 4902.24,560.841 4902.23,560.99C4902.2,582.42 4902.14,603.85 4902.24,625.28C4902.46,653.182 4917.72,680.429 4941.38,695.2C4967.56,711.55 5003.06,711.904 5029.42,695.215C5052.21,680.786 5066.19,654.101 5066.24,626.729L5066.24,591.991C5066.28,591.102 5066.32,590.438 5066.39,589.909L5066.39,585.85C5066.39,581.711 5069.75,578.351 5073.89,578.35L5083.89,578.35C5088.03,578.351 5091.39,581.711 5091.39,585.85L5091.39,606.497C5091.39,606.974 5091.35,607.441 5091.26,607.894C5091.27,614.406 5091.28,620.918 5091.24,627.43C5091.04,661.578 5073.95,695.426 5045.2,714.77C5019.39,732.13 4985.71,737.174 4955.69,728.639C4922.26,719.135 4894.18,692.605 4882.92,659.366C4879.15,648.23 4877.26,636.458 4877.24,624.753L4877.24,544.991L4877.24,544.957L4877.24,539.894C4877.24,535.755 4880.6,532.395 4884.74,532.394L4894.74,532.394Z" style="fill:rgb(243,115,51);"/>
                </g>
                <g transform="matrix(1.14233,0,0,1.70609,6416.64,-1371.55)">
                    <path d="M1406.96,1203.68C1408.4,1205.13 1409.13,1206.84 1409.13,1208.83L1409.13,1218.58C1409.13,1220.57 1408.4,1222.28 1406.96,1223.72C1405.52,1225.17 1403.8,1225.89 1401.82,1225.89L1291.59,1225.89C1289.6,1225.89 1287.88,1225.17 1286.44,1223.72C1285,1222.28 1284.27,1220.57 1284.27,1218.58L1284.27,1043.62C1284.27,1041.63 1285,1039.92 1286.44,1038.47C1287.88,1037.03 1289.6,1036.31 1291.59,1036.31L1302.69,1036.31C1304.68,1036.31 1306.39,1037.03 1307.84,1038.47C1309.28,1039.92 1310,1041.63 1310,1043.62L1310,1201.52L1401.82,1201.52C1403.8,1201.52 1405.52,1202.24 1406.96,1203.68Z" style="fill:white;fill-rule:nonzero;"/>
                    <g transform="matrix(1,0,0,1,8,0)">
                        <path d="M1443.52,1061.5C1442.08,1062.94 1440.36,1063.66 1438.38,1063.66L1422.94,1063.66C1420.95,1063.66 1419.24,1062.94 1417.79,1061.5C1416.35,1060.05 1415.63,1058.34 1415.63,1056.35L1415.63,1040.91C1415.63,1038.93 1416.35,1037.21 1417.79,1035.77C1419.24,1034.32 1420.95,1033.6 1422.94,1033.6L1438.38,1033.6C1440.36,1033.6 1442.08,1034.32 1443.52,1035.77C1444.97,1037.21 1445.69,1038.93 1445.69,1040.91L1445.69,1056.35C1445.69,1058.34 1444.97,1060.05 1443.52,1061.5ZM1440.82,1223.72C1439.37,1225.17 1437.65,1225.89 1435.67,1225.89L1425.65,1225.89C1423.66,1225.89 1421.95,1225.17 1420.5,1223.72C1419.06,1222.28 1418.34,1220.57 1418.34,1218.58L1418.34,1092.37C1418.34,1090.38 1419.06,1088.67 1420.5,1087.22C1421.95,1085.78 1423.66,1085.06 1425.65,1085.06L1435.67,1085.06C1437.65,1085.06 1439.37,1085.78 1440.82,1087.22C1442.26,1088.67 1442.98,1090.38 1442.98,1092.37L1442.98,1218.58C1442.98,1220.57 1442.26,1222.28 1440.82,1223.72Z" style="fill:white;fill-rule:nonzero;"/>
                    </g>
                    <g transform="matrix(1,0,0,1,12,0)">
                        <path d="M1547.66,1087.63C1554.61,1091.15 1560.07,1095.53 1564.04,1100.77L1564.04,1092.37C1564.04,1090.38 1564.77,1088.67 1566.21,1087.22C1567.65,1085.78 1569.37,1085.06 1571.36,1085.06L1581.38,1085.06C1583.36,1085.06 1585.08,1085.78 1586.52,1087.22C1587.97,1088.67 1588.69,1090.38 1588.69,1092.37L1588.69,1224C1588.69,1243.13 1583.27,1258.16 1572.44,1269.09C1561.61,1280.01 1545.72,1285.47 1524.77,1285.47C1511.23,1285.47 1499.86,1283.4 1490.65,1279.25C1481.44,1275.09 1474.62,1269.95 1470.2,1263.81C1465.78,1257.67 1463.38,1251.44 1463.02,1245.12C1462.84,1243.13 1463.52,1241.42 1465.05,1239.97C1466.59,1238.53 1468.35,1237.81 1470.34,1237.81L1478.46,1237.81C1480.63,1237.81 1482.34,1238.35 1483.61,1239.43C1484.87,1240.52 1486.13,1242.41 1487.4,1245.12C1489.2,1249.27 1492.63,1253.15 1497.69,1256.77C1502.75,1260.38 1510.87,1262.18 1522.07,1262.18C1550.05,1262.18 1564.04,1250.54 1564.04,1227.25L1564.04,1210.18C1554.84,1222.46 1540.84,1228.6 1522.07,1228.6C1510.87,1228.6 1500.71,1225.98 1491.6,1220.75C1482.48,1215.51 1475.16,1208.06 1469.66,1198.4C1464.15,1188.74 1461.13,1177.41 1460.59,1164.41L1460.32,1155.47L1460.59,1146.54C1461.13,1133.54 1464.15,1122.21 1469.66,1112.55C1475.16,1102.89 1482.43,1095.44 1491.46,1090.2C1500.49,1084.97 1510.69,1082.35 1522.07,1082.35C1532.18,1082.35 1540.71,1084.11 1547.66,1087.63ZM1496.74,1117.02C1489.79,1124.6 1485.95,1134.89 1485.23,1147.89L1484.96,1155.47L1485.23,1163.06C1485.95,1176.06 1489.79,1186.35 1496.74,1193.93C1503.69,1201.52 1513.04,1205.31 1524.77,1205.31C1536.33,1205.31 1545.63,1201.74 1552.67,1194.61C1559.71,1187.48 1563.5,1177.68 1564.04,1165.22C1564.22,1163.42 1564.32,1160.17 1564.32,1155.47C1564.32,1150.78 1564.22,1147.53 1564.04,1145.72C1563.5,1133.09 1559.71,1123.25 1552.67,1116.2C1545.63,1109.16 1536.33,1105.64 1524.77,1105.64C1513.04,1105.64 1503.69,1109.43 1496.74,1117.02Z" style="fill:white;fill-rule:nonzero;"/>
                    </g>
                    <g transform="matrix(1,0,0,1,8,0)">
                        <path d="M1736.02,1223.72C1734.58,1225.17 1732.86,1225.89 1730.88,1225.89L1720.86,1225.89C1718.87,1225.89 1717.15,1225.17 1715.71,1223.72C1714.27,1222.28 1713.54,1220.57 1713.54,1218.58L1713.54,1147.08C1713.54,1133.54 1710.2,1123.25 1703.52,1116.2C1696.84,1109.16 1687.54,1105.64 1675.63,1105.64C1663.89,1105.64 1654.64,1109.16 1647.87,1116.2C1641.1,1123.25 1637.71,1133.54 1637.71,1147.08L1637.71,1218.58C1637.71,1220.57 1636.99,1222.28 1635.54,1223.72C1634.1,1225.17 1632.38,1225.89 1630.4,1225.89L1620.38,1225.89C1618.39,1225.89 1616.68,1225.17 1615.23,1223.72C1613.79,1222.28 1613.07,1220.57 1613.07,1218.58L1613.07,1040.91C1613.07,1038.93 1613.79,1037.21 1615.23,1035.77C1616.68,1034.32 1618.39,1033.6 1620.38,1033.6L1630.4,1033.6C1632.38,1033.6 1634.1,1034.32 1635.54,1035.77C1636.99,1037.21 1637.71,1038.93 1637.71,1040.91L1637.71,1100.77C1641.68,1095.53 1647.14,1091.15 1654.1,1087.63C1661.05,1084.11 1669.58,1082.35 1679.69,1082.35C1691.07,1082.35 1701.18,1084.79 1710.02,1089.66C1718.87,1094.54 1725.78,1101.53 1730.74,1110.65C1735.71,1119.77 1738.19,1130.56 1738.19,1143.02L1738.19,1218.58C1738.19,1220.57 1737.47,1222.28 1736.02,1223.72Z" style="fill:white;fill-rule:nonzero;"/>
                    </g>
                    <g transform="matrix(1,0,0,1,8,0)">
                        <path d="M1800.62,1196.37C1803.78,1200.52 1809.78,1202.6 1818.63,1202.6L1832.98,1202.6C1834.97,1202.6 1836.68,1203.32 1838.13,1204.77C1839.57,1206.21 1840.29,1207.93 1840.29,1209.91L1840.29,1218.58C1840.29,1220.57 1839.57,1222.28 1838.13,1223.72C1836.68,1225.17 1834.97,1225.89 1832.98,1225.89L1815.92,1225.89C1800.57,1225.89 1789.29,1221.87 1782.07,1213.84C1774.84,1205.8 1771.23,1194.02 1771.23,1178.5L1771.23,1108.35L1751.19,1108.35C1749.2,1108.35 1747.49,1107.63 1746.04,1106.18C1744.6,1104.74 1743.88,1103.02 1743.88,1101.04L1743.88,1092.37C1743.88,1090.38 1744.6,1088.67 1746.04,1087.22C1747.49,1085.78 1749.2,1085.06 1751.19,1085.06L1771.23,1085.06L1771.23,1040.91C1771.23,1038.93 1771.95,1037.21 1773.4,1035.77C1774.84,1034.32 1776.56,1033.6 1778.54,1033.6L1788.57,1033.6C1790.55,1033.6 1792.27,1034.32 1793.71,1035.77C1795.15,1037.21 1795.88,1038.93 1795.88,1040.91L1795.88,1085.06L1830.27,1085.06C1832.26,1085.06 1833.97,1085.78 1835.42,1087.22C1836.86,1088.67 1837.59,1090.38 1837.59,1092.37L1837.59,1101.04C1837.59,1103.02 1836.86,1104.74 1835.42,1106.18C1833.97,1107.63 1832.26,1108.35 1830.27,1108.35L1795.88,1108.35L1795.88,1178.5C1795.88,1186.26 1797.46,1192.22 1800.62,1196.37Z" style="fill:white;fill-rule:nonzero;"/>
                    </g>
                    <g transform="matrix(1,0,0,1,8,0)">
                        <path d="M1952.42,1100.77C1963.61,1113.04 1969.21,1129.75 1969.21,1150.87L1969.21,1158.18C1969.21,1160.17 1968.49,1161.88 1967.04,1163.33C1965.6,1164.77 1963.88,1165.5 1961.9,1165.5L1868.73,1165.5L1868.73,1167.12C1869.09,1179.04 1872.75,1188.38 1879.7,1195.15C1886.65,1201.92 1895.63,1205.31 1906.65,1205.31C1915.68,1205.31 1922.67,1204.13 1927.64,1201.79C1932.6,1199.44 1937.07,1196.1 1941.04,1191.77C1942.49,1190.32 1943.8,1189.33 1944.97,1188.79C1946.14,1188.25 1947.72,1187.97 1949.71,1187.97L1957.84,1187.97C1960,1187.97 1961.81,1188.7 1963.25,1190.14C1964.7,1191.59 1965.33,1193.3 1965.15,1195.29C1964.43,1200.16 1961.76,1205.17 1957.16,1210.32C1952.55,1215.46 1945.96,1219.8 1937.39,1223.32C1928.81,1226.84 1918.57,1228.6 1906.65,1228.6C1895.09,1228.6 1884.8,1225.94 1875.77,1220.61C1866.75,1215.28 1859.57,1207.93 1854.24,1198.54C1848.91,1189.15 1845.71,1178.59 1844.63,1166.85C1844.27,1161.43 1844.09,1157.28 1844.09,1154.39C1844.09,1151.5 1844.27,1147.35 1844.63,1141.93C1845.71,1130.74 1848.91,1120.63 1854.24,1111.6C1859.57,1102.57 1866.7,1095.44 1875.64,1090.2C1884.58,1084.97 1894.91,1082.35 1906.65,1082.35C1925.97,1082.35 1941.22,1088.49 1952.42,1100.77ZM1944.84,1142.75L1944.84,1141.93C1944.84,1130.92 1941.36,1122.12 1934.41,1115.53C1927.46,1108.94 1918.2,1105.64 1906.65,1105.64C1896.18,1105.64 1887.28,1108.98 1879.97,1115.66C1872.66,1122.34 1868.91,1131.1 1868.73,1141.93L1868.73,1142.75L1944.84,1142.75Z" style="fill:white;fill-rule:nonzero;"/>
                    </g>
                    <g transform="matrix(1,0,0,1,8,0)">
                        <path d="M2062.38,1087.22C2063.82,1088.67 2064.54,1090.38 2064.54,1092.37L2064.54,1101.04C2064.54,1103.02 2063.82,1104.74 2062.38,1106.18C2060.93,1107.63 2059.22,1108.35 2057.23,1108.35L2041.52,1108.35C2031.41,1108.35 2023.69,1111.01 2018.37,1116.34C2013.04,1121.66 2010.38,1129.38 2010.38,1139.5L2010.38,1218.58C2010.38,1220.57 2009.65,1222.28 2008.21,1223.72C2006.77,1225.17 2005.05,1225.89 2003.07,1225.89L1993.04,1225.89C1991.06,1225.89 1989.34,1225.17 1987.9,1223.72C1986.45,1222.28 1985.73,1220.57 1985.73,1218.58L1985.73,1092.37C1985.73,1090.38 1986.45,1088.67 1987.9,1087.22C1989.34,1085.78 1991.06,1085.06 1993.04,1085.06L2003.07,1085.06C2005.05,1085.06 2006.77,1085.78 2008.21,1087.22C2009.65,1088.67 2010.38,1090.38 2010.38,1092.37L2010.38,1100.77C2013.99,1095.35 2018.32,1091.38 2023.38,1088.85C2028.43,1086.32 2035.02,1085.06 2043.15,1085.06L2057.23,1085.06C2059.22,1085.06 2060.93,1085.78 2062.38,1087.22Z" style="fill:white;fill-rule:nonzero;"/>
                    </g>
                </g>
                <g transform="matrix(1.14233,0,0,1.70609,6825.23,-1224.54)">
                    <path d="M1290.18,1221.45C1290.47,1221.74 1290.61,1222.08 1290.61,1222.48L1290.61,1224.43C1290.61,1224.83 1290.47,1225.17 1290.18,1225.46C1289.89,1225.75 1289.55,1225.89 1289.15,1225.89L1267.1,1225.89C1266.7,1225.89 1266.36,1225.75 1266.07,1225.46C1265.78,1225.17 1265.64,1224.83 1265.64,1224.43L1265.64,1189.44C1265.64,1189.04 1265.78,1188.7 1266.07,1188.41C1266.36,1188.12 1266.7,1187.97 1267.1,1187.97L1269.32,1187.97C1269.72,1187.97 1270.06,1188.12 1270.35,1188.41C1270.64,1188.7 1270.79,1189.04 1270.79,1189.44L1270.79,1221.02L1289.15,1221.02C1289.55,1221.02 1289.89,1221.16 1290.18,1221.45Z" style="fill:rgb(156,160,164);fill-rule:nonzero;"/>
                    <path d="M1300.74,1193.01C1300.45,1193.3 1300.11,1193.44 1299.71,1193.44L1296.62,1193.44C1296.23,1193.44 1295.88,1193.3 1295.59,1193.01C1295.31,1192.72 1295.16,1192.38 1295.16,1191.98L1295.16,1188.89C1295.16,1188.5 1295.31,1188.15 1295.59,1187.87C1295.88,1187.58 1296.23,1187.43 1296.62,1187.43L1299.71,1187.43C1300.11,1187.43 1300.45,1187.58 1300.74,1187.87C1301.03,1188.15 1301.17,1188.5 1301.17,1188.89L1301.17,1191.98C1301.17,1192.38 1301.03,1192.72 1300.74,1193.01ZM1300.2,1225.46C1299.91,1225.75 1299.57,1225.89 1299.17,1225.89L1297.16,1225.89C1296.77,1225.89 1296.42,1225.75 1296.13,1225.46C1295.85,1225.17 1295.7,1224.83 1295.7,1224.43L1295.7,1199.19C1295.7,1198.79 1295.85,1198.45 1296.13,1198.16C1296.42,1197.87 1296.77,1197.72 1297.16,1197.72L1299.17,1197.72C1299.57,1197.72 1299.91,1197.87 1300.2,1198.16C1300.49,1198.45 1300.63,1198.79 1300.63,1199.19L1300.63,1224.43C1300.63,1224.83 1300.49,1225.17 1300.2,1225.46Z" style="fill:rgb(156,160,164);fill-rule:nonzero;"/>
                    <path d="M1322.52,1224.54L1333.29,1199.4C1333.33,1199.3 1333.35,1199.17 1333.35,1199.02C1333.35,1198.66 1333.22,1198.36 1332.97,1198.1C1332.72,1197.85 1332.41,1197.72 1332.05,1197.72L1329.83,1197.72C1329.11,1197.72 1328.58,1198.16 1328.26,1199.02L1319.86,1218.69L1311.46,1199.02C1311.14,1198.16 1310.54,1197.72 1309.68,1197.72L1307.67,1197.72C1307.31,1197.72 1307.01,1197.85 1306.75,1198.1C1306.5,1198.36 1306.37,1198.66 1306.37,1199.02C1306.37,1199.17 1306.39,1199.3 1306.43,1199.4L1317.21,1224.54C1317.57,1225.44 1318.13,1225.89 1318.88,1225.89L1320.89,1225.89C1321.61,1225.89 1322.15,1225.44 1322.52,1224.54Z" style="fill:rgb(156,160,164);fill-rule:nonzero;"/>
                    <path d="M1344.13,1193.01C1343.84,1193.3 1343.5,1193.44 1343.1,1193.44L1340.01,1193.44C1339.61,1193.44 1339.27,1193.3 1338.98,1193.01C1338.69,1192.72 1338.55,1192.38 1338.55,1191.98L1338.55,1188.89C1338.55,1188.5 1338.69,1188.15 1338.98,1187.87C1339.27,1187.58 1339.61,1187.43 1340.01,1187.43L1343.1,1187.43C1343.5,1187.43 1343.84,1187.58 1344.13,1187.87C1344.42,1188.15 1344.56,1188.5 1344.56,1188.89L1344.56,1191.98C1344.56,1192.38 1344.42,1192.72 1344.13,1193.01ZM1343.59,1225.46C1343.3,1225.75 1342.95,1225.89 1342.56,1225.89L1340.55,1225.89C1340.15,1225.89 1339.81,1225.75 1339.52,1225.46C1339.23,1225.17 1339.09,1224.83 1339.09,1224.43L1339.09,1199.19C1339.09,1198.79 1339.23,1198.45 1339.52,1198.16C1339.81,1197.87 1340.15,1197.72 1340.55,1197.72L1342.56,1197.72C1342.95,1197.72 1343.3,1197.87 1343.59,1198.16C1343.87,1198.45 1344.02,1198.79 1344.02,1199.19L1344.02,1224.43C1344.02,1224.83 1343.87,1225.17 1343.59,1225.46Z" style="fill:rgb(156,160,164);fill-rule:nonzero;"/>
                    <path d="M1376.74,1225.46C1376.45,1225.75 1376.1,1225.89 1375.71,1225.89L1373.7,1225.89C1373.31,1225.89 1372.96,1225.75 1372.67,1225.46C1372.38,1225.17 1372.24,1224.83 1372.24,1224.43L1372.24,1210.13C1372.24,1207.42 1371.57,1205.36 1370.24,1203.95C1368.9,1202.55 1367.04,1201.84 1364.66,1201.84C1362.31,1201.84 1360.46,1202.55 1359.1,1203.95C1357.75,1205.36 1357.07,1207.42 1357.07,1210.13L1357.07,1224.43C1357.07,1224.83 1356.93,1225.17 1356.64,1225.46C1356.35,1225.75 1356.01,1225.89 1355.61,1225.89L1353.61,1225.89C1353.21,1225.89 1352.87,1225.75 1352.58,1225.46C1352.29,1225.17 1352.14,1224.83 1352.14,1224.43L1352.14,1199.19C1352.14,1198.79 1352.29,1198.45 1352.58,1198.16C1352.87,1197.87 1353.21,1197.72 1353.61,1197.72L1355.61,1197.72C1356.01,1197.72 1356.35,1197.87 1356.64,1198.16C1356.93,1198.45 1357.07,1198.79 1357.07,1199.19L1357.07,1200.87C1357.87,1199.82 1358.96,1198.94 1360.35,1198.24C1361.74,1197.54 1363.45,1197.18 1365.47,1197.18C1367.74,1197.18 1369.77,1197.67 1371.54,1198.64C1373.31,1199.62 1374.69,1201.02 1375.68,1202.84C1376.67,1204.67 1377.17,1206.82 1377.17,1209.32L1377.17,1224.43C1377.17,1224.83 1377.02,1225.17 1376.74,1225.46Z" style="fill:rgb(156,160,164);fill-rule:nonzero;"/>
                    <path d="M1401.08,1198.24C1402.47,1198.94 1403.57,1199.82 1404.36,1200.87L1404.36,1199.19C1404.36,1198.79 1404.51,1198.45 1404.79,1198.16C1405.08,1197.87 1405.43,1197.72 1405.82,1197.72L1407.83,1197.72C1408.22,1197.72 1408.57,1197.87 1408.86,1198.16C1409.14,1198.45 1409.29,1198.79 1409.29,1199.19L1409.29,1225.51C1409.29,1229.34 1408.21,1232.35 1406.04,1234.53C1403.87,1236.71 1400.69,1237.81 1396.51,1237.81C1393.8,1237.81 1391.52,1237.39 1389.68,1236.56C1387.84,1235.73 1386.48,1234.7 1385.59,1233.47C1384.71,1232.25 1384.23,1231 1384.16,1229.74C1384.12,1229.34 1384.26,1229 1384.56,1228.71C1384.87,1228.42 1385.22,1228.27 1385.62,1228.27L1387.24,1228.27C1387.68,1228.27 1388.02,1228.38 1388.27,1228.6C1388.53,1228.82 1388.78,1229.19 1389.03,1229.74C1389.39,1230.57 1390.08,1231.34 1391.09,1232.07C1392.1,1232.79 1393.73,1233.15 1395.96,1233.15C1401.56,1233.15 1404.36,1230.82 1404.36,1226.16L1404.36,1222.75C1402.52,1225.2 1399.72,1226.43 1395.96,1226.43C1393.73,1226.43 1391.69,1225.91 1389.87,1224.86C1388.05,1223.82 1386.59,1222.33 1385.48,1220.39C1384.38,1218.46 1383.78,1216.19 1383.67,1213.6L1383.62,1211.81L1383.67,1210.02C1383.78,1207.42 1384.38,1205.15 1385.48,1203.22C1386.59,1201.29 1388.04,1199.8 1389.84,1198.75C1391.65,1197.71 1393.69,1197.18 1395.96,1197.18C1397.99,1197.18 1399.69,1197.54 1401.08,1198.24ZM1390.9,1204.12C1389.51,1205.63 1388.74,1207.69 1388.6,1210.29L1388.54,1211.81L1388.6,1213.32C1388.74,1215.92 1389.51,1217.98 1390.9,1219.5C1392.29,1221.02 1394.16,1221.77 1396.51,1221.77C1398.82,1221.77 1400.68,1221.06 1402.09,1219.63C1403.49,1218.21 1404.25,1216.25 1404.36,1213.76C1404.4,1213.4 1404.41,1212.75 1404.41,1211.81C1404.41,1210.87 1404.4,1210.22 1404.36,1209.86C1404.25,1207.33 1403.49,1205.36 1402.09,1203.95C1400.68,1202.55 1398.82,1201.84 1396.51,1201.84C1394.16,1201.84 1392.29,1202.6 1390.9,1204.12Z" style="fill:rgb(156,160,164);fill-rule:nonzero;"/>
                    <path d="M1456.31,1198.08C1456.05,1198.31 1455.77,1198.43 1455.44,1198.43L1453.22,1198.43C1452.79,1198.43 1452.46,1198.35 1452.24,1198.18C1452.03,1198.02 1451.79,1197.71 1451.54,1197.24C1450.96,1196.12 1449.96,1195.02 1448.53,1193.93C1447.11,1192.85 1445.22,1192.31 1442.87,1192.31C1440.71,1192.31 1438.87,1192.8 1437.38,1193.77C1435.88,1194.75 1435.13,1196.14 1435.13,1197.94C1435.13,1199.17 1435.5,1200.17 1436.24,1200.95C1436.98,1201.72 1438.1,1202.39 1439.6,1202.95C1441.09,1203.51 1443.36,1204.19 1446.39,1204.98C1450.51,1206.07 1453.43,1207.39 1455.14,1208.96C1456.86,1210.54 1457.71,1212.67 1457.71,1215.38C1457.71,1217.55 1457.11,1219.46 1455.9,1221.12C1454.69,1222.79 1452.98,1224.09 1450.78,1225.02C1448.58,1225.96 1446.03,1226.43 1443.14,1226.43C1440.47,1226.43 1438.03,1225.93 1435.83,1224.92C1433.63,1223.9 1431.89,1222.61 1430.63,1221.04C1429.37,1219.47 1428.7,1217.91 1428.63,1216.36C1428.63,1216.03 1428.74,1215.75 1428.98,1215.52C1429.21,1215.28 1429.49,1215.17 1429.82,1215.17L1432.04,1215.17C1432.44,1215.17 1432.76,1215.25 1433.02,1215.41C1433.27,1215.57 1433.5,1215.89 1433.72,1216.36C1434.3,1217.66 1435.35,1218.85 1436.89,1219.93C1438.42,1221.02 1440.51,1221.56 1443.14,1221.56C1445.78,1221.56 1448.01,1220.99 1449.83,1219.85C1451.66,1218.71 1452.57,1217.22 1452.57,1215.38C1452.57,1214.19 1452.09,1213.19 1451.13,1212.38C1450.18,1211.56 1448.87,1210.88 1447.21,1210.32C1445.55,1209.76 1443.11,1209.06 1439.89,1208.23C1436.39,1207.33 1433.86,1206.02 1432.31,1204.31C1430.76,1202.59 1429.98,1200.47 1429.98,1197.94C1429.98,1196.06 1430.47,1194.33 1431.44,1192.74C1432.42,1191.15 1433.88,1189.87 1435.83,1188.89C1437.78,1187.92 1440.13,1187.43 1442.87,1187.43C1445.62,1187.43 1448.02,1187.96 1450.08,1189.03C1452.13,1190.1 1453.72,1191.4 1454.84,1192.96C1455.96,1194.51 1456.56,1195.94 1456.63,1197.24C1456.67,1197.56 1456.56,1197.84 1456.31,1198.08Z" style="fill:rgb(156,160,164);fill-rule:nonzero;"/>
                    <path d="M1472.42,1219.99C1473.05,1220.82 1474.25,1221.23 1476.02,1221.23L1478.89,1221.23C1479.29,1221.23 1479.63,1221.38 1479.92,1221.67C1480.21,1221.95 1480.36,1222.3 1480.36,1222.69L1480.36,1224.43C1480.36,1224.83 1480.21,1225.17 1479.92,1225.46C1479.63,1225.75 1479.29,1225.89 1478.89,1225.89L1475.48,1225.89C1472.41,1225.89 1470.15,1225.09 1468.71,1223.48C1467.27,1221.87 1466.54,1219.52 1466.54,1216.41L1466.54,1202.38L1462.54,1202.38C1462.14,1202.38 1461.8,1202.24 1461.51,1201.95C1461.22,1201.66 1461.07,1201.32 1461.07,1200.92L1461.07,1199.19C1461.07,1198.79 1461.22,1198.45 1461.51,1198.16C1461.8,1197.87 1462.14,1197.72 1462.54,1197.72L1466.54,1197.72L1466.54,1188.89C1466.54,1188.5 1466.69,1188.15 1466.98,1187.87C1467.27,1187.58 1467.61,1187.43 1468.01,1187.43L1470.01,1187.43C1470.41,1187.43 1470.75,1187.58 1471.04,1187.87C1471.33,1188.15 1471.47,1188.5 1471.47,1188.89L1471.47,1197.72L1478.35,1197.72C1478.75,1197.72 1479.09,1197.87 1479.38,1198.16C1479.67,1198.45 1479.82,1198.79 1479.82,1199.19L1479.82,1200.92C1479.82,1201.32 1479.67,1201.66 1479.38,1201.95C1479.09,1202.24 1478.75,1202.38 1478.35,1202.38L1471.47,1202.38L1471.47,1216.41C1471.47,1217.96 1471.79,1219.16 1472.42,1219.99Z" style="fill:rgb(156,160,164);fill-rule:nonzero;"/>
                    <path d="M1492.49,1236.18L1490.27,1236.18C1489.91,1236.18 1489.6,1236.06 1489.35,1235.8C1489.1,1235.55 1488.97,1235.24 1488.97,1234.88C1488.97,1234.74 1488.99,1234.61 1489.02,1234.5L1494.22,1223.18L1483.5,1199.4C1483.46,1199.3 1483.44,1199.17 1483.44,1199.02C1483.44,1198.66 1483.57,1198.36 1483.82,1198.1C1484.08,1197.85 1484.38,1197.72 1484.74,1197.72L1486.96,1197.72C1487.69,1197.72 1488.21,1198.16 1488.54,1199.02L1496.88,1217.44L1505.33,1199.02C1505.65,1198.16 1506.18,1197.72 1506.9,1197.72L1509.12,1197.72C1509.48,1197.72 1509.79,1197.85 1510.04,1198.1C1510.29,1198.36 1510.42,1198.66 1510.42,1199.02C1510.42,1199.17 1510.4,1199.3 1510.37,1199.4L1494.06,1234.88C1493.74,1235.75 1493.21,1236.18 1492.49,1236.18Z" style="fill:rgb(156,160,164);fill-rule:nonzero;"/>
                    <path d="M1520.44,1225.46C1520.15,1225.75 1519.81,1225.89 1519.41,1225.89L1517.41,1225.89C1517.01,1225.89 1516.67,1225.75 1516.38,1225.46C1516.09,1225.17 1515.94,1224.83 1515.94,1224.43L1515.94,1188.89C1515.94,1188.5 1516.09,1188.15 1516.38,1187.87C1516.67,1187.58 1517.01,1187.43 1517.41,1187.43L1519.41,1187.43C1519.81,1187.43 1520.15,1187.58 1520.44,1187.87C1520.73,1188.15 1520.87,1188.5 1520.87,1188.89L1520.87,1224.43C1520.87,1224.83 1520.73,1225.17 1520.44,1225.46Z" style="fill:rgb(156,160,164);fill-rule:nonzero;"/>
                    <path d="M1549.26,1200.87C1551.5,1203.32 1552.62,1206.66 1552.62,1210.89L1552.62,1212.35C1552.62,1212.75 1552.47,1213.09 1552.18,1213.38C1551.89,1213.67 1551.55,1213.81 1551.15,1213.81L1532.52,1213.81L1532.52,1214.14C1532.59,1216.52 1533.32,1218.39 1534.71,1219.74C1536.1,1221.1 1537.9,1221.77 1540.1,1221.77C1541.91,1221.77 1543.31,1221.54 1544.3,1221.07C1545.29,1220.6 1546.19,1219.93 1546.98,1219.07C1547.27,1218.78 1547.53,1218.58 1547.77,1218.47C1548,1218.36 1548.32,1218.31 1548.72,1218.31L1550.34,1218.31C1550.77,1218.31 1551.13,1218.45 1551.42,1218.74C1551.71,1219.03 1551.84,1219.37 1551.8,1219.77C1551.66,1220.75 1551.12,1221.75 1550.2,1222.78C1549.28,1223.81 1547.97,1224.67 1546.25,1225.38C1544.54,1226.08 1542.49,1226.43 1540.1,1226.43C1537.79,1226.43 1535.73,1225.9 1533.93,1224.84C1532.12,1223.77 1530.69,1222.3 1529.62,1220.42C1528.56,1218.54 1527.91,1216.43 1527.7,1214.08C1527.63,1213 1527.59,1212.17 1527.59,1211.59C1527.59,1211.01 1527.63,1210.18 1527.7,1209.1C1527.91,1206.86 1528.56,1204.84 1529.62,1203.03C1530.69,1201.23 1532.11,1199.8 1533.9,1198.75C1535.69,1197.71 1537.76,1197.18 1540.1,1197.18C1543.97,1197.18 1547.02,1198.41 1549.26,1200.87ZM1547.74,1209.26L1547.74,1209.1C1547.74,1206.9 1547.04,1205.14 1545.65,1203.82C1544.26,1202.5 1542.41,1201.84 1540.1,1201.84C1538.01,1201.84 1536.23,1202.51 1534.77,1203.85C1533.3,1205.18 1532.56,1206.93 1532.52,1209.1L1532.52,1209.26L1547.74,1209.26Z" style="fill:rgb(156,160,164);fill-rule:nonzero;"/>
                    <path d="M1595.03,1189.14C1597.27,1190.28 1598.97,1191.67 1600.15,1193.31C1601.32,1194.95 1601.94,1196.48 1602.02,1197.89C1602.05,1198.21 1601.94,1198.49 1601.69,1198.73C1601.44,1198.96 1601.15,1199.08 1600.82,1199.08L1598.6,1199.08C1597.77,1199.08 1597.25,1198.88 1597.03,1198.48C1595.98,1196.46 1594.73,1194.93 1593.27,1193.88C1591.8,1192.83 1589.74,1192.31 1587.07,1192.31C1584.03,1192.31 1581.58,1193.16 1579.7,1194.88C1577.82,1196.6 1576.83,1199.06 1576.72,1202.27C1576.68,1203.36 1576.66,1204.86 1576.66,1206.77C1576.66,1208.68 1576.68,1210.18 1576.72,1211.27C1576.83,1214.66 1577.81,1217.22 1579.67,1218.96C1581.53,1220.69 1584,1221.56 1587.07,1221.56C1590.21,1221.56 1592.72,1220.74 1594.59,1219.09C1596.47,1217.45 1597.41,1214.86 1597.41,1211.32L1597.41,1209.8L1589.61,1209.8C1589.21,1209.8 1588.87,1209.66 1588.58,1209.37C1588.29,1209.08 1588.15,1208.74 1588.15,1208.34L1588.15,1206.39C1588.15,1205.99 1588.29,1205.65 1588.58,1205.36C1588.87,1205.07 1589.21,1204.93 1589.61,1204.93L1601.09,1204.93C1601.49,1204.93 1601.83,1205.07 1602.12,1205.36C1602.41,1205.65 1602.56,1205.99 1602.56,1206.39L1602.56,1211.54C1602.56,1214.43 1601.94,1217 1600.72,1219.26C1599.49,1221.51 1597.71,1223.27 1595.38,1224.54C1593.05,1225.8 1590.28,1226.43 1587.07,1226.43C1582.08,1226.43 1578.29,1225.05 1575.69,1222.29C1573.09,1219.53 1571.72,1215.94 1571.57,1211.54C1571.54,1210.45 1571.52,1208.87 1571.52,1206.77C1571.52,1204.68 1571.54,1203.09 1571.57,1202C1571.68,1199.22 1572.3,1196.74 1573.44,1194.56C1574.58,1192.37 1576.29,1190.64 1578.59,1189.36C1580.88,1188.07 1583.71,1187.43 1587.07,1187.43C1590.13,1187.43 1592.79,1188 1595.03,1189.14Z" style="fill:rgb(156,160,164);fill-rule:nonzero;"/>
                    <path d="M1609.6,1198.16C1609.89,1197.87 1610.23,1197.72 1610.63,1197.72L1612.63,1197.72C1613.03,1197.72 1613.37,1197.87 1613.66,1198.16C1613.95,1198.45 1614.09,1198.79 1614.09,1199.19L1614.09,1213.49C1614.09,1216.23 1614.72,1218.3 1615.96,1219.69C1617.21,1221.08 1619.02,1221.77 1621.41,1221.77C1623.72,1221.77 1625.51,1221.07 1626.8,1219.66C1628.08,1218.25 1628.72,1216.19 1628.72,1213.49L1628.72,1199.19C1628.72,1198.79 1628.86,1198.45 1629.15,1198.16C1629.44,1197.87 1629.78,1197.72 1630.18,1197.72L1632.18,1197.72C1632.58,1197.72 1632.93,1197.87 1633.22,1198.16C1633.5,1198.45 1633.65,1198.79 1633.65,1199.19L1633.65,1224.43C1633.65,1224.83 1633.5,1225.17 1633.22,1225.46C1632.93,1225.75 1632.58,1225.89 1632.18,1225.89L1630.18,1225.89C1629.78,1225.89 1629.44,1225.75 1629.15,1225.46C1628.86,1225.17 1628.72,1224.83 1628.72,1224.43L1628.72,1222.75C1626.84,1225.2 1624.13,1226.43 1620.59,1226.43C1617.13,1226.43 1614.36,1225.35 1612.28,1223.18C1610.2,1221.02 1609.16,1218.06 1609.16,1214.3L1609.16,1199.19C1609.16,1198.79 1609.31,1198.45 1609.6,1198.16Z" style="fill:rgb(156,160,164);fill-rule:nonzero;"/>
                    <path d="M1646.81,1193.01C1646.52,1193.3 1646.18,1193.44 1645.78,1193.44L1642.69,1193.44C1642.3,1193.44 1641.95,1193.3 1641.66,1193.01C1641.38,1192.72 1641.23,1192.38 1641.23,1191.98L1641.23,1188.89C1641.23,1188.5 1641.38,1188.15 1641.66,1187.87C1641.95,1187.58 1642.3,1187.43 1642.69,1187.43L1645.78,1187.43C1646.18,1187.43 1646.52,1187.58 1646.81,1187.87C1647.1,1188.15 1647.24,1188.5 1647.24,1188.89L1647.24,1191.98C1647.24,1192.38 1647.1,1192.72 1646.81,1193.01ZM1646.27,1225.46C1645.98,1225.75 1645.64,1225.89 1645.24,1225.89L1643.24,1225.89C1642.84,1225.89 1642.5,1225.75 1642.21,1225.46C1641.92,1225.17 1641.77,1224.83 1641.77,1224.43L1641.77,1199.19C1641.77,1198.79 1641.92,1198.45 1642.21,1198.16C1642.5,1197.87 1642.84,1197.72 1643.24,1197.72L1645.24,1197.72C1645.64,1197.72 1645.98,1197.87 1646.27,1198.16C1646.56,1198.45 1646.7,1198.79 1646.7,1199.19L1646.7,1224.43C1646.7,1224.83 1646.56,1225.17 1646.27,1225.46Z" style="fill:rgb(156,160,164);fill-rule:nonzero;"/>
                    <path d="M1674.16,1188.89C1674.16,1188.5 1674.31,1188.15 1674.6,1187.87C1674.89,1187.58 1675.23,1187.43 1675.63,1187.43L1677.63,1187.43C1678.03,1187.43 1678.37,1187.58 1678.66,1187.87C1678.95,1188.15 1679.09,1188.5 1679.09,1188.89L1679.09,1224.43C1679.09,1224.83 1678.95,1225.17 1678.66,1225.46C1678.37,1225.75 1678.03,1225.89 1677.63,1225.89L1675.63,1225.89C1675.23,1225.89 1674.89,1225.75 1674.6,1225.46C1674.31,1225.17 1674.16,1224.83 1674.16,1224.43L1674.16,1222.75C1672.32,1225.2 1669.52,1226.43 1665.77,1226.43C1663.53,1226.43 1661.5,1225.91 1659.67,1224.86C1657.85,1223.82 1656.39,1222.32 1655.29,1220.37C1654.19,1218.42 1653.58,1216.14 1653.47,1213.54L1653.42,1211.75L1653.47,1210.02C1653.58,1207.42 1654.19,1205.15 1655.29,1203.22C1656.39,1201.29 1657.84,1199.8 1659.65,1198.75C1661.45,1197.71 1663.49,1197.18 1665.77,1197.18C1667.79,1197.18 1669.5,1197.54 1670.89,1198.24C1672.28,1198.94 1673.37,1199.82 1674.16,1200.87L1674.16,1188.89ZM1671.89,1203.95C1670.48,1202.55 1668.62,1201.84 1666.31,1201.84C1663.96,1201.84 1662.09,1202.6 1660.7,1204.12C1659.31,1205.63 1658.55,1207.69 1658.4,1210.29L1658.35,1211.81L1658.4,1213.32C1658.55,1215.92 1659.31,1217.98 1660.7,1219.5C1662.09,1221.02 1663.96,1221.77 1666.31,1221.77C1668.55,1221.77 1670.39,1221.08 1671.84,1219.69C1673.28,1218.3 1674.06,1216.45 1674.16,1214.14C1674.2,1213.78 1674.22,1213.05 1674.22,1211.97C1674.22,1210.92 1674.2,1210.22 1674.16,1209.86C1674.06,1207.33 1673.3,1205.36 1671.89,1203.95Z" style="fill:rgb(156,160,164);fill-rule:nonzero;"/>
                    <path d="M1707.48,1200.87C1709.72,1203.32 1710.84,1206.66 1710.84,1210.89L1710.84,1212.35C1710.84,1212.75 1710.69,1213.09 1710.4,1213.38C1710.11,1213.67 1709.77,1213.81 1709.37,1213.81L1690.74,1213.81L1690.74,1214.14C1690.81,1216.52 1691.54,1218.39 1692.93,1219.74C1694.32,1221.1 1696.12,1221.77 1698.32,1221.77C1700.13,1221.77 1701.53,1221.54 1702.52,1221.07C1703.51,1220.6 1704.41,1219.93 1705.2,1219.07C1705.49,1218.78 1705.75,1218.58 1705.99,1218.47C1706.22,1218.36 1706.54,1218.31 1706.93,1218.31L1708.56,1218.31C1708.99,1218.31 1709.36,1218.45 1709.64,1218.74C1709.93,1219.03 1710.06,1219.37 1710.02,1219.77C1709.88,1220.75 1709.35,1221.75 1708.42,1222.78C1707.5,1223.81 1706.19,1224.67 1704.47,1225.38C1702.76,1226.08 1700.71,1226.43 1698.32,1226.43C1696.01,1226.43 1693.95,1225.9 1692.15,1224.84C1690.34,1223.77 1688.91,1222.3 1687.84,1220.42C1686.78,1218.54 1686.13,1216.43 1685.92,1214.08C1685.85,1213 1685.81,1212.17 1685.81,1211.59C1685.81,1211.01 1685.85,1210.18 1685.92,1209.1C1686.13,1206.86 1686.78,1204.84 1687.84,1203.03C1688.91,1201.23 1690.33,1199.8 1692.12,1198.75C1693.91,1197.71 1695.98,1197.18 1698.32,1197.18C1702.19,1197.18 1705.24,1198.41 1707.48,1200.87ZM1705.96,1209.26L1705.96,1209.1C1705.96,1206.9 1705.27,1205.14 1703.88,1203.82C1702.49,1202.5 1700.63,1201.84 1698.32,1201.84C1696.23,1201.84 1694.45,1202.51 1692.99,1203.85C1691.53,1205.18 1690.78,1206.93 1690.74,1209.1L1690.74,1209.26L1705.96,1209.26Z" style="fill:rgb(156,160,164);fill-rule:nonzero;"/>
                </g>
            </g>
        </g>
    </g>
</svg>
