<?xml version="1.0" encoding="UTF-8" standalone="no"?>
<!DOCTYPE svg PUBLIC "-//W3C//DTD SVG 1.1//EN" "http://www.w3.org/Graphics/SVG/1.1/DTD/svg11.dtd">
<svg width="100%" height="100%" viewBox="0 0 1076 359" version="1.1" xmlns="http://www.w3.org/2000/svg" xmlns:xlink="http://www.w3.org/1999/xlink" xml:space="preserve" xmlns:serif="http://www.serif.com/" style="fill-rule:evenodd;clip-rule:evenodd;stroke-linejoin:round;stroke-miterlimit:1.41421;">
    <g transform="matrix(1,0,0,1,-7556,-741.7)">
        <g id="Logo02" transform="matrix(0.875404,0,0,0.586136,940.747,580.616)">
            <rect x="7556.8" y="274.824" width="1228.18" height="611.528" style="fill:none;"/>
            <clipPath id="_clip1">
                <rect x="7556.8" y="274.824" width="1228.18" height="611.528"/>
            </clipPath>
            <g clip-path="url(#_clip1)">
                <g transform="matrix(1.14233,0,0,1.70609,5175.91,-250.594)">
                    <g transform="matrix(1,0,0,1,444.337,-424.81)">
                        <path d="M1796,827L1796,805" style="fill:rgb(248,80,19);"/>
                    </g>
                    <g transform="matrix(0.998175,0,0,2.47684,188.195,-294.751)">
                        <path d="M2068.4,275.387C2068.4,273.716 2065.03,272.359 2060.88,272.359L2050.87,272.359C2046.72,272.359 2043.35,273.716 2043.35,275.387L2043.35,283.723C2043.35,285.394 2046.72,286.751 2050.87,286.751L2060.88,286.751C2065.03,286.751 2068.4,285.394 2068.4,283.723L2068.4,275.387Z" style="fill:rgb(248,80,19);"/>
                    </g>
                    <g transform="matrix(0.998175,0,0,2.47684,188.195,-307.344)">
                        <path d="M2068.4,275.387C2068.4,273.716 2065.03,272.359 2060.88,272.359L2050.87,272.359C2046.72,272.359 2043.35,273.716 2043.35,275.387L2043.35,283.723C2043.35,285.394 2046.72,286.751 2050.87,286.751L2060.88,286.751C2065.03,286.751 2068.4,285.394 2068.4,283.723L2068.4,275.387Z" style="fill:rgb(248,80,19);"/>
                    </g>
                </g>
                <g transform="matrix(1.14233,0,0,1.70609,7050.03,-607.054)">
                    <path d="M564.959,557.531C564.959,561.671 561.598,565.031 557.459,565.031L547.459,565.031C543.32,565.031 539.959,561.671 539.959,557.531L539.959,524.291C539.959,520.152 543.319,516.792 547.459,516.791L557.459,516.791C561.598,516.792 564.959,520.152 564.959,524.291L564.959,557.531Z" style="fill:rgb(235,37,1);"/>
                </g>
                <g transform="matrix(1.14233,0,0,1.70609,5175.91,-250.594)">
                    <g transform="matrix(1.91667,0,0,1.91667,-1106.83,-1161.29)">
                        <circle cx="1696" cy="810" r="6" style="fill:rgb(248,80,19);"/>
                    </g>
                    <g transform="matrix(0.998175,0,0,1.72905,92.7321,-92.2778)">
                        <path d="M2068.4,276.677C2068.4,274.294 2065.05,272.359 2060.92,272.359L2050.83,272.359C2046.7,272.359 2043.35,274.294 2043.35,276.677L2043.35,282.434C2043.35,284.817 2046.7,286.751 2050.83,286.751L2060.92,286.751C2065.05,286.751 2068.4,284.817 2068.4,282.434L2068.4,276.677Z" style="fill:rgb(248,80,19);"/>
                    </g>
                </g>
                <g transform="matrix(1.14233,0,0,1.70609,1986.06,-802.365)">
                    <path d="M4990.72,699.696C4994.86,699.696 4998.22,703.057 4998.22,707.196L4998.22,711.901C4998.23,712.093 4998.23,712.307 4998.24,712.602L4998.24,876.602C4997.96,884.478 4989.77,890.813 4982.22,888.596C4977.65,887.253 4974.05,883.102 4973.37,878.381C4973.26,877.595 4973.27,877.394 4973.24,876.602L4973.24,728.428C4973.23,728.235 4973.22,728.039 4973.22,727.843L4973.22,707.196C4973.22,703.057 4976.58,699.696 4980.72,699.696L4990.72,699.696Z" style="fill:rgb(235,37,1);"/>
                </g>
                <g transform="matrix(1.14233,0,0,1.70609,1986.06,-802.365)">
                    <path d="M4942.17,746.918C4946.31,746.918 4949.67,750.279 4949.67,754.418L4949.67,759.312C4949.7,759.614 4949.72,759.917 4949.73,760.221C4949.73,798.983 4949.61,837.746 4949.73,876.508C4949.88,891.602 4960.51,906.01 4974.91,910.493C4987.03,914.268 5001.08,910.965 5010.26,902.205C5017.26,895.536 5021.35,886.014 5021.38,876.258L5021.38,787.401C5021.37,787.21 5021.36,787.017 5021.36,786.822L5021.36,766.175C5021.36,762.036 5024.72,758.676 5028.86,758.675L5038.86,758.675C5043,758.676 5046.36,762.036 5046.36,766.175L5046.36,771.125C5046.36,771.314 5046.37,771.524 5046.38,771.812L5046.38,876.299C5046.33,892.72 5039.4,908.967 5027.52,920.299C5012.36,934.751 4989.45,940.493 4969.28,934.893C4943.99,927.875 4924.82,903.006 4924.73,876.299L4924.73,776.047C4924.69,775.725 4924.67,775.398 4924.67,775.065L4924.67,754.418C4924.67,750.279 4928.03,746.918 4932.17,746.918L4942.17,746.918Z" style="fill:rgb(248,80,19);"/>
                </g>
                <g transform="matrix(1.14233,0,0,1.70609,1986.06,-374.799)">
                    <path d="M4894.74,532.394C4898.88,532.395 4902.24,535.755 4902.24,539.894L4902.24,560.541C4902.24,560.692 4902.24,560.841 4902.23,560.99C4902.2,582.42 4902.14,603.85 4902.24,625.28C4902.46,653.182 4917.72,680.429 4941.38,695.2C4967.56,711.55 5003.06,711.904 5029.42,695.215C5052.21,680.786 5066.19,654.101 5066.24,626.729L5066.24,591.991C5066.28,591.102 5066.32,590.438 5066.39,589.909L5066.39,585.85C5066.39,581.711 5069.75,578.351 5073.89,578.35L5083.89,578.35C5088.03,578.351 5091.39,581.711 5091.39,585.85L5091.39,606.497C5091.39,606.974 5091.35,607.441 5091.26,607.894C5091.27,614.406 5091.28,620.918 5091.24,627.43C5091.04,661.578 5073.95,695.426 5045.2,714.77C5019.39,732.13 4985.71,737.174 4955.69,728.639C4922.26,719.135 4894.18,692.605 4882.92,659.366C4879.15,648.23 4877.26,636.458 4877.24,624.753L4877.24,544.991L4877.24,544.957L4877.24,539.894C4877.24,535.755 4880.6,532.395 4884.74,532.394L4894.74,532.394Z" style="fill:rgb(243,115,51);"/>
                </g>
                <g transform="matrix(1.14233,0,0,1.70609,6416.64,-1371.55)">
                    <path d="M1406.96,1203.68C1408.4,1205.13 1409.13,1206.84 1409.13,1208.83L1409.13,1218.58C1409.13,1220.57 1408.4,1222.28 1406.96,1223.72C1405.52,1225.17 1403.8,1225.89 1401.82,1225.89L1291.59,1225.89C1289.6,1225.89 1287.88,1225.17 1286.44,1223.72C1285,1222.28 1284.27,1220.57 1284.27,1218.58L1284.27,1043.62C1284.27,1041.63 1285,1039.92 1286.44,1038.47C1287.88,1037.03 1289.6,1036.31 1291.59,1036.31L1302.69,1036.31C1304.68,1036.31 1306.39,1037.03 1307.84,1038.47C1309.28,1039.92 1310,1041.63 1310,1043.62L1310,1201.52L1401.82,1201.52C1403.8,1201.52 1405.52,1202.24 1406.96,1203.68Z" style="fill:rgb(58,59,61);fill-rule:nonzero;"/>
                    <g transform="matrix(1,0,0,1,8,0)">
                        <path d="M1443.52,1061.5C1442.08,1062.94 1440.36,1063.66 1438.38,1063.66L1422.94,1063.66C1420.95,1063.66 1419.24,1062.94 1417.79,1061.5C1416.35,1060.05 1415.63,1058.34 1415.63,1056.35L1415.63,1040.91C1415.63,1038.93 1416.35,1037.21 1417.79,1035.77C1419.24,1034.32 1420.95,1033.6 1422.94,1033.6L1438.38,1033.6C1440.36,1033.6 1442.08,1034.32 1443.52,1035.77C1444.97,1037.21 1445.69,1038.93 1445.69,1040.91L1445.69,1056.35C1445.69,1058.34 1444.97,1060.05 1443.52,1061.5ZM1440.82,1223.72C1439.37,1225.17 1437.65,1225.89 1435.67,1225.89L1425.65,1225.89C1423.66,1225.89 1421.95,1225.17 1420.5,1223.72C1419.06,1222.28 1418.34,1220.57 1418.34,1218.58L1418.34,1092.37C1418.34,1090.38 1419.06,1088.67 1420.5,1087.22C1421.95,1085.78 1423.66,1085.06 1425.65,1085.06L1435.67,1085.06C1437.65,1085.06 1439.37,1085.78 1440.82,1087.22C1442.26,1088.67 1442.98,1090.38 1442.98,1092.37L1442.98,1218.58C1442.98,1220.57 1442.26,1222.28 1440.82,1223.72Z" style="fill:rgb(58,59,61);fill-rule:nonzero;"/>
                    </g>
                    <g transform="matrix(1,0,0,1,12,0)">
                        <path d="M1547.66,1087.63C1554.61,1091.15 1560.07,1095.53 1564.04,1100.77L1564.04,1092.37C1564.04,1090.38 1564.77,1088.67 1566.21,1087.22C1567.65,1085.78 1569.37,1085.06 1571.36,1085.06L1581.38,1085.06C1583.36,1085.06 1585.08,1085.78 1586.52,1087.22C1587.97,1088.67 1588.69,1090.38 1588.69,1092.37L1588.69,1224C1588.69,1243.13 1583.27,1258.16 1572.44,1269.09C1561.61,1280.01 1545.72,1285.47 1524.77,1285.47C1511.23,1285.47 1499.86,1283.4 1490.65,1279.25C1481.44,1275.09 1474.62,1269.95 1470.2,1263.81C1465.78,1257.67 1463.38,1251.44 1463.02,1245.12C1462.84,1243.13 1463.52,1241.42 1465.05,1239.97C1466.59,1238.53 1468.35,1237.81 1470.34,1237.81L1478.46,1237.81C1480.63,1237.81 1482.34,1238.35 1483.61,1239.43C1484.87,1240.52 1486.13,1242.41 1487.4,1245.12C1489.2,1249.27 1492.63,1253.15 1497.69,1256.77C1502.75,1260.38 1510.87,1262.18 1522.07,1262.18C1550.05,1262.18 1564.04,1250.54 1564.04,1227.25L1564.04,1210.18C1554.84,1222.46 1540.84,1228.6 1522.07,1228.6C1510.87,1228.6 1500.71,1225.98 1491.6,1220.75C1482.48,1215.51 1475.16,1208.06 1469.66,1198.4C1464.15,1188.74 1461.13,1177.41 1460.59,1164.41L1460.32,1155.47L1460.59,1146.54C1461.13,1133.54 1464.15,1122.21 1469.66,1112.55C1475.16,1102.89 1482.43,1095.44 1491.46,1090.2C1500.49,1084.97 1510.69,1082.35 1522.07,1082.35C1532.18,1082.35 1540.71,1084.11 1547.66,1087.63ZM1496.74,1117.02C1489.79,1124.6 1485.95,1134.89 1485.23,1147.89L1484.96,1155.47L1485.23,1163.06C1485.95,1176.06 1489.79,1186.35 1496.74,1193.93C1503.69,1201.52 1513.04,1205.31 1524.77,1205.31C1536.33,1205.31 1545.63,1201.74 1552.67,1194.61C1559.71,1187.48 1563.5,1177.68 1564.04,1165.22C1564.22,1163.42 1564.32,1160.17 1564.32,1155.47C1564.32,1150.78 1564.22,1147.53 1564.04,1145.72C1563.5,1133.09 1559.71,1123.25 1552.67,1116.2C1545.63,1109.16 1536.33,1105.64 1524.77,1105.64C1513.04,1105.64 1503.69,1109.43 1496.74,1117.02Z" style="fill:rgb(58,59,61);fill-rule:nonzero;"/>
                    </g>
                    <g transform="matrix(1,0,0,1,8,0)">
                        <path d="M1736.02,1223.72C1734.58,1225.17 1732.86,1225.89 1730.88,1225.89L1720.86,1225.89C1718.87,1225.89 1717.15,1225.17 1715.71,1223.72C1714.27,1222.28 1713.54,1220.57 1713.54,1218.58L1713.54,1147.08C1713.54,1133.54 1710.2,1123.25 1703.52,1116.2C1696.84,1109.16 1687.54,1105.64 1675.63,1105.64C1663.89,1105.64 1654.64,1109.16 1647.87,1116.2C1641.1,1123.25 1637.71,1133.54 1637.71,1147.08L1637.71,1218.58C1637.71,1220.57 1636.99,1222.28 1635.54,1223.72C1634.1,1225.17 1632.38,1225.89 1630.4,1225.89L1620.38,1225.89C1618.39,1225.89 1616.68,1225.17 1615.23,1223.72C1613.79,1222.28 1613.07,1220.57 1613.07,1218.58L1613.07,1040.91C1613.07,1038.93 1613.79,1037.21 1615.23,1035.77C1616.68,1034.32 1618.39,1033.6 1620.38,1033.6L1630.4,1033.6C1632.38,1033.6 1634.1,1034.32 1635.54,1035.77C1636.99,1037.21 1637.71,1038.93 1637.71,1040.91L1637.71,1100.77C1641.68,1095.53 1647.14,1091.15 1654.1,1087.63C1661.05,1084.11 1669.58,1082.35 1679.69,1082.35C1691.07,1082.35 1701.18,1084.79 1710.02,1089.66C1718.87,1094.54 1725.78,1101.53 1730.74,1110.65C1735.71,1119.77 1738.19,1130.56 1738.19,1143.02L1738.19,1218.58C1738.19,1220.57 1737.47,1222.28 1736.02,1223.72Z" style="fill:rgb(58,59,61);fill-rule:nonzero;"/>
                    </g>
                    <g transform="matrix(1,0,0,1,8,0)">
                        <path d="M1800.62,1196.37C1803.78,1200.52 1809.78,1202.6 1818.63,1202.6L1832.98,1202.6C1834.97,1202.6 1836.68,1203.32 1838.13,1204.77C1839.57,1206.21 1840.29,1207.93 1840.29,1209.91L1840.29,1218.58C1840.29,1220.57 1839.57,1222.28 1838.13,1223.72C1836.68,1225.17 1834.97,1225.89 1832.98,1225.89L1815.92,1225.89C1800.57,1225.89 1789.29,1221.87 1782.07,1213.84C1774.84,1205.8 1771.23,1194.02 1771.23,1178.5L1771.23,1108.35L1751.19,1108.35C1749.2,1108.35 1747.49,1107.63 1746.04,1106.18C1744.6,1104.74 1743.88,1103.02 1743.88,1101.04L1743.88,1092.37C1743.88,1090.38 1744.6,1088.67 1746.04,1087.22C1747.49,1085.78 1749.2,1085.06 1751.19,1085.06L1771.23,1085.06L1771.23,1040.91C1771.23,1038.93 1771.95,1037.21 1773.4,1035.77C1774.84,1034.32 1776.56,1033.6 1778.54,1033.6L1788.57,1033.6C1790.55,1033.6 1792.27,1034.32 1793.71,1035.77C1795.15,1037.21 1795.88,1038.93 1795.88,1040.91L1795.88,1085.06L1830.27,1085.06C1832.26,1085.06 1833.97,1085.78 1835.42,1087.22C1836.86,1088.67 1837.59,1090.38 1837.59,1092.37L1837.59,1101.04C1837.59,1103.02 1836.86,1104.74 1835.42,1106.18C1833.97,1107.63 1832.26,1108.35 1830.27,1108.35L1795.88,1108.35L1795.88,1178.5C1795.88,1186.26 1797.46,1192.22 1800.62,1196.37Z" style="fill:rgb(58,59,61);fill-rule:nonzero;"/>
                    </g>
                    <g transform="matrix(1,0,0,1,8,0)">
                        <path d="M1952.42,1100.77C1963.61,1113.04 1969.21,1129.75 1969.21,1150.87L1969.21,1158.18C1969.21,1160.17 1968.49,1161.88 1967.04,1163.33C1965.6,1164.77 1963.88,1165.5 1961.9,1165.5L1868.73,1165.5L1868.73,1167.12C1869.09,1179.04 1872.75,1188.38 1879.7,1195.15C1886.65,1201.92 1895.63,1205.31 1906.65,1205.31C1915.68,1205.31 1922.67,1204.13 1927.64,1201.79C1932.6,1199.44 1937.07,1196.1 1941.04,1191.77C1942.49,1190.32 1943.8,1189.33 1944.97,1188.79C1946.14,1188.25 1947.72,1187.97 1949.71,1187.97L1957.84,1187.97C1960,1187.97 1961.81,1188.7 1963.25,1190.14C1964.7,1191.59 1965.33,1193.3 1965.15,1195.29C1964.43,1200.16 1961.76,1205.17 1957.16,1210.32C1952.55,1215.46 1945.96,1219.8 1937.39,1223.32C1928.81,1226.84 1918.57,1228.6 1906.65,1228.6C1895.09,1228.6 1884.8,1225.94 1875.77,1220.61C1866.75,1215.28 1859.57,1207.93 1854.24,1198.54C1848.91,1189.15 1845.71,1178.59 1844.63,1166.85C1844.27,1161.43 1844.09,1157.28 1844.09,1154.39C1844.09,1151.5 1844.27,1147.35 1844.63,1141.93C1845.71,1130.74 1848.91,1120.63 1854.24,1111.6C1859.57,1102.57 1866.7,1095.44 1875.64,1090.2C1884.58,1084.97 1894.91,1082.35 1906.65,1082.35C1925.97,1082.35 1941.22,1088.49 1952.42,1100.77ZM1944.84,1142.75L1944.84,1141.93C1944.84,1130.92 1941.36,1122.12 1934.41,1115.53C1927.46,1108.94 1918.2,1105.64 1906.65,1105.64C1896.18,1105.64 1887.28,1108.98 1879.97,1115.66C1872.66,1122.34 1868.91,1131.1 1868.73,1141.93L1868.73,1142.75L1944.84,1142.75Z" style="fill:rgb(58,59,61);fill-rule:nonzero;"/>
                    </g>
                    <g transform="matrix(1,0,0,1,8,0)">
                        <path d="M2062.38,1087.22C2063.82,1088.67 2064.54,1090.38 2064.54,1092.37L2064.54,1101.04C2064.54,1103.02 2063.82,1104.74 2062.38,1106.18C2060.93,1107.63 2059.22,1108.35 2057.23,1108.35L2041.52,1108.35C2031.41,1108.35 2023.69,1111.01 2018.37,1116.34C2013.04,1121.66 2010.38,1129.38 2010.38,1139.5L2010.38,1218.58C2010.38,1220.57 2009.65,1222.28 2008.21,1223.72C2006.77,1225.17 2005.05,1225.89 2003.07,1225.89L1993.04,1225.89C1991.06,1225.89 1989.34,1225.17 1987.9,1223.72C1986.45,1222.28 1985.73,1220.57 1985.73,1218.58L1985.73,1092.37C1985.73,1090.38 1986.45,1088.67 1987.9,1087.22C1989.34,1085.78 1991.06,1085.06 1993.04,1085.06L2003.07,1085.06C2005.05,1085.06 2006.77,1085.78 2008.21,1087.22C2009.65,1088.67 2010.38,1090.38 2010.38,1092.37L2010.38,1100.77C2013.99,1095.35 2018.32,1091.38 2023.38,1088.85C2028.43,1086.32 2035.02,1085.06 2043.15,1085.06L2057.23,1085.06C2059.22,1085.06 2060.93,1085.78 2062.38,1087.22Z" style="fill:rgb(58,59,61);fill-rule:nonzero;"/>
                    </g>
                </g>
            </g>
        </g>
    </g>
</svg>
