<?xml version="1.0" encoding="UTF-8" standalone="no"?>
<!DOCTYPE svg PUBLIC "-//W3C//DTD SVG 1.1//EN" "http://www.w3.org/Graphics/SVG/1.1/DTD/svg11.dtd">
<svg width="100%" height="100%" viewBox="0 0 216 359" version="1.1" xmlns="http://www.w3.org/2000/svg" xmlns:xlink="http://www.w3.org/1999/xlink" xml:space="preserve" xmlns:serif="http://www.serif.com/" style="fill-rule:evenodd;clip-rule:evenodd;stroke-linejoin:round;stroke-miterlimit:1.41421;">
    <g transform="matrix(1,0,0,1,-7556,-741.7)">
        <g id="Logo02" transform="matrix(0.17529,0,0,0.586136,6231.37,580.616)">
            <rect x="7556.8" y="274.824" width="1228.18" height="611.528" style="fill:none;"/>
            <clipPath id="_clip1">
                <rect x="7556.8" y="274.824" width="1228.18" height="611.528"/>
            </clipPath>
            <g clip-path="url(#_clip1)">
                <g transform="matrix(5.70483,0,0,1.70609,-4333.45,-250.594)">
                    <g transform="matrix(1,0,0,1,444.337,-424.81)">
                        <path d="M1796,827L1796,805" style="fill:rgb(248,80,19);"/>
                    </g>
                    <g transform="matrix(0.998175,0,0,2.47684,188.195,-294.751)">
                        <path d="M2068.4,275.387C2068.4,273.716 2065.03,272.359 2060.88,272.359L2050.87,272.359C2046.72,272.359 2043.35,273.716 2043.35,275.387L2043.35,283.723C2043.35,285.394 2046.72,286.751 2050.87,286.751L2060.88,286.751C2065.03,286.751 2068.4,285.394 2068.4,283.723L2068.4,275.387Z" style="fill:rgb(248,80,19);"/>
                    </g>
                    <g transform="matrix(0.998175,0,0,2.47684,188.195,-307.344)">
                        <path d="M2068.4,275.387C2068.4,273.716 2065.03,272.359 2060.88,272.359L2050.87,272.359C2046.72,272.359 2043.35,273.716 2043.35,275.387L2043.35,283.723C2043.35,285.394 2046.72,286.751 2050.87,286.751L2060.88,286.751C2065.03,286.751 2068.4,285.394 2068.4,283.723L2068.4,275.387Z" style="fill:rgb(248,80,19);"/>
                    </g>
                </g>
                <g transform="matrix(5.70483,0,0,1.70609,5025.98,-607.054)">
                    <path d="M564.959,557.531C564.959,561.671 561.598,565.031 557.459,565.031L547.459,565.031C543.32,565.031 539.959,561.671 539.959,557.531L539.959,524.291C539.959,520.152 543.319,516.792 547.459,516.791L557.459,516.791C561.598,516.792 564.959,520.152 564.959,524.291L564.959,557.531Z" style="fill:rgb(235,37,1);"/>
                </g>
                <g transform="matrix(5.70483,0,0,1.70609,-4333.45,-250.594)">
                    <g transform="matrix(1.91667,0,0,1.91667,-1106.83,-1161.29)">
                        <circle cx="1696" cy="810" r="6" style="fill:rgb(248,80,19);"/>
                    </g>
                    <g transform="matrix(0.998175,0,0,1.72905,92.7321,-92.2778)">
                        <path d="M2068.4,276.677C2068.4,274.294 2065.05,272.359 2060.92,272.359L2050.83,272.359C2046.7,272.359 2043.35,274.294 2043.35,276.677L2043.35,282.434C2043.35,284.817 2046.7,286.751 2050.83,286.751L2060.92,286.751C2065.05,286.751 2068.4,284.817 2068.4,282.434L2068.4,276.677Z" style="fill:rgb(248,80,19);"/>
                    </g>
                </g>
                <g transform="matrix(5.70483,0,0,1.70609,-20263.6,-802.365)">
                    <path d="M4990.72,699.696C4994.86,699.696 4998.22,703.057 4998.22,707.196L4998.22,711.901C4998.23,712.093 4998.23,712.307 4998.24,712.602L4998.24,876.602C4997.96,884.478 4989.77,890.813 4982.22,888.596C4977.65,887.253 4974.05,883.102 4973.37,878.381C4973.26,877.595 4973.27,877.394 4973.24,876.602L4973.24,728.428C4973.23,728.235 4973.22,728.039 4973.22,727.843L4973.22,707.196C4973.22,703.057 4976.58,699.696 4980.72,699.696L4990.72,699.696Z" style="fill:rgb(235,37,1);"/>
                </g>
                <g transform="matrix(5.70483,0,0,1.70609,-20263.6,-802.365)">
                    <path d="M4942.17,746.918C4946.31,746.918 4949.67,750.279 4949.67,754.418L4949.67,759.312C4949.7,759.614 4949.72,759.917 4949.73,760.221C4949.73,798.983 4949.61,837.746 4949.73,876.508C4949.88,891.602 4960.51,906.01 4974.91,910.493C4987.03,914.268 5001.08,910.965 5010.26,902.205C5017.26,895.536 5021.35,886.014 5021.38,876.258L5021.38,787.401C5021.37,787.21 5021.36,787.017 5021.36,786.822L5021.36,766.175C5021.36,762.036 5024.72,758.676 5028.86,758.675L5038.86,758.675C5043,758.676 5046.36,762.036 5046.36,766.175L5046.36,771.125C5046.36,771.314 5046.37,771.524 5046.38,771.812L5046.38,876.299C5046.33,892.72 5039.4,908.967 5027.52,920.299C5012.36,934.751 4989.45,940.493 4969.28,934.893C4943.99,927.875 4924.82,903.006 4924.73,876.299L4924.73,776.047C4924.69,775.725 4924.67,775.398 4924.67,775.065L4924.67,754.418C4924.67,750.279 4928.03,746.918 4932.17,746.918L4942.17,746.918Z" style="fill:rgb(248,80,19);"/>
                </g>
                <g transform="matrix(5.70483,0,0,1.70609,-20263.6,-374.799)">
                    <path d="M4894.74,532.394C4898.88,532.395 4902.24,535.755 4902.24,539.894L4902.24,560.541C4902.24,560.692 4902.24,560.841 4902.23,560.99C4902.2,582.42 4902.14,603.85 4902.24,625.28C4902.46,653.182 4917.72,680.429 4941.38,695.2C4967.56,711.55 5003.06,711.904 5029.42,695.215C5052.21,680.786 5066.19,654.101 5066.24,626.729L5066.24,591.991C5066.28,591.102 5066.32,590.438 5066.39,589.909L5066.39,585.85C5066.39,581.711 5069.75,578.351 5073.89,578.35L5083.89,578.35C5088.03,578.351 5091.39,581.711 5091.39,585.85L5091.39,606.497C5091.39,606.974 5091.35,607.441 5091.26,607.894C5091.27,614.406 5091.28,620.918 5091.24,627.43C5091.04,661.578 5073.95,695.426 5045.2,714.77C5019.39,732.13 4985.71,737.174 4955.69,728.639C4922.26,719.135 4894.18,692.605 4882.92,659.366C4879.15,648.23 4877.26,636.458 4877.24,624.753L4877.24,544.991L4877.24,544.957L4877.24,539.894C4877.24,535.755 4880.6,532.395 4884.74,532.394L4894.74,532.394Z" style="fill:rgb(243,115,51);"/>
                </g>
            </g>
        </g>
    </g>
</svg>
