<svg width="500" height="500" xmlns="http://www.w3.org/2000/svg" display="block"><g fill-rule="evenodd"><path d="M169.6 48c0 .445-2.142.8-4.825.8-3.551 0-4.947.317-5.286 1.2-.253.66-1.322 1.2-2.375 1.2-1.376 0-1.914.446-1.914 1.588 0 .937-2.95 4.512-7.2 8.726-4.252 4.215-7.2 7.789-7.2 8.727 0 .873-.54 1.795-1.2 2.048-.66.254-1.2 1.192-1.2 2.086 0 .894-.36 1.625-.8 1.625-.44 0-.8.54-.8 1.2 0 .66-.388 1.2-.862 1.2-1.119 0-5.538 4.419-5.538 5.538 0 .474-.54.862-1.2.862-.747 0-1.2.756-1.2 2 0 1.1-.36 2-.8 2-.44 0-.8.9-.8 2 0 1.244-.453 2-1.2 2-.66 0-1.2.54-1.2 1.2 0 .66-.386 1.2-.857 1.2-1.412 0-3.143 2.172-3.143 3.943 0 1.58-.427 1.657-9.225 1.657-7.462 0-9.313.229-9.686 1.2-.253.66-1.322 1.2-2.375 1.2-1.168 0-1.914.468-1.914 1.2 0 .843-.851 1.2-2.857 1.2-2.796 0-5.143 1.435-5.143 3.143 0 .471-.9.857-2 .857s-2 .36-2 .8c0 .44-.54.8-1.2.8-.66 0-1.2.54-1.2 1.2 0 .747-.756 1.2-2 1.2s-2 .453-2 1.2c0 .66-.409 1.2-.908 1.2-.5 0-1.743.9-2.762 2-1.02 1.1-2.437 2-3.149 2-1.468 0-3.581 1.854-3.581 3.143 0 .471-.54.857-1.2.857-.66 0-1.2.501-1.2 1.114 0 .613-.54 1.322-1.2 1.575-.945.363-1.205 2.04-1.225 7.886-.026 7.316-.897 10.225-3.063 10.225-1.513 0-1.235 15.926.288 16.511.66.253 1.2 1.169 1.2 2.036 0 1.66 4.068 6.253 5.538 6.253.474 0 .862.386.862.857 0 2.235 2.41 3.143 8.343 3.143 4.851 0 6.057.239 6.057 1.2 0 .978 1.333 1.2 7.2 1.2s7.2-.222 7.2-1.2c0-.747.756-1.2 2-1.2 1.1 0 2-.36 2-.8 0-.44.9-.8 2-.8 1.244 0 2-.453 2-1.2 0-.756.762-1.2 2.057-1.2 2.11 0 4.343-1.616 4.343-3.143 0-.471.54-.857 1.2-.857.747 0 1.2-.756 1.2-2 0-1.928.187-2 5.2-2 3.164 0 5.2-.336 5.2-.857 0-1.399 2.165-3.143 3.903-3.143.89 0 1.941-.577 2.335-1.283 1.025-1.831 4.008.136 4.325 2.852.164 1.405.792 2.11 2.037 2.287 5.142.73.679 1.744-7.678 1.744-9.631 0-12.922.992-12.922 3.894 0 .498-.54.906-1.2.906-.99 0-1.2 1.467-1.2 8.4 0 7.028-.201 8.4-1.231 8.4-1.032 0-1.194 1.132-1 7l.231 7 7.4.23c4.07.127 7.4.577 7.4 1 0 .449 3.839.77 9.2.77h9.2v2c0 1.244.453 2 1.2 2 .66 0 1.2.54 1.2 1.2 0 .66.321 1.2.714 1.2.393 0 .922.54 1.175 1.2.367.956-.265 1.2-3.114 1.2-2.644 0-3.575-.312-3.575-1.2 0-1.806-38.218-1.806-38.911 0-.3.782-1.544 1.2-3.575 1.2-1.713 0-3.114.36-3.114.8 0 .44-.731.8-1.625.8s-1.832.54-2.086 1.2c-.253.66-.962 1.2-1.575 1.2s-1.114.386-1.114.857c0 1.108-2.035 3.143-3.143 3.143-.546 0-.857 2.613-.857 7.2 0 5.867.222 7.2 1.2 7.2.843 0 1.2.851 1.2 2.862 0 2.844 3.448 7.538 5.538 7.538.474 0 .862.54.862 1.2 0 .997 1.556 1.2 9.2 1.2h9.2v-2c0-1.8.32-2 3.2-2 1.76 0 3.2.36 3.2.8 0 .441 2.242.828 5 .863 2.75.035 4.55.245 4 .467-.588.237-1 1.859-1 3.937 0 3.055-.433 3.966-3.2 6.733-1.76 1.76-3.2 3.74-3.2 4.4 0 .66-.36 1.2-.8 1.2-.44 0-.8.54-.8 1.2 0 .747-.756 1.2-2 1.2-1.1 0-2 .36-2 .8 0 .463-2.542.8-6.025.8-4.618 0-6.133.28-6.486 1.2-.253.66-1.322 1.2-2.375 1.2-1.168 0-1.914.468-1.914 1.2 0 .66-.386 1.2-.857 1.2-1.108 0-3.143 2.035-3.143 3.143 0 .471-.54.857-1.2.857-.747 0-1.2.756-1.2 2s-.453 2-1.2 2c-.66 0-1.2.54-1.2 1.2 0 .66-.36 1.2-.8 1.2-.44 0-.8.9-.8 2 0 1.244-.453 2-1.2 2-.66 0-1.2.51-1.2 1.133 0 .624-.45 1.284-1 1.468-.748.249-1 3.763-1 13.924 0 17.553-.814 16.577 14.142 16.952 6.082.152 11.058.602 11.058 1s4.14.723 9.2.723c7.644 0 9.2-.203 9.2-1.2 0-.66.54-1.2 1.2-1.2.66 0 1.2-.36 1.2-.8 0-.44.9-.8 2-.8 1.176 0 2-.459 2-1.114 0-.613.54-1.322 1.2-1.575.66-.254 1.2-1.192 1.2-2.086 0-.894.36-1.625.8-1.625.44 0 .8-1.8.8-4 0-3.733.133-4 2-4 1.244 0 2-.453 2-1.2 0-.867.889-1.2 3.2-1.2s3.2-.333 3.2-1.2c0-.944 1.111-1.2 5.2-1.2 2.933 0 5.2-.349 5.2-.8 0-.44 1.782-.8 3.96-.8 2.74 0 4.174-.381 4.652-1.236.552-.986 1.968-1.189 6.987-1 5.896.221 6.21.321 4.948 1.579-.761.758-1.347 2.586-1.347 4.2 0 1.571-.388 2.857-.862 2.857-1.044 0-5.538 4.384-5.538 5.403 0 .4-.9 1.208-2 1.797s-2 1.55-2 2.135c0 .586-.54 1.065-1.2 1.065-1.022 0-1.2 2.133-1.2 14.4s.178 14.4 1.2 14.4c.66 0 1.2.54 1.2 1.2 0 1.015 1.911 1.2 12.4 1.2s12.4-.185 12.4-1.2c0-.997 1.556-1.2 9.2-1.2 5.6 0 9.2-.313 9.2-.8 0-.44.731-.8 1.625-.8s1.832-.54 2.086-1.2c.3-.782 1.544-1.2 3.575-1.2 2.235 0 3.114-.339 3.114-1.2 0-.66.54-1.2 1.2-1.2.747 0 1.2-.756 1.2-2 0-1.6.4-2 2-2 1.791 0 2-.326 2-3.114 0-2.031.418-3.275 1.2-3.575.66-.254 1.2-1.192 1.2-2.086 0-1.895 1.22-2.169 1.889-.425.353.92 1.868 1.2 6.486 1.2 3.483 0 6.025.337 6.025.8 0 .483 3.333.8 8.4.8 6.933 0 8.4.21 8.4 1.2 0 1.044 3.644 1.2 28 1.2s28-.156 28-1.2c0-.907.978-1.2 4-1.2 2.2 0 4-.36 4-.8 0-.44 1.811-.8 4.025-.8 2.84 0 4.161-.353 4.486-1.2.279-.728 1.489-1.2 3.077-1.2 1.439 0 3.064-.54 3.612-1.2.548-.66 1.672-1.2 2.498-1.2.826 0 1.502-.36 1.502-.8 0-.44.9-.8 2-.8 1.244 0 2-.453 2-1.2 0-.867.889-1.2 3.2-1.2 1.76 0 3.2-.36 3.2-.8 0-.44 1.271-.8 2.825-.8 1.773 0 2.997-.447 3.286-1.2.253-.66 1.322-1.2 2.375-1.2 1.168 0 1.914-.468 1.914-1.2 0-.747.756-1.2 2-1.2 1.1 0 2-.36 2-.8 0-.44.9-.8 2-.8 1.244 0 2-.453 2-1.2 0-.867.889-1.2 3.2-1.2 1.76 0 3.2-.335 3.2-.744 0-.41.81-.86 1.8-1 1.735-.247 1.808-.596 2.025-9.656l.226-9.4h-5.226c-2.95 0-5.225-.348-5.225-.8 0-.451-2.267-.8-5.2-.8-4.089 0-5.2-.256-5.2-1.2s-1.111-1.2-5.2-1.2c-2.86 0-5.2-.321-5.2-.713 0-.393-.9-.939-2-1.216-1.1-.276-2-.855-2-1.286 0-.432-1.401-.785-3.114-.785-2.031 0-3.275-.418-3.575-1.2-.254-.66-1.192-1.2-2.086-1.2-.894 0-1.625-.36-1.625-.8 0-.44-.9-.8-2-.8-1.244 0-2-.453-2-1.2 0-.66-.501-1.2-1.114-1.2-.613 0-1.322-.54-1.575-1.2-.316-.822-1.602-1.2-4.086-1.2-3.333 0-3.625-.161-3.625-2 0-1.8-.32-2-3.2-2h-3.2v-13.514c0-11.275-.199-13.591-1.2-13.975-.66-.254-1.2-1.192-1.2-2.086 0-1.324-.519-1.625-2.8-1.625-1.54 0-2.8-.36-2.8-.8 0-.44-1.44-.8-3.2-.8-2.962 0-4.654-1.745-2.457-2.533.82-.294 1.015-4.97.92-22.067l-.063-11.4h-2c-1.1 0-2-.36-2-.8 0-.44-1.44-.8-3.2-.8-3.022 0-3.2-.133-3.2-2.4 0-1.6.4-2.4 1.2-2.4.66 0 1.2-.36 1.2-.8 0-.44.54-.8 1.2-.8.66 0 1.2-.455 1.2-1.01 0-.556.9-1.686 2-2.512 1.965-1.476 2-1.697 2-12.59V155.2h-4.314c-3.097 0-4.445-.339-4.775-1.2-.254-.66-1.181-1.2-2.062-1.2-1.506 0-1.614-.605-1.825-10.2L290 132.4l-3.8-.244c-2.09-.134-3.8-.584-3.8-1 0-.416-1.44-.756-3.2-.756H276v-3.2c0-2.311-.333-3.2-1.2-3.2-.907 0-1.2-.978-1.2-4 0-2.2-.36-4-.8-4-.44 0-.8-1.811-.8-4.025 0-2.84-.353-4.161-1.2-4.486-.84-.322-1.2-1.633-1.2-4.375 0-2.153-.36-3.914-.8-3.914-.44 0-.8-1.271-.8-2.825 0-1.773-.447-2.997-1.2-3.286-.66-.253-1.2-1.322-1.2-2.375 0-1.168-.468-1.914-1.2-1.914-.867 0-1.2-.889-1.2-3.2 0-1.76-.36-3.2-.8-3.2-.44 0-.8-.9-.8-2 0-1.244-.453-2-1.2-2-.744 0-1.2-.754-1.2-1.985 0-1.45-.539-2.12-2-2.486-1.1-.277-2-.823-2-1.216 0-.392-2.88-.713-6.4-.713-4.018 0-6.4-.319-6.4-.857 0-1.083-2.025-3.143-3.09-3.143-.442 0-.918-.99-1.057-2.2-.231-2.01-.577-2.221-4.003-2.442-3.163-.204-3.789-.517-4-2-.177-1.244-.893-1.832-2.45-2.011-1.21-.139-2.2-.589-2.2-1 0-.411-1.8-.747-4-.747-3.022 0-4-.293-4-1.2 0-.747-.756-1.2-2-1.2-1.1 0-2-.321-2-.713 0-.393-.9-.939-2-1.216-1.1-.276-2-.855-2-1.286 0-.432-1.44-.785-3.2-.785-2.311 0-3.2-.333-3.2-1.2 0-.921-1.022-1.2-4.4-1.2-2.42 0-4.4-.36-4.4-.8 0-.499-4.667-.8-12.4-.8-7.733 0-12.4.301-12.4.8m16.286 12.4c.781.781 2.764 1.2 5.682 1.2 3.246 0 4.609.331 4.943 1.2.282.735 1.495 1.2 3.127 1.2 1.467 0 2.89.36 3.162.8.272.44 1.204.8 2.072.8.868 0 1.785.54 2.039 1.2.253.66 1.19 1.2 2.083 1.2.892 0 2.457.9 3.476 2 1.454 1.568 2.639 2 5.492 2 2.7 0 3.638.309 3.638 1.2 0 .747.756 1.2 2 1.2 1.1 0 2 .36 2 .8 0 .44.776.8 1.724.8.97 0 3.054 1.398 4.768 3.2 1.674 1.76 3.61 3.2 4.301 3.2.691 0 1.464.54 1.718 1.2.312.814 1.588 1.2 3.965 1.2 3.761 0 6.724 1.798 6.724 4.08 0 .728.54 1.772 1.2 2.32.66.548 1.2 2.007 1.2 3.242 0 1.721.421 2.307 1.8 2.502 1.568.223 1.831.797 2.042 4.456.133 2.31.551 4.2.929 4.2.379 0 .932 1.44 1.229 3.2.297 1.76.869 3.2 1.27 3.2.402 0 .73 2.116.73 4.702 0 3.204.382 5.019 1.2 5.698.66.548 1.2 2.011 1.2 3.251 0 1.24.36 2.477.8 2.749.496.306.8 7.446.8 18.762 0 15.499.182 18.337 1.2 18.727.962.369 1.2 2.138 1.2 8.911s-.238 8.542-1.2 8.911c-.66.253-1.2.962-1.2 1.575 0 .655-.824 1.114-2 1.114-1.1 0-2 .321-2 .713 0 .393-.9.939-2 1.216-1.876.47-2 .823-2 5.686v5.185h4c2.2 0 4 .36 4 .8 0 .44.707.8 1.572.8 1.736 0 3.228 2.194 3.228 4.747 0 .909.36 1.653.8 1.653.44 0 .8.54.8 1.2 0 .66.41 1.2.912 1.2 2 0 3.038 2.913 3.063 8.6.02 4.611.271 5.8 1.225 5.8.66 0 1.2.398 1.2.885s.9 1.593 2 2.458c1.879 1.478 2 2.026 2 9.08v7.507l4.4 4.435c2.42 2.439 4.4 4.903 4.4 5.474 0 1.162 6.075 7.761 7.144 7.761.377 0 .892.54 1.145 1.2.254.66 1.061 1.2 1.794 1.2.734 0 2.168.9 3.187 2 1.02 1.1 2.591 2 3.492 2 .901 0 1.638.36 1.638.8 0 .44.731.8 1.625.8s1.832.54 2.086 1.2c.253.66 1.322 1.2 2.375 1.2 1.168 0 1.914.468 1.914 1.2 0 .66.54 1.2 1.2 1.2.66 0 1.2.36 1.2.8 0 .44 1.271.8 2.825.8 1.773 0 2.997.447 3.286 1.2.253.66 1.322 1.2 2.375 1.2s1.914.321 1.914.713c0 .393.9.939 2 1.216 1.1.276 2 .855 2 1.286 0 .432.9.785 2 .785 1.244 0 2 .453 2 1.2 0 .867.889 1.2 3.2 1.2 1.76 0 3.2.36 3.2.8 0 .44.861.8 1.914.8s2.122.54 2.375 1.2c.333.866 1.689 1.2 4.877 1.2 3.022 0 4.924.435 6.025 1.378 2.267 1.941 2.102 4.222-.305 4.222-1.053 0-2.122.54-2.375 1.2-.273.71-1.475 1.2-2.943 1.2-1.365 0-3.022.54-3.682 1.2-.66.66-2.255 1.2-3.543 1.2-1.289 0-2.343.36-2.343.8 0 .44-.861.8-1.914.8s-2.122.54-2.375 1.2c-.254.66-1.171 1.2-2.039 1.2-.868 0-1.8.36-2.072.8-.272.44-1.695.8-3.162.8-1.632 0-2.845.465-3.127 1.2-.308.802-1.597 1.208-3.886 1.225-1.884.014-4.124.554-4.978 1.2-.854.646-2.924 1.175-4.6 1.175-1.676 0-3.047.36-3.047.8 0 .515-8.4.8-23.6.8-12.98 0-23.6-.307-23.6-.682 0-.375-3.14-.923-6.978-1.218-3.838-.295-7.33-.888-7.76-1.318-.43-.43-2.881-.782-5.447-.782-3.409 0-4.789-.323-5.126-1.2-.322-.84-1.633-1.2-4.375-1.2-2.153 0-3.914-.36-3.914-.8 0-.44-1.35-.789-3-.775-3.09.027-5.8 1.458-5.8 3.063 0 .502-.321.912-.713.912-.393 0-.939.9-1.216 2-.276 1.1-.855 2-1.286 2-.432 0-.785.9-.785 2 0 1.244-.453 2-1.2 2-.66 0-1.2.417-1.2.927 0 1.824-7.48 7.873-9.735 7.873-1.194 0-2.393.36-2.665.8-.281.454-4.262.8-9.207.8-7.115 0-8.843.232-9.422 1.266-.458.819-1.531 1.172-3.04 1-3.385-.386-3.885-6.213-.78-9.091 1.136-1.052 2.049-2.781 2.049-3.88 0-2.28 4.711-7.695 6.694-7.695.719 0 1.306-.587 1.306-1.306 0-2.726 5.436-6.694 9.171-6.694 2.336 0 3.607-.389 3.918-1.2.339-.883 1.735-1.2 5.286-1.2 2.683 0 4.825-.355 4.825-.8 0-.44 1.44-.8 3.2-.8h3.2V284h-2.885c-2.124 0-3.299-.527-4.458-2-1.048-1.333-2.367-2-3.953-2-1.511 0-3.057-.73-4.234-2-1.897-2.047-20.47-3.237-20.47-1.312 0 .378-6.014.87-13.364 1.093-8.919.271-13.465.707-13.667 1.312-.166.499-1.134.907-2.15.907s-2.055.54-2.308 1.2c-.339.883-1.735 1.2-5.286 1.2-2.683 0-4.825.355-4.825.8 0 .44-1.216.8-2.702.8s-3.15.54-3.698 1.2c-.608.732-2.361 1.2-4.498 1.2-3.202 0-3.502.171-3.502 2 0 1.244-.453 2-1.2 2-.905 0-1.2.973-1.2 3.953 0 2.174-.36 4.175-.8 4.447-.44.272-.8 1.155-.8 1.962 0 .807-.569 1.685-1.265 1.952-2.464.946-23.964.537-24.975-.474-1.859-1.859-1.187-9.611 1.04-12.013 1.1-1.187 2-2.494 2-2.906 0-1.448 7.52-8.921 8.977-8.921.81 0 1.68-.54 1.934-1.2.361-.942 1.989-1.2 7.575-1.2 6.233 0 7.117-.173 7.137-1.4.023-1.335 4.211-6.6 5.251-6.6.272 0 1.204-.9 2.069-2s2.177-2.015 2.915-2.034c.738-.019 2.225-1.099 3.304-2.4 1.08-1.301 2.61-2.366 3.4-2.366.791 0 1.438-.36 1.438-.8 0-.44.54-.8 1.2-.8.66 0 1.2-.455 1.2-1.01 0-.556.9-1.686 2-2.512 1.1-.826 2-2.028 2-2.67 0-1.99 5.249-6.608 7.511-6.608 2.9 0 5.289-2.297 5.289-5.086 0-1.458.749-3.024 2-4.184 2.492-2.309 3.187-23.703.8-24.619-.66-.254-1.2-1.192-1.2-2.086 0-.894-.36-1.625-.8-1.625-.44 0-.8-.861-.8-1.914s-.54-2.122-1.2-2.375c-.66-.254-1.2-1.192-1.2-2.086 0-1.53.49-1.625 8.4-1.625h8.4v-10.169l-5.4-.51c-2.97-.28-8.55-.512-12.4-.515l-7-.006v-4.506c0-4.112.244-4.735 2.8-7.146l2.8-2.641-.025-16.253c-.02-12.247-.288-16.599-1.089-17.654-1.307-1.722-5.862-1.821-8.039-.175-2.085 1.577-9.548 1.56-11.133-.025-1.634-1.635-9.794-1.635-11.428 0-.836.836-2.883 1.2-6.743 1.2-3.162 0-5.543.344-5.543.8 0 .495-4.267.8-11.2.8H92.8v4.343c0 2.794-.428 4.771-1.2 5.543-.66.66-1.2 1.765-1.2 2.457 0 1.597-2.823 4.457-4.4 4.457-.867 0-1.2-.889-1.2-3.2 0-2.751-.244-3.2-1.737-3.2-5.052 0-7.083-13.173-2.663-17.27 1.1-1.02 2-2.262 2-2.761 0-2.156 5.144-6.369 7.776-6.369 2.26 0 2.624-.275 2.624-1.985 0-1.4.538-2.12 1.829-2.444 1.006-.252 2.176-1.249 2.6-2.215.611-1.392 1.558-1.806 4.571-2 2.09-.134 3.8-.584 3.8-1 0-.416.861-.756 1.914-.756s2.122-.54 2.375-1.2c.37-.963 2.15-1.2 9.023-1.2 9.001 0 11.488-.868 11.488-4.012 0-.75.9-2.04 2-2.866 1.1-.826 2-1.956 2-2.512 0-.555.54-1.01 1.2-1.01.747 0 1.2-.756 1.2-2 0-1.1.36-2 .8-2 .44 0 .8-.731.8-1.625s.54-1.832 1.2-2.086c.66-.253 1.2-.962 1.2-1.575 0-.655.824-1.114 2-1.114 1.711 0 2-.365 2-2.524 0-1.904.786-3.272 3.2-5.568 1.76-1.674 3.2-3.778 3.2-4.676 0-.917.525-1.632 1.2-1.632.664 0 1.2-.71 1.2-1.591 0-2.597 2.473-4.809 5.378-4.809 2.263 0 2.622-.273 2.622-2 0-1.244.453-2 1.2-2 .66 0 1.2-.54 1.2-1.2 0-.738.749-1.2 1.944-1.2 1.408 0 2.015-.497 2.2-1.8.214-1.507.827-1.841 3.764-2.051 1.93-.139 4.026-.769 4.658-1.4 1.528-1.528 7.775-1.494 9.32.051m-38.686 104c0 .66-.54 1.2-1.2 1.2-.66 0-1.2.54-1.2 1.2 0 2.253-2.216 1.219-2.571-1.2-.331-2.256-.193-2.4 2.31-2.4 1.832 0 2.661.374 2.661 1.2m138.911 2.4c.253.66 1.322 1.2 2.375 1.2 2.739 0 2.426 2.048-.806 5.28-1.923 1.923-3.446 2.72-5.2 2.72-1.364 0-2.48.385-2.48.856 0 .47-.81.74-1.8.6-1.808-.257-3.083-7.602-1.868-10.766.614-1.601 9.159-1.504 9.779.11m5.142 34.828c2.04 1.092 2.318 13.486.347 15.458-.66.66-1.2 1.97-1.2 2.912 0 2.445-3.501 1.902-3.856-.598-.14-.99-.59-1.8-1-1.8-.409 0-.744-2.301-.744-5.114 0-3.809-.306-5.232-1.2-5.575-1.459-.56-1.619-5.009-.2-5.581 1.786-.721 6.266-.551 7.853.298M136 220.8c0 .44 1.054.8 2.343.8 1.288 0 2.883.54 3.543 1.2.66.66 2.485 1.2 4.057 1.2 2.006 0 2.857.357 2.857 1.2 0 .907.978 1.2 4 1.2 3.286 0 3.995.25 3.975 1.4-.031 1.676-1.82 4.2-2.978 4.2-.454 0-1.033.54-1.286 1.2-.254.66-1.023 1.2-1.711 1.2-.688 0-1.457-.54-1.711-1.2-.284-.74-1.5-1.2-3.175-1.2-1.493 0-2.714-.36-2.714-.8 0-.477-3.048-.8-7.543-.8-5.638 0-7.846-.303-8.743-1.2-1.905-1.905-21.141-1.734-22.577.2-.981 1.322-1.117 1.324-2.43.03-1.796-1.77-.397-5.43 2.076-5.43.889 0 1.617-.314 1.617-.698 0-.384 1.44-.928 3.2-1.209 1.76-.282 3.2-.868 3.2-1.302 0-.486 4.629-.791 12-.791 7.467 0 12 .302 12 .8m56.6 1.687c-1.21 1.308-2.2 2.942-2.2 3.63 0 .689-.9 1.961-2 2.826-1.438 1.131-2 2.343-2 4.315 0 1.904-.367 2.742-1.2 2.742-.66 0-1.2.356-1.2.791 0 1.367-2.696 4.009-4.091 4.009-.757 0-1.553.866-1.838 2-.276 1.1-.855 2-1.286 2-1.394 0-.945 7.767.48 8.314 2.311.887 7.207.503 8.782-.689 2.95-2.231 15.798-1.666 17.631.775 1.013 1.35 2.285 2.004 3.912 2.014 1.514.009 3.11.752 4.294 2 2.21 2.329 8.968 2.849 10.973.843 2.661-2.66.517-9.257-3.008-9.257-.674 0-1.901-.9-2.727-2-1.07-1.425-2.26-2-4.137-2-1.604 0-2.815-.469-3.096-1.2-.253-.66-.962-1.2-1.575-1.2s-1.114-.36-1.114-.8c0-.44-1.771-.8-3.935-.8-6.039 0-9.379-3.842-5.354-6.16.611-.352 1.244-1.36 1.406-2.24.54-2.922 10.348-1.753 11.75 1.4.592 1.334 10.72.648 11.819-.8 2.831-3.729.691-9-3.654-9-1.468 0-2.67-.49-2.943-1.2-.3-.782-1.544-1.2-3.575-1.2-1.713 0-3.114-.36-3.114-.8 0-2.239-14.719-.778-17 1.687M300.511 239.6c.253.66 1.322 1.2 2.375 1.2 1.849 0 1.914.205 1.914 6 0 5.219-.185 6-1.424 6-1.728 0-6.576-4.963-6.576-6.731 0-.698-.36-1.269-.8-1.269-.44 0-.8-.54-.8-1.2 0-.66-.54-1.2-1.2-1.2-1.447 0-1.614-2.9-.2-3.47 2.231-.9 6.263-.498 6.711.67"/><path d="M179.411 59.774c1.216.184 3.016.179 4-.011s-.011-.34-2.211-.334c-2.2.006-3.005.161-1.789.345m-34.312 27.8c-.247.645-.264 1.635-.038 2.2.227.564.441.246.476-.707.035-.954.513-1.915 1.063-2.137.783-.316.778-.417-.025-.467-.564-.035-1.228.465-1.476 1.111m107.853 9.721c.743.222 1.507 1.286 1.697 2.364.303 1.715.334 1.685.248-.242-.069-1.578-.551-2.249-1.697-2.364-1.155-.116-1.224-.049-.248.242m-94.769 42.766c.685.879 1.054 6.217 1.218 17.6l.234 16.339.183-16.502c.164-14.896.046-16.609-1.218-17.6-1.236-.969-1.285-.95-.417.163m-39.183.518c1.43.177 3.77.177 5.2 0 1.43-.178.26-.323-2.6-.323-2.86 0-4.03.145-2.6.323m23.214.001c1.438.178 3.598.174 4.8-.008 1.202-.183.026-.329-2.614-.324-2.64.004-3.624.154-2.186.332M92.24 147.2c0 2.42.15 3.41.333 2.2.183-1.21.183-3.19 0-4.4-.183-1.21-.333-.22-.333 2.2m172.16 27.6c0 4.976.27 8.88.6 8.676.33-.204.6-4.108.6-8.676 0-4.568-.27-8.472-.6-8.676-.33-.204-.6 3.7-.6 8.676m12.133-8.667c-.735.735-.675 10.484.067 10.946.33.205.479-2.147.331-5.227l-.268-5.601 4.794.274c2.637.151 4.627.005 4.422-.325-.462-.742-8.612-.801-9.346-.067m12.667 3.791c0 1.058.27 1.756.6 1.552.33-.204.6-1.069.6-1.923 0-.854-.27-1.553-.6-1.553-.33 0-.6.866-.6 1.924m-116.189 18.65c1.216.184 3.016.179 4-.011s-.011-.34-2.211-.334c-2.2.006-3.005.161-1.789.345M285.4 201.365c.99.19 2.61.19 3.6 0 .99-.191.18-.347-1.8-.347s-2.79.156-1.8.347m6.594 7.671l.394 7.364.24-6.726c.133-3.699-.045-7.012-.394-7.363-.349-.351-.457 2.675-.24 6.725m-24.521-3.898c.072 1.319.65 2.479 1.327 2.661.802.216.895.104.281-.338-.506-.364-1.103-1.561-1.327-2.661-.351-1.722-.39-1.675-.281.338m-68.873 14.65c2.09.165 5.51.165 7.6 0s.38-.3-3.8-.3-5.89.135-3.8.3m-67.176 10.401c2.103.165 5.343.163 7.2-.004 1.857-.168.136-.303-3.824-.301-3.96.002-5.479.14-3.376.305m65.688 5.353c-.241.628-.304 1.978-.14 3 .219 1.367.404 1.065.702-1.142.419-3.106.197-3.838-.562-1.858m97.288 3.174c0 .174 1.41.45 3.133.615 1.723.164 2.961.022 2.752-.316-.38-.615-5.885-.895-5.885-.299m-94.2 1.857c1.21.183 3.19.183 4.4 0 1.21-.183.22-.333-2.2-.333-2.42 0-3.41.15-2.2.333m95.78 3.954c.451.223.82 1.075.82 1.892 0 .818.33 1.69.732 1.939.426.263.491-.45.157-1.701-.317-1.184-1.016-2.239-1.553-2.345-.537-.106-.607-.009-.156.215m-79.769 15.247c1.216.184 3.016.179 4-.011s-.011-.34-2.211-.334c-2.2.006-3.005.161-1.789.345m90.115 9.337c1.001 1.206 5.097 2.297 4.403 1.173-.233-.376-1.122-.684-1.976-.684-.854 0-1.553-.36-1.553-.8 0-.44-.404-.8-.898-.8-.652 0-.645.304.024 1.111m-113.717 6.655c.995.191 2.435.184 3.2-.016.765-.201-.049-.357-1.809-.348-1.76.009-2.386.172-1.391.364m-77.588.821c1.882.169 4.762.166 6.4-.005 1.639-.172.099-.311-3.421-.308-3.52.003-4.86.144-2.979.313m204.179-.278c0 .17 1.061.465 2.358.655 1.297.191 2.175.052 1.953-.309-.397-.641-4.311-.955-4.311-.346m-160.191 1.857c.995.191 2.435.184 3.2-.016.765-.201-.049-.357-1.809-.348-1.76.009-2.386.172-1.391.364M148.4 281.6l-4 .549 3.753.125c2.064.069 3.975-.234 4.247-.674.272-.44.383-.743.247-.674-.136.069-2.047.372-4.247.674m-51.344 15.2c0 2.86.145 4.03.323 2.6.177-1.43.177-3.77 0-5.2-.178-1.43-.323-.26-.323 2.6m4.768 6.189c2.103.165 5.343.163 7.2-.004 1.857-.168.136-.303-3.824-.301-3.96.002-5.479.14-3.376.305M257 309.373c1.21.183 3.19.183 4.4 0 1.21-.183.22-.333-2.2-.333-2.42 0-3.41.15-2.2.333m55.6-.008c.99.19 2.61.19 3.6 0 .99-.191.18-.347-1.8-.347s-2.79.156-1.8.347" fill="#0f240f"/><path d="M185.498 61c.799 1.019 2.106 1.362 4.8 1.26l3.702-.14-3.584-.315c-1.972-.173-4.132-.74-4.8-1.26-1.062-.826-1.077-.768-.118.455M171 62.165c.99.19 2.61.19 3.6 0 .99-.191.18-.347-1.8-.347s-2.79.156-1.8.347m45.2 10.386c.77.202 2.03.202 2.8 0 .77-.201.14-.365-1.4-.365s-2.17.164-1.4.365m-101.991 41.615c.995.191 2.435.184 3.2-.016.765-.201-.049-.357-1.809-.348-1.76.009-2.386.172-1.391.364m144.377 2.634c0 1.54.164 2.17.365 1.4.202-.77.202-2.03 0-2.8-.201-.77-.365-.14-.365 1.4m4.149 28c0 8.58.118 12.09.261 7.8.144-4.29.144-11.31 0-15.6-.143-4.29-.261-.78-.261 7.8M79.36 136.96c-.609.609-.902 3.169-.801 7l.159 6.04.279-5.964c.154-3.281.667-6.431 1.139-7 1.082-1.304.508-1.36-.776-.076m35.44 3.84c-.272.44-1.283.842-2.247.893-1.331.07-1.419.18-.368.456.762.199 2.192-.203 3.178-.893.986-.691 1.374-1.256.862-1.256-.512 0-1.153.36-1.425.8M254.648 194c.004 2.64.154 3.624.332 2.186.178-1.438.174-3.598-.008-4.8-.183-1.202-.329-.026-.324 2.614m-88.848 5.783c1.65.172 4.35.172 6 0 1.65-.173.3-.314-3-.314s-4.65.141-3 .314m92-.032c.77.202 2.03.202 2.8 0 .77-.201.14-.365-1.4-.365s-2.17.164-1.4.365m15.186 15.449c0 1.54.164 2.17.365 1.4.202-.77.202-2.03 0-2.8-.201-.77-.365-.14-.365 1.4m11.948-.8c-.046 1.1.445 2.699 1.091 3.553.646.854 1.175 1.196 1.175.76 0-.436-.33-1.135-.732-1.553-.403-.418-.894-1.66-1.091-2.76l-.359-2-.084 2m-116.642 8.4c.002 4.4.137 6.098.299 3.773.162-2.325.16-5.925-.004-8s-.297-.173-.295 4.227m-49.692-2.207c2.97.154 7.83.154 10.8 0 2.97-.154.54-.28-5.4-.28s-8.37.126-5.4.28m-7.2 7.198c2.53.159 6.67.159 9.2 0 2.53-.159.46-.288-4.6-.288s-7.13.129-4.6.288m90.4 3.16c.77.202 2.03.202 2.8 0 .77-.201.14-.365-1.4-.365s-2.17.164-1.4.365M279.469 236c0 3.3.141 4.65.314 3 .172-1.65.172-4.35 0-6-.173-1.65-.314-.3-.314 3m-65.287-1.023c1.42.177 3.94.18 5.6.007 1.66-.173.498-.318-2.582-.321-3.08-.004-4.438.138-3.018.314m89.958 12.756c-.083 2.442-.549 4.299-1.14 4.537-.783.316-.778.417.025.467 1.452.089 1.924-1.614 1.565-5.645l-.31-3.492-.14 4.133M191 251.786c1.87.168 4.93.168 6.8 0 1.87-.169.34-.306-3.4-.306-3.74 0-5.27.137-3.4.306m119.263 19.525c.999 1.329 5.245 2.635 4.466 1.373-.233-.376-1.05-.684-1.816-.684s-1.898-.45-2.514-1c-.944-.842-.966-.792-.136.311m-123.254 4.455c.995.191 2.435.184 3.2-.016.765-.201-.049-.357-1.809-.348-1.76.009-2.386.172-1.391.364m10.791-.015c.77.202 2.03.202 2.8 0 .77-.201.14-.365-1.4-.365s-2.17.164-1.4.365m-56.553 7.074c-1.997 1.511-1.256 1.502 1.662-.02 1.26-.657 1.751-1.186 1.091-1.175-.66.012-1.899.549-2.753 1.195m78.993 6.775c0 2.42.15 3.41.333 2.2.183-1.21.183-3.19 0-4.4-.183-1.21-.333-.22-.333 2.2m130.96-.488c0 .172 1.235.457 2.744.633 1.509.176 2.568.036 2.353-.312-.387-.627-5.097-.923-5.097-.321m-137.24 6.842c-.418.415-2.74.888-5.16 1.052l-4.4.298 4.502.148c3.169.104 4.797-.207 5.498-1.052 1.094-1.319.77-1.647-.44-.446m28.249 11.012c.995.191 2.435.184 3.2-.016.765-.201-.049-.357-1.809-.348-1.76.009-2.386.172-1.391.364m34.439 4.032c6.297.136 16.377.135 22.4 0 6.024-.136.872-.247-11.448-.246-12.32 0-17.248.111-10.952.246M178.586 324c0 1.54.164 2.17.365 1.4.202-.77.202-2.03 0-2.8-.201-.77-.365-.14-.365 1.4m15.614 1.379c1.43.177 3.77.177 5.2 0 1.43-.178.26-.323-2.6-.323-2.86 0-4.03.145-2.6.323" fill="#194019"/><path d="M176.737 61.4c-.902 1.191-.892 1.251.062.4.616-.55 2.597-1 4.401-1 1.804 0 3.785.45 4.401 1 .954.851.964.791.062-.4-.717-.948-2.158-1.4-4.463-1.4s-3.746.452-4.463 1.4m-8.485 2.4c-.274.77-.679 1.726-.899 2.124-.22.398.015.466.523.152.508-.314.924-1.067.924-1.675 0-.687 1.133-1.223 3-1.418l3-.314-3.025-.135c-2.238-.099-3.155.23-3.523 1.266m21.559-.826c1.216.184 3.016.179 4-.011s-.011-.34-2.211-.334c-2.2.006-3.005.161-1.789.345M197 64.551c.77.202 2.03.202 2.8 0 .77-.201.14-.365-1.4-.365s-2.17.164-1.4.365m5.04 1.114c.534.863 5.912 3.455 6.308 3.04.16-.168-1.29-1.076-3.222-2.018-1.933-.943-3.321-1.402-3.086-1.022m-38.444 2.34c-2.045 2.26-1.175 2.47.975.235.975-1.012 1.48-1.84 1.124-1.84-.356 0-1.301.722-2.099 1.605m47.543 2.69c1.067 1.158 2.507 2.063 3.2 2.012 1.001-.073.972-.168-.139-.458-.77-.202-1.4-.613-1.4-.915 0-.302-.81-1.043-1.8-1.647-1.737-1.059-1.732-1.023.139 1.008M155.215 74.6c-2.002 3.082-3.257 5.625-2.934 5.948.17.17.907-.951 1.638-2.491.731-1.54 2.118-3.353 3.083-4.028 1.185-.83 1.369-1.229.568-1.229-.652 0-1.711.81-2.355 1.8m63.185-1.265c1.33.453 6.46 2.684 7.4 3.218.33.188.6.149.6-.087 0-.69-6.581-3.672-7.95-3.603-1.074.054-1.081.121-.05.472M230.8 80c1.719 1.76 3.305 3.2 3.525 3.2.22 0-1.006-1.44-2.725-3.2-1.719-1.76-3.305-3.2-3.525-3.2-.22 0 1.006 1.44 2.725 3.2m-83 6.034c-1.21 1.422-2.2 3.328-2.2 4.236 0 .908-.63 2.017-1.4 2.466-1.242.723-1.252.818-.086.84 1.353.025 2.286-1.526 2.286-3.798 0-.71.964-2.296 2.142-3.526 1.178-1.229 1.988-2.363 1.8-2.519-.188-.156-1.332.879-2.542 2.301m89.291-1.629c1.261.657 3.421 1.207 4.8 1.222 2.705.028 6.109 2.336 6.109 4.141 0 .612.332 1.454.738 1.872.407.418.857 1.84 1 3.16.169 1.548.888 2.675 2.024 3.173 1.122.493 1.875 1.655 2.072 3.2l.31 2.427.128-2.62c.103-2.118-.255-2.765-1.872-3.38-1.513-.575-2-1.338-2-3.133 0-1.305-.36-2.595-.8-2.867-.44-.272-.8-1.092-.8-1.822 0-2.279-3.945-4.978-7.277-4.978-1.666 0-3.251-.36-3.523-.8-.272-.44-1.103-.798-1.847-.795-.856.003-.511.444.938 1.2m-96.649 10.749c-.773.854-1.218 2.024-.987 2.6.322.805.433.785.482-.091.035-.625.659-1.795 1.387-2.6.728-.805 1.144-1.463.924-1.463-.22 0-1.033.699-1.806 1.554m-2.682 5.006c-.528.528-.96 1.365-.96 1.861 0 .495-.9 1.746-2 2.779s-2 2.189-2 2.567c0 .845 4.022-3.891 5.407-6.367 1.124-2.01.985-2.272-.447-.84m118.426 9.44c0 1.54.164 2.17.365 1.4.202-.77.202-2.03 0-2.8-.201-.77-.365-.14-.365 1.4m-126.557 2.765c-.617.744-2.894 1.266-6.298 1.443l-5.331.279 5.276.156c4.384.13 5.521-.114 6.724-1.443.796-.88 1.256-1.6 1.022-1.6-.234 0-.861.524-1.393 1.165m128.173 3.235c.009 1.76.172 2.386.364 1.391.191-.995.184-2.435-.016-3.2-.201-.765-.357.049-.348 1.809m-149.002.067c-1.233.684-1.524 1.114-.76 1.121.682.007 1.582-.324 2-.735.418-.41 2.2-.89 3.96-1.065l3.2-.319-3.2-.056c-1.76-.031-4.1.443-5.2 1.054M97.852 119.8c-.274.77-.679 1.726-.899 2.124-.22.398.015.466.523.152.508-.314.924-1.066.924-1.673 0-.643 1.081-1.236 2.6-1.424l2.6-.323-2.625-.128c-1.854-.09-2.772.283-3.123 1.272m160.641.753c-.051.964.267 1.975.707 2.247.44.272.8 1.481.8 2.687 0 1.206.334 2.535.743 2.953.409.418.891 2.02 1.072 3.56l.329 2.8.128-2.953c.07-1.624-.232-3.175-.672-3.447-.44-.272-.8-1.481-.8-2.687 0-1.206-.325-2.535-.722-2.953-.398-.418-.896-1.48-1.108-2.36-.355-1.48-.391-1.468-.477.153M93.76 123.36c-.528.528-.96 1.402-.96 1.941 0 .54-.63 1.146-1.4 1.348-1.317.344-1.315.371.02.458.814.053 1.73-.724 2.148-1.823.401-1.054 1.202-2.106 1.78-2.337.579-.231.674-.449.212-.484-.462-.035-1.272.369-1.8.897m-8.527 6.252c-1.302 1.276-2.202 2.457-2 2.624.202.166 1.612-.898 3.134-2.367 1.522-1.468 2.422-2.648 2-2.623-.422.025-1.832 1.09-3.134 2.366m-5.874 13.894c-.163 6.463 1.149 9.294 4.305 9.294.56 0 1.183.63 1.385 1.4.344 1.317.371 1.315.458-.02.052-.798-.71-1.725-1.74-2.116-3.01-1.145-3.676-2.638-3.97-8.9l-.279-5.964-.159 6.306m53.441-5.34c2.86.142 5.939.635 6.841 1.096.903.461 3.423.701 5.6.533l3.959-.307-4.553-.144c-2.504-.079-4.775-.504-5.047-.944-.272-.44-3.083-.731-6.247-.646l-5.753.154 5.2.258m17.315.049c-.209.338 1.066.477 2.833.308 1.768-.169 4.078.156 5.133.72L160 140.27l.183 16.865.183 16.865.234-16.784c.232-16.638.218-16.796-1.583-18.182-1.833-1.411-8.176-1.995-8.902-.819m-28.515.985l-5.2.524 4.953.138c2.724.076 5.175-.222 5.447-.662.272-.44.383-.738.247-.662-.136.076-2.587.374-5.447.662m-29.867 2.933c-.293.294-.533 2.217-.533 4.275 0 4.006-3.084 10.953-4.703 10.592-.493-.11-.897.16-.897.6 0 1.17 1.257.977 2.37-.363 2.337-2.816 4.03-7.43 4.03-10.982v-3.806l9.8-.251 9.8-.252-9.667-.173c-5.316-.095-9.906.067-10.2.36m170.795 20.42c-.07 1.624.232 3.175.672 3.447.447.276.8 4.027.8 8.504 0 8.025-.423 9.409-3.214 10.504-.996.391-.982.476.09.529 3.398.168 6.118-16.573 3.181-19.577-.409-.418-.891-2.02-1.072-3.56l-.329-2.8-.128 2.953m14.601 4.942c-.231.603-.286 3.033-.122 5.4l.297 4.305.148-5 .148-5h3.553c1.954 0 3.775.36 4.047.8.272.44 1.193.8 2.047.8 1.987 0 1.965.856-.078 3.049-.897.963-1.299 1.751-.892 1.751 1.099 0 3.465-3.923 2.909-4.823-.264-.427-1.158-.777-1.986-.777-.828 0-1.728-.36-2-.8-.767-1.242-7.576-.993-8.071.295M154.56 179.36c-.528.528-.897 2.598-.82 4.6l.14 3.64.315-3.584c.173-1.972.694-4.042 1.158-4.6 1.069-1.289.481-1.33-.793-.056m102.04 7.569c-1.21.637-2.172 1.589-2.137 2.115.046.695.173.683.467-.044.222-.55.869-1 1.439-1 .569 0 1.483-.54 2.031-1.2 1.164-1.402 1.097-1.397-1.8.129m-96 .865c3.19.152 8.41.152 11.6 0 3.19-.152.58-.276-5.8-.276s-8.99.124-5.8.276m17.954 5.553c-.15 5.609-.207 5.755-2.354 6.08l-2.2.333 2.225.12c2.776.15 3.129-.765 2.77-7.164l-.287-5.116-.154 5.747m-16.154 7.064c0 .399 1.147 2.751 2.529 5.189.375.66.892 1.74 1.149 2.4.257.66.776 1.92 1.153 2.8.378.88.843 2.32 1.035 3.2.309 1.419.359 1.396.441-.211.051-.996-.241-2.436-.649-3.2-.407-.764-.945-1.929-1.195-2.589-.249-.66-.759-1.74-1.134-2.4-2.794-4.926-2.89-4.696 2.089-5.009l4.582-.288-5-.152c-2.75-.083-5 .034-5 .26m97.6.166c1.1.197 2.342.688 2.76 1.091.418.402 1.408.732 2.2.732 1.023 0 1.44.612 1.44 2.111 0 1.35 1.153 3.36 3.2 5.582 1.76 1.909 3.2 3.19 3.2 2.846 0-.344-1.26-1.846-2.8-3.339-1.903-1.845-2.8-3.44-2.8-4.982 0-1.462-.498-2.422-1.4-2.702-.77-.238-2.025-.767-2.789-1.174-.764-.408-2.204-.693-3.2-.633-1.683.101-1.67.134.189.468m23.169 2.384c-.933 1.23-.929 1.293.03.439.616-.55 2.695-1 4.618-1h3.497l-.257 7.164c-.141 3.94.028 6.876.377 6.525s.529-3.664.4-7.363L291.6 202l-3.67-.239c-2.787-.181-3.933.108-4.761 1.2m1.849 6.639c0 1.98.156 2.79.347 1.8.19-.99.19-2.61 0-3.6-.191-.99-.347-.18-.347 1.8m-12.084 10.673c-.107 2.457.419 3.719 2.63 6.302 2.382 2.783 2.804 3.908 3.046 8.128l.282 4.897.154-4.856c.142-4.478-.059-5.105-2.589-8.061-1.842-2.151-2.85-4.237-3.066-6.344l-.322-3.139-.135 3.073m16.36-1.052c-.558 1.882-.622 1.9-1.284.379-.57-1.307-.708-1.352-.754-.247-.031.744.263 1.55.653 1.791.955.59 2.727-1.635 2.307-2.896-.185-.554-.6-.116-.922.973m-87.3-.223c3.957.149 7.539.615 7.96 1.036.421.421 1.123.766 1.559.766.436 0 .094-.529-.76-1.175-1.136-.859-3.487-1.137-8.753-1.035l-7.2.139 7.194.269m-32.965 4.602c.006 2.2.161 3.005.345 1.789.184-1.216.179-3.016-.011-4s-.34.011-.334 2.211m22.174-1.603c-1.032 1.098-1.725 2.126-1.539 2.284.185.157 1.312-.741 2.504-1.997 1.193-1.256 1.886-2.284 1.54-2.284-.346 0-1.473.899-2.505 1.997m-73.003-.603c3.19.152 8.41.152 11.6 0 3.19-.152.58-.276-5.8-.276s-8.99.124-5.8.276m95.4-.072c.66.217 1.956.761 2.881 1.208.924.447 2.544.65 3.6.45 1.562-.295 1.444-.382-.634-.471-1.404-.06-2.775-.469-3.047-.909-.272-.44-1.283-.772-2.247-.737-1.107.04-1.311.209-.553.459m-108 2.667c-.66.383-1.83.89-2.6 1.128-1.457.45-1.933 3.259-.683 4.032.394.243 1.744-.093 3-.748 1.448-.756 1.788-1.193.93-1.196-.744-.003-1.575.355-1.847.795-.836 1.353-2 .887-2-.8 0-1.032.533-1.6 1.502-1.6.826 0 1.95-.54 2.498-1.2 1.114-1.343.952-1.426-.8-.411m36.489.156c.223.36 1.42.655 2.66.655 1.24 0 2.703.54 3.251 1.2.58.699 2.326 1.2 4.184 1.2 2.504 0 3.089.257 2.727 1.2-.254.66-.086 1.2.373 1.2 2.65 0-.02-2.826-2.891-3.059-1.756-.143-3.733-.729-4.393-1.303-1.336-1.161-6.549-2.126-5.911-1.093m80.311-.345c0 .498.36 1.128.8 1.4.44.272.8 2.072.8 4s-.36 3.728-.8 4c-.44.272-.8.902-.8 1.4 0 .498.529.207 1.175-.647s1.174-2.993 1.174-4.753c0-1.76-.528-3.899-1.174-4.753-.646-.854-1.175-1.145-1.175-.647m-109.8 3.186c1.87.168 4.93.168 6.8 0 1.87-.169.34-.306-3.4-.306-3.74 0-5.27.137-3.4.306m75.8.026c-.44.324-1.329 1.308-1.976 2.188-.868 1.182-.607 1.093 1-.339 1.958-1.746 2.554-2.484 1.976-2.449-.11.007-.56.277-1 .6m-56.976 2.377c2.103.165 5.343.163 7.2-.004 1.857-.168.136-.303-3.824-.301-3.96.002-5.479.14-3.376.305m21.153 2.377c-1.067 1.066-1.577 1.154-2.331.4-.531-.531-1.704-.924-2.606-.873-1.607.091-1.608.101-.04.486.88.216 2.07.775 2.644 1.241.769.626 1.498.393 2.777-.886.954-.954 1.552-1.734 1.328-1.734-.223 0-1.021.615-1.772 1.366m15.609 1.034c0 1.54.164 2.17.365 1.4.202-.77.202-2.03 0-2.8-.201-.77-.365-.14-.365 1.4m16.723.117c-.069 1.334-1.155 3.036-2.937 4.6-1.555 1.366-2.526 2.483-2.157 2.483 1.733 0 5.907-5.485 5.562-7.308-.341-1.799-.364-1.788-.468.225m17.491-1.151c2.332.258 6.35 1.681 9 3.187.33.188.6.149.6-.087 0-1.065-6.986-3.653-9.55-3.538l-2.85.128 2.8.31m-3.972 3.781c-1.766 3.301-.637 4.473 4.147 4.305l4.225-.148-4.2-.294c-4.349-.304-5.526-1.764-3.253-4.037.52-.52.761-1.132.534-1.358-.226-.227-.88.463-1.453 1.532m16.972.226c1.21.183 3.19.183 4.4 0 1.21-.183.22-.333-2.2-.333-2.42 0-3.41.15-2.2.333m-50.44 1.987c-.528.528-.911 1.878-.851 3l.109 2.04.368-2c.202-1.1.737-2.45 1.189-3 1.048-1.276.45-1.305-.815-.04m129 2.305c-.294.476.405 1.845 1.553 3.044 1.148 1.198 2.087 2.544 2.087 2.991 0 1.304 4.436 5.902 5.671 5.879.621-.012.141-.634-1.066-1.383-1.208-.749-2.721-2.468-3.363-3.821-.642-1.353-1.904-3.126-2.805-3.941-.9-.815-1.637-1.786-1.637-2.158 0-.954 4.601-.845 5.2.124.272.44.902.8 1.4.8.498 0 .207-.529-.647-1.175-1.828-1.382-5.629-1.596-6.393-.36m-117.568 2.638c-.819 1.728-1.194 4.254-1.037 7L175.6 254l5.119.241c2.853.135 5.491-.131 5.96-.6 1.634-1.634 13.991-1.028 16.798.825l2.523 1.666-2.4-2.062c-2.552-2.192-15.619-3.18-16.8-1.27-.272.44-2.813.8-5.647.8H176v-4.753c0-2.614.317-4.948.703-5.187.699-.432 1.81-3.66 1.26-3.66-.159 0-.865 1.216-1.571 2.703m32.347-.879c1.067 1.197 2.687 2.134 3.6 2.083 1.611-.09 1.613-.105.061-.492-.88-.22-1.78-.628-2-.908-.22-.279-1.12-1.036-2-1.683-1.182-.868-1.093-.607.339 1m70.554 1.078c-.051.936.537 2.196 1.307 2.8 1.218.955 1.281.942.486-.102-.503-.66-1.091-1.92-1.307-2.8-.374-1.52-.398-1.515-.486.102M217.2 245.93c1.32 1.134 2.73 2.064 3.133 2.066.868.005.859-.003-2.733-2.321l-2.8-1.807 2.4 2.062m-62.843 2.67l-2.757 3 2.8-2.502c1.54-1.376 3.34-2.697 4-2.937 1.038-.376 1.032-.443-.043-.498-.684-.035-2.484 1.287-4 2.937m128.043-1.161c0 .278 1.037 1.688 2.304 3.133 1.268 1.445 2.486 3.348 2.708 4.228l.402 1.6.06-1.6c.033-.88-1.186-3.01-2.707-4.733-1.522-1.724-2.767-2.906-2.767-2.628m-59.716 1.917c1.088 1.287 1.408 2.709 1.2 5.324-.156 1.962-.014 3.4.316 3.196 1.461-.903.593-7.234-1.2-8.752l-1.8-1.524 1.484 1.756m-74.644 7.002l-3.56 4.042 3.921-3.772c2.157-2.074 3.759-3.893 3.56-4.042-.198-.149-1.963 1.549-3.921 3.772m60.284.217c.838.215 2.454 1.253 3.592 2.308 2.06 1.91 9.804 2.858 10.763 1.317.205-.33-1.665-.482-4.156-.339-4.01.231-4.751.025-6.466-1.8-1.065-1.133-2.683-2.019-3.596-1.968-1.519.085-1.531.126-.137.482m-67.413 5.052c-2.48 2.066-1.36 2.042 1.271-.027 1.118-.88 1.715-1.588 1.326-1.573-.389.014-1.558.734-2.597 1.6m155.107 1.994c.538.649 1.411 1.179 1.941 1.179.529 0 1.808.9 2.841 2 1.033 1.1 2.232 2 2.664 2 1.102 0-3.396-3.809-6.144-5.202-2.006-1.016-2.163-1.014-1.302.023M134.6 265.927c-.99 1.044-1.8 2.17-1.8 2.503 0 .332.835-.297 1.855-1.398 1.021-1.101 2.371-2.205 3-2.454.959-.378.95-.46-.055-.501-.66-.027-2.01.805-3 1.85m-5.079 5.19c-1.143 1.174-2.513 3.023-3.044 4.109-.922 1.885-.908 1.902.294.374.693-.88 2.197-2.605 3.344-3.834 2.686-2.879 2.15-3.465-.594-.649m176.481-1.513c.237.382 1.509 1.233 2.827 1.891 1.319.658 2.205.883 1.969.501-.237-.382-1.509-1.233-2.827-1.891-1.319-.658-2.205-.883-1.969-.501M315.55 275c1.761 1.949 2.963 2.57 4.8 2.48l2.45-.12-2.4-.342c-1.32-.188-3.48-1.304-4.8-2.48l-2.4-2.138 2.35 2.6m-125.35-.014c1.87.168 4.93.168 6.8 0 1.87-.169.34-.306-3.4-.306-3.74 0-5.27.137-3.4.306m12.2.779c.66.241 1.978 1.145 2.929 2.009.95.864 2.39 1.4 3.2 1.191 1.274-.329 1.247-.392-.205-.472-.922-.051-2.328-.813-3.124-1.693-.796-.88-2.022-1.572-2.724-1.537-1.083.054-1.094.13-.076.502m-92 2.643c-1.54.788-3.699 2.459-4.797 3.713l-1.997 2.279 2.397-2.103c3.711-3.256 7.497-4.624 13.597-4.916l5.6-.268-6-.069c-4.302-.05-6.792.336-8.8 1.364m53-1.013c3.41.15 8.99.15 12.4 0s.62-.273-6.2-.273-9.61.123-6.2.273m-9.6 1.83c-2.679 1.077-2.178 1.624.6.655 1.32-.46 2.4-.981 2.4-1.158 0-.475-.974-.312-3 .503m56.667.175c.183.11 1.413 1.1 2.733 2.2l2.4 2-1.939-2.2c-1.067-1.21-2.297-2.2-2.734-2.2-.436 0-.644.09-.46.2m116.335.604c.237.382 1.509 1.233 2.827 1.891 1.319.658 2.205.883 1.969.501-.237-.382-1.509-1.233-2.827-1.891-1.319-.658-2.205-.883-1.969-.501m-180.991 1.37c1.216.184 3.016.179 4-.011s-.011-.34-2.211-.334c-2.2.006-3.005.161-1.789.345M135.6 284c-.272.44-1.643.849-3.047.909-2.078.089-2.196.176-.634.471 1.056.2 2.676-.011 3.6-.467.925-.457 2.401-.987 3.281-1.179 1.189-.259 1.048-.372-.553-.441-1.184-.051-2.375.267-2.647.707m199.159.44c1.297.676 3.097 1.083 4 .904 1.247-.248 1.125-.352-.512-.435-1.184-.06-2.375-.469-2.647-.909-.272-.44-1.103-.798-1.847-.795-.839.003-.457.472 1.006 1.235m-232.795 2.16c-.299.99-1.423 2.74-2.497 3.889-1.692 1.809-1.921 2.72-1.71 6.8L98 302l7.6.043 7.6.044-7.4-.273-7.4-.272v-4.647c0-3.637.349-4.963 1.606-6.1 1.897-1.717 4.171-5.995 3.187-5.995-.377 0-.93.81-1.229 1.8m239.534.071c.604.731 1.753 1.329 2.553 1.329s1.677.36 1.949.8c.272.44 1.643.751 3.047.691 2.12-.09 2.214-.164.553-.433-1.997-.324-4.576-1.301-7.6-2.88-1.431-.747-1.484-.694-.502.493M125.76 289.76c-.528.528-.902 2.238-.832 3.8l.128 2.84.337-2.797c.186-1.538.712-3.248 1.17-3.8 1.062-1.278.465-1.311-.803-.043m229.377.852c2.628 1.341 2.948 2.79.709 3.217l-1.846.353 1.825.109c1.004.06 2.039-.448 2.3-1.129.518-1.349-1.758-3.502-3.725-3.525-.66-.007-.328.431.737.975M220 294.267c0 .513-1.036.933-2.302.933s-2.779.63-3.361 1.4c-.902 1.191-.892 1.251.062.4.616-.55 2.108-1 3.314-1 2.15 0 3.716-1.238 2.767-2.187-.264-.264-.48-.06-.48.454m128.574 2.226c-.271.271-1.681.774-3.133 1.118-2.297.544-2.374.636-.594.707 1.126.045 2.746-.447 3.6-1.093.854-.646 1.343-1.186 1.086-1.2-.256-.014-.688.197-.959.468M203.6 298.4c-.272.44-1.463.842-2.647.893-1.538.066-1.723.203-.648.479.828.212 2.268-.001 3.2-.474.932-.473 3.315-.986 5.295-1.139l3.6-.279-4.153-.14c-2.284-.077-4.375.22-4.647.66m-81.2 2.267c0 .513-.99.982-2.2 1.042-2.019.1-2.045.138-.308.468 1.947.369 4.028-.924 3.055-1.897-.301-.301-.547-.127-.547.387M222.924 303c-.204.33 1.254.471 3.241.312 1.987-.158 4.41.14 5.385.661.975.522 3.005.799 4.511.616 2.581-.314 2.546-.34-.614-.461-1.844-.07-3.575-.488-3.847-.928-.571-.924-8.121-1.098-8.676-.2m-2.931 2.836c-2.547 3.917-3.308 5.655-1.999 4.569.663-.551 1.206-1.378 1.206-1.84 0-.461.598-1.5 1.328-2.307.731-.807 1.167-1.629.97-1.827-.197-.197-.875.435-1.505 1.405M327.6 304.8c-.272.44-1.643.849-3.047.909-2.078.089-2.196.176-.634.471 1.056.2 2.676-.011 3.6-.467.925-.457 2.401-.987 3.281-1.179 1.189-.259 1.048-.372-.553-.441-1.184-.051-2.375.267-2.647.707m-86.6 1.351c.77.202 2.03.202 2.8 0 .77-.201.14-.365-1.4-.365s-2.17.164-1.4.365m-51.4 1.61c-2.315.84-6.399 5.369-6.307 6.996.091 1.606.101 1.607.478.043.478-1.987 4.178-6 5.531-6 .552 0 1.226-.36 1.498-.8.539-.872.544-.871-1.2-.239m68.8.835c2.86.159 5.542.629 5.96 1.046 1.05 1.048 45.792 1.007 46.44-.042.272-.44 2.003-.861 3.847-.934l3.353-.135-3.105-.32c-1.708-.176-3.49.064-3.96.534-1.137 1.137-45.834 1.19-46.535.055-.272-.44-2.903-.731-5.847-.646l-5.353.154 5.2.288m-42.337 4.231c-.094 1.836-8.164 9.395-10.463 9.802l-2 .353 2.025.109c2.424.13 11.636-8.641 10.932-10.409-.328-.825-.446-.79-.494.145m-35.058 6.234c-2.622 3.144-2.531 8.139.148 8.139 1.074 0 2.175-.36 2.447-.8.272-.44 2.363-.865 4.647-.944l4.153-.144-3.912-.305c-2.151-.167-4.293.078-4.76.545-3.367 3.367-5.307-2.568-1.992-6.097.956-1.017 1.583-2.003 1.395-2.191-.189-.188-1.145.62-2.126 1.797" fill="#245924"/><path d="M176 62.067c-1.1.61-3.17 1.115-4.6 1.121-1.752.008-2.6.397-2.6 1.191 0 .649-1.074 1.735-2.386 2.414-1.313.679-2.942 2.308-3.621 3.621-.679 1.312-1.865 2.386-2.636 2.386-2.353 0-4.762 2.23-6.706 6.209-1.018 2.085-3.018 5.051-4.444 6.591-1.426 1.54-2.596 3.401-2.6 4.135-.012 2.352-.94 3.865-2.369 3.865-1.71 0-3.173 1.713-5.467 6.4-.969 1.98-3.024 4.99-4.567 6.688-1.542 1.699-2.804 3.533-2.804 4.076 0 2.443-2.857 3.426-11.399 3.922-4.729.274-9.229.832-10 1.239-3.733 1.973-7.44 3.275-9.322 3.275-1.299 0-2.079.443-2.079 1.179 0 .649-1.034 1.715-2.298 2.368-1.264.654-2.491 1.923-2.725 2.821-.28 1.067-1.088 1.632-2.335 1.632-2.035 0-7.842 4.892-7.842 6.606 0 .555-.72 1.459-1.6 2.008-3.857 2.409-1.933 14.836 2.542 16.417.739.261 1.459 1.407 1.6 2.547.655 5.267 5.22-1.743 5.618-8.628l.24-4.15 11.2-.4c6.16-.22 11.74-.756 12.4-1.192 2.395-1.579 22.985-3.343 24.251-2.077 1.091 1.091 9.881 1.149 10.549.069.779-1.261 6.653-.933 8.828.492l1.972 1.292v33.282l-3.2 3.432c-2.704 2.899-3.2 3.964-3.2 6.867v3.435h11.135c14.271 0 13.665-.286 13.665 6.438 0 6.521.469 6.148-8.598 6.833-6.349.479-7.191.714-6.598 1.839.373.71.883 1.83 1.133 2.49.249.66.773 1.74 1.165 2.4 2.412 4.063 2.765 6.129 2.765 16.211 0 10.395-.045 10.667-2.134 12.921-1.173 1.266-2.133 3.086-2.133 4.045 0 2.038-2.744 4.791-5.6 5.619-2.249.653-7.2 5.05-7.2 6.394 0 1.634-12.795 12.41-14.735 12.41-.513 0-6.759 6.326-10.193 10.323-1.997 2.325-2.467 2.477-7.65 2.477-7.78 0-17.022 5.453-17.022 10.043 0 .483-.9 1.724-2 2.757-1.679 1.577-2 2.61-2 6.43v4.55l9.472.39c14.676.605 16.928-.532 16.928-8.55 0-1.499.382-2.962.849-3.25.467-.289 1.171-1.371 1.564-2.405.518-1.361 1.551-2.013 3.751-2.366 1.67-.267 3.661-.827 4.425-1.243.764-.416 2.073-.756 2.909-.756.835 0 2.55-.538 3.811-1.195 1.26-.657 3.802-1.197 5.649-1.2 2.037-.003 4.837-.792 7.119-2.005 3.493-1.857 4.556-2 14.892-2 8.139 0 12.205-.352 15.13-1.308 5.628-1.841 17.623-1.183 20.145 1.105.966.876 2.836 1.846 4.156 2.155 1.32.309 3.3 1.409 4.4 2.443 1.1 1.035 3.08 1.999 4.4 2.143l2.4.262v6c0 5.801-.066 6.008-2 6.246-1.1.136-3.134.766-4.521 1.4-1.386.635-4.155 1.154-6.153 1.154-1.997 0-3.854.36-4.126.8-.272.44-1.653.8-3.069.8-3.707 0-7.378 2.656-9.123 6.6-.536 1.21-1.454 2.2-2.041 2.2-1.699 0-5.149 4.166-5.728 6.917-.291 1.384-1.229 3.15-2.084 3.924-2.16 1.955-2.161 6.759-.002 6.759.854 0 1.775-.36 2.047-.8.275-.445 4.107-.813 8.647-.828 5.556-.02 8.79-.393 10.153-1.172 1.1-.629 2.732-1.156 3.627-1.172 2.178-.038 9.224-7.518 11.419-12.122 3.23-6.778 11.722-11.041 14.154-7.106.272.44 1.892.8 3.6.8 1.708 0 3.302.318 3.542.706.24.388 2.777.956 5.638 1.262 2.862.307 5.408.889 5.659 1.295.25.405 3.473.737 7.161.737 3.688 0 6.928.36 7.2.8.311.503 8.926.8 23.2.8s22.889-.297 23.2-.8c.272-.44 2.072-.8 4-.8s3.722-.35 3.986-.777c.264-.427 2.273-1.015 4.465-1.305 2.192-.291 4.178-.841 4.414-1.223.236-.382 1.444-.695 2.684-.695 1.24 0 2.703-.54 3.251-1.2.548-.66 1.402-1.194 1.898-1.187.496.006 2.702-.869 4.902-1.946 2.2-1.076 6.247-2.612 8.993-3.412 2.746-.8 4.996-1.725 5-2.055.004-.33.757-.6 1.674-.6.976 0 1.53-.414 1.336-1-.535-1.622-3.957-2.976-7.556-2.988-1.844-.007-3.575-.372-3.847-.812-.272-.44-1.149-.8-1.949-.8s-1.903-.54-2.451-1.2c-.548-.66-1.794-1.2-2.77-1.2-1.691 0-8.487-3.185-13.63-6.388-1.32-.822-3.503-1.521-4.85-1.554-1.628-.038-3.222-.864-4.75-2.458-1.265-1.32-2.717-2.4-3.227-2.4-1.257 0-5.83-2.321-6.404-3.251-.255-.412-1.099-.749-1.877-.749-.777 0-2.259-.9-3.292-2s-2.293-2-2.799-2c-1.205 0-10.801-9.312-10.801-10.481 0-.496-1.801-2.981-4.002-5.522l-4.003-4.62-.517-7.284c-.48-6.759-.71-7.51-3.197-10.416-2.407-2.812-2.681-3.631-2.681-8.022 0-4.594-.194-5.101-3.2-8.362-2.047-2.222-3.2-4.232-3.2-5.582 0-1.514-.415-2.111-1.467-2.111-.806 0-1.734-.27-2.061-.6-.327-.33-2.277-.961-4.334-1.403l-3.738-.803-.234-5.724-.233-5.724 3.833-1.873c2.109-1.03 4.284-2.297 4.834-2.816 1.18-1.113 1.419-16.299.274-17.497-.399-.418-.851-8.754-1.004-18.525-.201-12.78-.558-18.043-1.275-18.76-.547-.547-.995-1.931-.995-3.075 0-1.144-.358-2.438-.795-2.875-.437-.437-1.029-3.029-1.314-5.76-.285-2.731-.828-4.965-1.205-4.965-.377 0-.686-1.039-.686-2.309 0-1.269-.538-3.339-1.195-4.6-.657-1.26-1.197-3.196-1.2-4.301-.003-1.315-.628-2.284-1.805-2.8-1.174-.516-1.891-1.624-2.062-3.19-.143-1.32-.593-2.742-1-3.16-.406-.418-.738-1.26-.738-1.872 0-1.789-3.395-4.113-6.05-4.141-3.379-.037-8.219-2.544-11.507-5.962-1.516-1.576-3.064-2.865-3.439-2.865s-2.194-.735-4.043-1.634c-1.848-.899-4.872-1.845-6.718-2.103-2.048-.286-4.052-1.209-5.14-2.366-.98-1.043-2.204-1.897-2.72-1.897-1.265 0-5.837-2.317-6.414-3.251-.255-.412-1.702-.749-3.216-.749-1.514 0-2.753-.36-2.753-.8 0-.44-1.71-.802-3.8-.805-2.09-.003-4.831-.543-6.091-1.2-2.796-1.458-7.412-1.425-10.109.072m101.6 110.031c0 3.815.221 4.72 1 4.092.55-.443 2.26-1.075 3.799-1.405 4.128-.884 8.26-5.985 4.848-5.985-.854 0-1.775-.36-2.047-.8-.272-.44-2.093-.8-4.047-.8H277.6v4.898m6.045 31.03c-.579.935.308 3.272 1.241 3.272.393 0 .714 1.904.714 4.231 0 2.611.596 5.399 1.555 7.281l1.556 3.051 1.244-2.979c.769-1.841 1.245-5.389 1.245-9.282V202.4h-3.553c-1.954 0-3.755.328-4.002.728m-72.892 16.497c.854.646 2.363 1.175 3.353 1.175.99 0 2.022.36 2.294.8.272.44 1.539.8 2.816.8 5.142 0 7.685 7.843 3.871 11.937-2.174 2.334-8.835 2.055-14.237-.595-4.614-2.264-8.85-2.354-8.85-.189 0 .854-.36 1.775-.8 2.047-2.429 1.501-.752 3.6 2.877 3.6 3.352 0 8.323 1.961 8.323 3.283 0 .297 1.17.779 2.6 1.071 8.667 1.775 14.163 9.696 10.552 15.207-1.876 2.864-8.573 2.962-11.584.17-1.109-1.028-3.063-2.132-4.343-2.453-1.28-.322-3.305-1.28-4.5-2.131-2.447-1.743-14.876-2.276-16.446-.706-.469.469-3.107.735-5.96.6L175.6 254l-.245-4.297c-.243-4.261 1.47-9.703 3.055-9.703 1.581 0 6.39-5.046 6.39-6.705 0-1.859 2.027-5.282 3.752-6.335.576-.352 1.048-1.315 1.048-2.142 0-5.16 16.002-9.089 21.153-5.193M112 222.4c0 .44-1.036.8-2.302.8s-2.75.54-3.298 1.2c-.548.66-1.672 1.2-2.498 1.2-.969 0-1.502.568-1.502 1.6 0 1.83.831 2.049 2.28.6.692-.692 4.05-1 10.919-1 6.869 0 10.227.308 10.92 1 .64.639 3.471 1.01 7.841 1.028 4.416.019 7.549.434 8.84 1.172 1.1.629 2.918 1.156 4.04 1.172 1.122.015 2.497.478 3.056 1.028.815.802 1.399.557 2.96-1.245 2.664-3.075 2.454-3.755-1.158-3.755-1.781 0-3.526-.511-4.098-1.2-.548-.66-2.011-1.2-3.251-1.2-1.24 0-2.477-.36-2.749-.8-.272-.44-1.532-.8-2.8-.8-1.268 0-2.528-.36-2.8-.8-.294-.476-5.342-.8-12.447-.8-7.435 0-11.953.302-11.953.8m182.4 18.261c0 .363.9 1.506 2 2.539 1.1 1.033 2 2.307 2 2.83 0 1.092 3.872 5.17 4.909 5.17 1.457 0 .783-8.822-.709-9.284-.77-.238-2.025-.767-2.789-1.174-1.723-.92-5.411-.975-5.411-.081" fill="#348334"/></g></svg>