<svg xmlns="http://www.w3.org/2000/svg" viewBox="0 0 170.96 159.93"><path d="M141.35 73.27c0-6.89-8.11-13-20.58-16.73 3-12.67 1.69-22.75-4.28-26.16a9.55 9.55 0 0 0-4.79-1.2c-5.57 0-12.61 3.89-19.72 10.62-7.11-6.68-14.13-10.55-19.69-10.55a9.46 9.46 0 0 0-4.86 1.22c-5.94 3.42-7.17 13.44-4.21 26.05-12.41 3.71-20.48 9.77-20.5 16.63s8.12 13 20.59 16.72c-3 12.68-1.7 22.75 4.28 26.16a9.41 9.41 0 0 0 4.78 1.2c5.58 0 12.62-3.89 19.73-10.62 7.1 6.68 14.12 10.55 19.69 10.55a9.59 9.59 0 0 0 4.86-1.22c5.94-3.42 7.16-13.44 4.21-26 12.41-3.76 20.48-9.82 20.49-16.67zM96.56 42.06c8.19-7.33 13.31-8.12 15.13-8.12a4.71 4.71 0 0 1 2.42.58c2.86 1.63 4 7.38 3.09 15a56.73 56.73 0 0 1-1 5.79 97.7 97.7 0 0 0-12.58-2.07 98.47 98.47 0 0 0-8.24-10.08c.37-.37.77-.74 1.18-1.1zM71.77 78.94c.78 1.5 1.61 3 2.47 4.51S76 86.49 77 88c-2.71-.39-5.34-.88-7.84-1.46.7-2.54 1.59-5.04 2.61-7.6zM69 59.9a87.99 87.99 0 0 1 7.93-1.46c-1 1.48-1.86 3-2.76 4.59s-1.69 3-2.46 4.52q-1.53-3.9-2.71-7.65zm5.21 13.34q1.86-3.93 4.09-7.86c1.5-2.62 3.11-5.17 4.77-7.61 2.91-.22 5.91-.34 9-.33s6 .12 8.89.35c1.66 2.42 3.25 5 4.75 7.55s2.88 5.22 4.12 7.83c-1.23 2.62-2.6 5.25-4.08 7.85s-3.11 5.18-4.77 7.62c-2.91.23-5.91.34-9 .34s-6-.13-8.89-.36c-1.66-2.42-3.26-4.94-4.76-7.55s-2.83-5.22-4.08-7.83zm32.86-14.77c2.72.38 5.35.87 7.84 1.45-.74 2.47-1.62 5-2.64 7.55-.79-1.5-1.61-3-2.48-4.51s-1.79-3.03-2.68-4.49zm2.76 24.92q1.29-2.27 2.46-4.53c1 2.6 2 5.16 2.7 7.66a87.16 87.16 0 0 1-7.92 1.45q1.45-2.22 2.8-4.58zM92 46.56c1.8 1.92 3.57 4 5.3 6.23-1.71-.07-3.46-.12-5.23-.12s-3.58 0-5.33.12c1.71-2.22 3.46-4.31 5.26-6.23zm-22.18-12a4.82 4.82 0 0 1 2.47-.56 13.11 13.11 0 0 1 5.19 1.31 39.07 39.07 0 0 1 10 6.78l1.17 1.07a98.49 98.49 0 0 0-8.16 10 98.88 98.88 0 0 0-12.65 2.06c-.44-1.94-.8-3.84-1-5.67C65.8 42 67 36.24 69.81 34.6zm-5.29 50.7a58.75 58.75 0 0 1-5.54-2c-7.1-3-11.5-6.85-11.5-10.14S51.91 66 59 63.05a57.63 57.63 0 0 1 5.44-1.94A97.93 97.93 0 0 0 69 73.25a98.72 98.72 0 0 0-4.47 12.01zm23 19.1c-8.19 7.33-13.31 8.11-15.14 8.11a4.69 4.69 0 0 1-2.42-.58c-2.86-1.63-4-7.38-3.09-15a56.07 56.07 0 0 1 1-5.78 99.51 99.51 0 0 0 12.58 2.06 97.17 97.17 0 0 0 8.24 10.08zm4.57-4.51c-1.8-1.92-3.57-4-5.31-6.23 1.72.08 3.47.12 5.24.12s3.58 0 5.33-.11a95.47 95.47 0 0 1-5.27 6.22zm22.18 12a4.82 4.82 0 0 1-2.48.59c-1.82 0-7-.8-15.16-8.1l-1.17-1.07a98.44 98.44 0 0 0 8.15-10 97 97 0 0 0 12.66-2.06c.44 1.94.79 3.84 1 5.67.99 7.54-.16 13.3-3.01 14.93zm10.8-28.44c-1.71.7-3.52 1.35-5.44 1.93a98.54 98.54 0 0 0-4.57-12.14 98.1 98.1 0 0 0 4.49-12 58.75 58.75 0 0 1 5.54 2c7.09 3 11.5 6.85 11.49 10.14s-4.42 7.08-11.52 10.03zM92 82.39a9.18 9.18 0 1 0-9.17-9.19A9.17 9.17 0 0 0 92 82.39zM31 17.88v110.65h122.07V17.88zm117.3 105.89H35.78V22.65H148.3zm-85-33.9c-3 12.68-1.7 22.75 4.28 26.16a9.41 9.41 0 0 0 4.78 1.2c5.58 0 12.62-3.89 19.73-10.62 7.1 6.68 14.12 10.55 19.69 10.55a9.59 9.59 0 0 0 4.86-1.22c5.94-3.42 7.16-13.44 4.21-26 12.41-3.72 20.48-9.78 20.49-16.63s-8.11-13-20.58-16.73c3-12.67 1.69-22.75-4.28-26.16a9.55 9.55 0 0 0-4.79-1.2c-5.57 0-12.61 3.89-19.72 10.62-7.11-6.68-14.13-10.55-19.69-10.55a9.46 9.46 0 0 0-4.86 1.22c-5.94 3.42-7.17 13.44-4.21 26.05-12.41 3.71-20.48 9.77-20.5 16.63s8.13 12.94 20.6 16.68zm24.21 14.49c-8.19 7.33-13.31 8.11-15.14 8.11a4.69 4.69 0 0 1-2.42-.58c-2.86-1.63-4-7.38-3.09-15a56.07 56.07 0 0 1 1-5.78 99.51 99.51 0 0 0 12.58 2.06 97.17 97.17 0 0 0 8.24 10.08zm24.79-36.89c-.79-1.5-1.61-3-2.48-4.51s-1.8-3-2.72-4.49c2.72.38 5.35.87 7.84 1.45-.73 2.47-1.61 5-2.63 7.55zm2.72 19a87.16 87.16 0 0 1-7.92 1.45q1.41-2.22 2.76-4.58t2.46-4.53c1.05 2.65 1.96 5.19 2.68 7.71zm-5.21-13.35c-1.23 2.62-2.6 5.25-4.08 7.85s-3.11 5.18-4.77 7.62c-2.91.23-5.91.34-9 .34s-6-.13-8.89-.36c-1.66-2.42-3.26-4.94-4.76-7.55s-2.87-5.22-4.12-7.83q1.86-3.93 4.09-7.86c1.5-2.62 3.11-5.17 4.77-7.61 2.91-.22 5.91-.34 9-.33s6 .12 8.89.35c1.66 2.42 3.25 5 4.75 7.55s2.89 5.27 4.13 7.88zM77 88c-2.71-.39-5.34-.88-7.84-1.46.74-2.46 1.63-5 2.65-7.55.78 1.5 1.61 3 2.47 4.51S76 86.49 77 88zm-2.79-25c-.87 1.5-1.69 3-2.46 4.52Q70.18 63.65 69 59.9a87.99 87.99 0 0 1 7.93-1.46c-.93 1.48-1.82 3.01-2.72 4.56zm17.88 36.85c-1.8-1.92-3.57-4-5.31-6.23 1.72.08 3.47.12 5.24.12s3.58 0 5.33-.11c-1.72 2.22-3.48 4.3-5.26 6.22zm22.18 12a4.82 4.82 0 0 1-2.48.59c-1.82 0-7-.8-15.16-8.1l-1.17-1.07a98.44 98.44 0 0 0 8.15-10 97 97 0 0 0 12.66-2.06c.44 1.94.79 3.84 1 5.67 1 7.54-.15 13.3-3 14.93zm5.28-50.66a58.75 58.75 0 0 1 5.54 2c7.09 3 11.5 6.85 11.49 10.14s-4.41 7.16-11.51 10.11c-1.71.7-3.52 1.35-5.44 1.93a98.54 98.54 0 0 0-4.57-12.14 98.1 98.1 0 0 0 4.49-12.08zm-23-19.09c8.19-7.33 13.31-8.12 15.13-8.12a4.71 4.71 0 0 1 2.42.58c2.86 1.63 4 7.38 3.09 15a56.73 56.73 0 0 1-1 5.79 97.7 97.7 0 0 0-12.58-2.07 98.47 98.47 0 0 0-8.24-10.08c.38-.41.78-.78 1.19-1.14zM92 46.56c1.8 1.92 3.57 4 5.3 6.23-1.71-.07-3.46-.12-5.23-.12s-3.58 0-5.33.12c1.71-2.22 3.46-4.31 5.26-6.23zm-22.18-12a4.82 4.82 0 0 1 2.47-.56 13.11 13.11 0 0 1 5.19 1.31 39.07 39.07 0 0 1 10 6.78l1.17 1.07a98.49 98.49 0 0 0-8.16 10 98.88 98.88 0 0 0-12.65 2.06c-.44-1.94-.8-3.84-1-5.67C65.8 42 67 36.24 69.81 34.6zM59 63.05a57.63 57.63 0 0 1 5.44-1.94A97.93 97.93 0 0 0 69 73.25a98.72 98.72 0 0 0-4.49 12 58.75 58.75 0 0 1-5.54-2c-7.1-3-11.5-6.85-11.5-10.14S51.91 66 59 63.05zm33 1a9.18 9.18 0 1 0 9.17 9.19A9.17 9.17 0 0 0 92 64zm0 0a9.18 9.18 0 1 0 9.17 9.19A9.17 9.17 0 0 0 92 64zm0 0a9.18 9.18 0 1 0 9.17 9.19A9.17 9.17 0 0 0 92 64zm49.35 9.24c0-6.89-8.11-13-20.58-16.73 3-12.67 1.69-22.75-4.28-26.16a9.55 9.55 0 0 0-4.79-1.2c-5.57 0-12.61 3.89-19.72 10.62-7.11-6.68-14.13-10.55-19.69-10.55a9.46 9.46 0 0 0-4.86 1.22c-5.94 3.42-7.17 13.44-4.21 26.05-12.41 3.71-20.48 9.77-20.5 16.63s8.12 13 20.59 16.72c-3 12.68-1.7 22.75 4.28 26.16a9.41 9.41 0 0 0 4.78 1.2c5.58 0 12.62-3.89 19.73-10.62 7.1 6.68 14.12 10.55 19.69 10.55a9.59 9.59 0 0 0 4.86-1.22c5.94-3.42 7.16-13.44 4.21-26 12.41-3.78 20.48-9.84 20.49-16.69zM96.56 42.06c8.19-7.33 13.31-8.12 15.13-8.12a4.71 4.71 0 0 1 2.42.58c2.86 1.63 4 7.38 3.09 15a56.73 56.73 0 0 1-1 5.79 97.7 97.7 0 0 0-12.58-2.07 98.47 98.47 0 0 0-8.24-10.08c.37-.37.77-.74 1.18-1.1zM71.77 78.94c.78 1.5 1.61 3 2.47 4.51S76 86.49 77 88c-2.71-.39-5.34-.88-7.84-1.46.7-2.54 1.59-5.04 2.61-7.6zM69 59.9a87.99 87.99 0 0 1 7.93-1.46c-1 1.48-1.86 3-2.76 4.59s-1.69 3-2.46 4.52q-1.53-3.9-2.71-7.65zm5.21 13.34q1.86-3.93 4.09-7.86c1.5-2.62 3.11-5.17 4.77-7.61 2.91-.22 5.91-.34 9-.33s6 .12 8.89.35c1.66 2.42 3.25 5 4.75 7.55s2.88 5.22 4.12 7.83c-1.23 2.62-2.6 5.25-4.08 7.85s-3.11 5.18-4.77 7.62c-2.91.23-5.91.34-9 .34s-6-.13-8.89-.36c-1.66-2.42-3.26-4.94-4.76-7.55s-2.83-5.22-4.08-7.83zm32.86-14.77c2.72.38 5.35.87 7.84 1.45-.74 2.47-1.62 5-2.64 7.55-.79-1.5-1.61-3-2.48-4.51s-1.79-3.03-2.68-4.49zm2.76 24.92q1.29-2.27 2.46-4.53c1 2.6 2 5.16 2.7 7.66a87.16 87.16 0 0 1-7.92 1.45q1.45-2.22 2.8-4.58zM92 46.56c1.8 1.92 3.57 4 5.3 6.23-1.71-.07-3.46-.12-5.23-.12s-3.58 0-5.33.12c1.71-2.22 3.46-4.31 5.26-6.23zm-22.18-12a4.82 4.82 0 0 1 2.47-.56 13.11 13.11 0 0 1 5.19 1.31 39.07 39.07 0 0 1 10 6.78l1.17 1.07a98.49 98.49 0 0 0-8.16 10 98.88 98.88 0 0 0-12.65 2.06c-.44-1.94-.8-3.84-1-5.67C65.8 42 67 36.24 69.81 34.6zm-5.29 50.7a58.75 58.75 0 0 1-5.54-2c-7.1-3-11.5-6.85-11.5-10.14S51.91 66 59 63.05a57.63 57.63 0 0 1 5.44-1.94A97.93 97.93 0 0 0 69 73.25a98.72 98.72 0 0 0-4.47 12.01zm23 19.1c-8.19 7.33-13.31 8.11-15.14 8.11a4.69 4.69 0 0 1-2.42-.58c-2.86-1.63-4-7.38-3.09-15a56.07 56.07 0 0 1 1-5.78 99.51 99.51 0 0 0 12.58 2.06 97.17 97.17 0 0 0 8.24 10.08zm4.57-4.51c-1.8-1.92-3.57-4-5.31-6.23 1.72.08 3.47.12 5.24.12s3.58 0 5.33-.11a95.47 95.47 0 0 1-5.27 6.22zm22.18 12a4.82 4.82 0 0 1-2.48.59c-1.82 0-7-.8-15.16-8.1l-1.17-1.07a98.44 98.44 0 0 0 8.15-10 97 97 0 0 0 12.66-2.06c.44 1.94.79 3.84 1 5.67.99 7.54-.16 13.3-3.01 14.93zm10.8-28.44c-1.71.7-3.52 1.35-5.44 1.93a98.54 98.54 0 0 0-4.57-12.14 98.1 98.1 0 0 0 4.49-12 58.75 58.75 0 0 1 5.54 2c7.09 3 11.5 6.85 11.49 10.14s-4.42 7.08-11.52 10.03zM92 82.39a9.18 9.18 0 1 0-9.17-9.19A9.17 9.17 0 0 0 92 82.39zm-69.32 54.5V26.2L17.89 31v110.66h122.05l4.78-4.77z" fill="#09d3ac"/></svg>